<mxfile host="app.diagrams.net" agent="Mozilla/5.0 (Macintosh; Intel Mac OS X 10_15_7) AppleWebKit/537.36 (KHTML, like Gecko) Chrome/131.0.0.0 Safari/537.36" version="24.8.9">
  <diagram name="Page-1" id="sRxMaKOe7Yb-yOGj0L0l">
    <mxGraphModel dx="1187" dy="725" grid="1" gridSize="10" guides="1" tooltips="1" connect="1" arrows="1" fold="1" page="1" pageScale="1" pageWidth="850" pageHeight="1100" math="0" shadow="0">
      <root>
        <mxCell id="0" />
        <mxCell id="1" parent="0" />
        <mxCell id="QX-P79LdTZ4ubuz_DQ_H-30" value="" style="group" vertex="1" connectable="0" parent="1">
          <mxGeometry x="40" y="580.0000000000005" width="790" height="498.99999999999955" as="geometry" />
        </mxCell>
        <mxCell id="QX-P79LdTZ4ubuz_DQ_H-16" value="Corporate Datacenter" style="verticalLabelPosition=bottom;verticalAlign=top;html=1;shape=mxgraph.basic.patternFillRect;fillStyle=diag;step=5;fillStrokeWidth=0.2;fillStrokeColor=#dddddd;opacity=30;fillColor=#dae8fc;strokeColor=#6c8ebf;" vertex="1" parent="QX-P79LdTZ4ubuz_DQ_H-30">
          <mxGeometry y="228.99999999999955" width="280" height="270" as="geometry" />
        </mxCell>
        <mxCell id="QX-P79LdTZ4ubuz_DQ_H-17" value="Corporate AWS VPC" style="verticalLabelPosition=bottom;verticalAlign=top;html=1;shape=mxgraph.basic.patternFillRect;fillStyle=diag;step=5;fillStrokeWidth=0.2;fillStrokeColor=#dddddd;opacity=30;fillColor=#dae8fc;strokeColor=#6c8ebf;" vertex="1" parent="QX-P79LdTZ4ubuz_DQ_H-30">
          <mxGeometry x="460" y="190.99999999999955" width="330" height="308" as="geometry" />
        </mxCell>
        <mxCell id="QX-P79LdTZ4ubuz_DQ_H-2" value="Corporate Database" style="shape=image;verticalLabelPosition=bottom;labelBackgroundColor=#ffffff;verticalAlign=top;aspect=fixed;imageAspect=0;image=data:image/svg+xml,PHN2ZyB4bWxuczpjYz0iaHR0cDovL2NyZWF0aXZlY29tbW9ucy5vcmcvbnMjIiB4bWxuczpkYz0iaHR0cDovL3B1cmwub3JnL2RjL2VsZW1lbnRzLzEuMS8iIHhtbG5zOmlua3NjYXBlPSJodHRwOi8vd3d3Lmlua3NjYXBlLm9yZy9uYW1lc3BhY2VzL2lua3NjYXBlIiB4bWxuczpyZGY9Imh0dHA6Ly93d3cudzMub3JnLzE5OTkvMDIvMjItcmRmLXN5bnRheC1ucyMiIHhtbG5zOnNvZGlwb2RpPSJodHRwOi8vc29kaXBvZGkuc291cmNlZm9yZ2UubmV0L0RURC9zb2RpcG9kaS0wLmR0ZCIgeG1sbnM6c3ZnPSJodHRwOi8vd3d3LnczLm9yZy8yMDAwL3N2ZyIgeG1sbnM9Imh0dHA6Ly93d3cudzMub3JnLzIwMDAvc3ZnIiB4bWxuczp4bGluaz0iaHR0cDovL3d3dy53My5vcmcvMTk5OS94bGluayIgdmVyc2lvbj0iMS4xIiBpZD0ic3ZnMjU2MTM1IiBpbmtzY2FwZTp2ZXJzaW9uPSIwLjkyLjMgKDI0MDU1NDYsIDIwMTgtMDMtMTEpIiBzb2RpcG9kaTpkb2NuYW1lPSJkYXRhYmFzZV9zZXJ2ZXIuc3ZnIiB4PSIwcHgiIHk9IjBweCIgdmlld0JveD0iMCAwIDQ4LjQxIDY5Ljc2IiBzdHlsZT0iZW5hYmxlLWJhY2tncm91bmQ6bmV3IDAgMCA0OC40MSA2OS43NjsiIHhtbDpzcGFjZT0icHJlc2VydmUiPiYjeGE7PHNvZGlwb2RpOm5hbWVkdmlldyBib3JkZXJjb2xvcj0iIzY2NjY2NiIgYm9yZGVyb3BhY2l0eT0iMSIgZml0LW1hcmdpbi1ib3R0b209IjAiIGZpdC1tYXJnaW4tbGVmdD0iMCIgZml0LW1hcmdpbi1yaWdodD0iMCIgZml0LW1hcmdpbi10b3A9IjAiIGdyaWR0b2xlcmFuY2U9IjEwIiBndWlkZXRvbGVyYW5jZT0iMTAiIGlkPSJuYW1lZHZpZXcyNTYxMzciIGlua3NjYXBlOmN1cnJlbnQtbGF5ZXI9InN2ZzI1NjEzNSIgaW5rc2NhcGU6Y3g9IjMyLjE5MDg5NyIgaW5rc2NhcGU6Y3k9IjQ2LjUwODM0NiIgaW5rc2NhcGU6cGFnZW9wYWNpdHk9IjAiIGlua3NjYXBlOnBhZ2VzaGFkb3c9IjIiIGlua3NjYXBlOndpbmRvdy1oZWlnaHQ9IjEwMTciIGlua3NjYXBlOndpbmRvdy1tYXhpbWl6ZWQ9IjEiIGlua3NjYXBlOndpbmRvdy13aWR0aD0iMTkyMCIgaW5rc2NhcGU6d2luZG93LXg9Ii04IiBpbmtzY2FwZTp3aW5kb3cteT0iLTgiIGlua3NjYXBlOnpvb209IjkuMTI1MzY4OSIgb2JqZWN0dG9sZXJhbmNlPSIxMCIgcGFnZWNvbG9yPSIjZmZmZmZmIiBzaG93Z3JpZD0iZmFsc2UiPiYjeGE7CTwvc29kaXBvZGk6bmFtZWR2aWV3PiYjeGE7PGcgaWQ9ImcyNTYxMzMiIHRyYW5zZm9ybT0idHJhbnNsYXRlKC0wLjc1LC0wLjc1MDAzODc4KSI+JiN4YTsJPHRpdGxlIGlkPSJ0aXRsZTI1NjAxNiI+UGFnZS0xPC90aXRsZT4mI3hhOwk8ZyBpZD0iZ3JvdXAxMDk0OC0xIiB0cmFuc2Zvcm09InRyYW5zbGF0ZSgxLjUsLTEuNSkiPiYjeGE7CQk8dGl0bGUgaWQ9InRpdGxlMjU2MDE4Ij5EYXRhYmFzZSBTZXJ2ZXI8L3RpdGxlPiYjeGE7CQk8ZyBpZD0iZ3JvdXAxMDk0OS0yIj4mI3hhOwkJCTx0aXRsZSBpZD0idGl0bGUyNTYwMjAiPkRhdGFiYXNlIFNlcnZlcjwvdGl0bGU+JiN4YTsJCQk8ZyBpZD0iZ3JvdXAxMDk1MC0zIj4mI3hhOwkJCQk8dGl0bGUgaWQ9InRpdGxlMjU2MDIyIj5HZW5lcmljIFNlcnZpY2U8L3RpdGxlPiYjeGE7CQkJCTxnIGlkPSJncm91cDEwOTUxLTQiIHRyYW5zZm9ybT0idHJhbnNsYXRlKDAsLTAuMDA3Mzk4NzYpIj4mI3hhOwkJCQkJPHRpdGxlIGlkPSJ0aXRsZTI1NjAyNCI+ZzE1NDMzLjExNzIxPC90aXRsZT4mI3hhOwkJCQkJPGcgaWQ9InNoYXBlMTA5NTItNSI+JiN4YTsJCQkJCQk8dGl0bGUgaWQ9InRpdGxlMjU2MDI2Ij5yZWN0MTU0MDU8L3RpdGxlPiYjeGE7CQkJCQkJJiN4YTsJCQkJCQkJPHJlY3QgaWQ9InJlY3QyNTYwMjgiIHk9IjMuMDEiIHN0eWxlPSJmaWxsOiNGRkZGRkY7c3Ryb2tlOiM1NTZBOEE7c3Ryb2tlLXdpZHRoOjEuNTtzdHJva2UtbWl0ZXJsaW1pdDozOyIgd2lkdGg9IjM5Ljc1IiBoZWlnaHQ9IjY4LjI1Ii8+JiN4YTsJCQkJCTwvZz4mI3hhOwkJCQkJPGcgaWQ9Imdyb3VwMTA5NTMtNyIgdHJhbnNmb3JtPSJ0cmFuc2xhdGUoMS41LC0wLjc1KSI+JiN4YTsJCQkJCQk8dGl0bGUgaWQ9InRpdGxlMjU2MDMxIj5nMTU0MjU8L3RpdGxlPiYjeGE7CQkJCQkJPGcgaWQ9InNoYXBlMTA5NTQtOCIgdHJhbnNmb3JtPSJ0cmFuc2xhdGUoMTgpIj4mI3hhOwkJCQkJCQk8dGl0bGUgaWQ9InRpdGxlMjU2MDMzIj5yZWN0MTU0MDc8L3RpdGxlPiYjeGE7CQkJCQkJCTxyZWN0IGlkPSJyZWN0MjU2MDM1IiB5PSI0LjUxIiBzdHlsZT0iZmlsbDojRTVFNUU1OyIgd2lkdGg9IjE5LjUiIGhlaWdodD0iNjYuNzUiLz4mI3hhOwkJCQkJCTwvZz4mI3hhOwkJCQkJCTxnIGlkPSJzaGFwZTEwOTU1LTEwIiB0cmFuc2Zvcm09InRyYW5zbGF0ZSgwLC00OCkiPiYjeGE7CQkJCQkJCTx0aXRsZSBpZD0idGl0bGUyNTYwMzgiPnJlY3QxNTQwOTwvdGl0bGU+JiN4YTsJCQkJCQkJPHJlY3QgaWQ9InJlY3QyNTYwNDAiIHk9IjY5LjAxIiBzdHlsZT0iZmlsbDojMkJDN0Y0OyIgd2lkdGg9IjE4IiBoZWlnaHQ9IjIuMjUiLz4mI3hhOwkJCQkJCTwvZz4mI3hhOwkJCQkJCTxnIGlkPSJzaGFwZTEwOTU2LTEyIiB0cmFuc2Zvcm09InRyYW5zbGF0ZSgwLC01OC41KSI+JiN4YTsJCQkJCQkJPHRpdGxlIGlkPSJ0aXRsZTI1NjA0MyI+cG9seWdvbjE1NDExPC90aXRsZT4mI3hhOwkJCQkJCQk8cmVjdCBpZD0icmVjdDI1NjA0NSIgeT0iNjkuMDEiIHN0eWxlPSJmaWxsOm5vbmU7IiB3aWR0aD0iMjciIGhlaWdodD0iMi4yNSIvPiYjeGE7CQkJCQkJPC9nPiYjeGE7CQkJCQkJPGcgaWQ9InNoYXBlMTA5NTctMTQiIHRyYW5zZm9ybT0idHJhbnNsYXRlKDAsLTU4LjUpIj4mI3hhOwkJCQkJCQk8dGl0bGUgaWQ9InRpdGxlMjU2MDQ4Ij5wb2x5bGluZTE1NDEzPC90aXRsZT4mI3hhOwkJCQkJCQk8cmVjdCBpZD0icmVjdDI1NjA1MCIgeT0iNjkuMDEiIHN0eWxlPSJmaWxsOm5vbmU7IiB3aWR0aD0iMjciIGhlaWdodD0iMi4yNSIvPiYjeGE7CQkJCQkJPC9nPiYjeGE7CQkJCQkJPGcgaWQ9InNoYXBlMTA5NTgtMTYiIHRyYW5zZm9ybT0idHJhbnNsYXRlKDAsLTUzLjI1KSI+JiN4YTsJCQkJCQkJPHRpdGxlIGlkPSJ0aXRsZTI1NjA1MyI+cmVjdDE1NDE1PC90aXRsZT4mI3hhOwkJCQkJCQk8cmVjdCBpZD0icmVjdDI1NjA1NSIgeT0iNjkuMDEiIHN0eWxlPSJmaWxsOiMyQkM3RjQ7IiB3aWR0aD0iMTgiIGhlaWdodD0iMi4yNSIvPiYjeGE7CQkJCQkJPC9nPiYjeGE7CQkJCQkJPGcgaWQ9InNoYXBlMTA5NTktMTgiIHRyYW5zZm9ybT0idHJhbnNsYXRlKDAsLTU4LjUpIj4mI3hhOwkJCQkJCQk8dGl0bGUgaWQ9InRpdGxlMjU2MDU4Ij5yZWN0MTU0MTc8L3RpdGxlPiYjeGE7CQkJCQkJCTxyZWN0IGlkPSJyZWN0MjU2MDYwIiB5PSI2OS4wMSIgc3R5bGU9ImZpbGw6IzJCQzdGNDsiIHdpZHRoPSIxOCIgaGVpZ2h0PSIyLjI1Ii8+JiN4YTsJCQkJCQk8L2c+JiN4YTsJCQkJCQk8ZyBpZD0ic2hhcGUxMDk2MC0yMCIgdHJhbnNmb3JtPSJ0cmFuc2xhdGUoMTgsLTQ4KSI+JiN4YTsJCQkJCQkJPHRpdGxlIGlkPSJ0aXRsZTI1NjA2MyI+cmVjdDE1NDE5PC90aXRsZT4mI3hhOwkJCQkJCQk8cmVjdCBpZD0icmVjdDI1NjA2NSIgeT0iNjkuMDEiIHN0eWxlPSJmaWxsOiM1NTZBOEE7IiB3aWR0aD0iMTkuNSIgaGVpZ2h0PSIyLjI1Ii8+JiN4YTsJCQkJCQk8L2c+JiN4YTsJCQkJCQk8ZyBpZD0ic2hhcGUxMDk2MS0yMiIgdHJhbnNmb3JtPSJ0cmFuc2xhdGUoMTgsLTUzLjI1KSI+JiN4YTsJCQkJCQkJPHRpdGxlIGlkPSJ0aXRsZTI1NjA2OCI+cmVjdDE1NDIxPC90aXRsZT4mI3hhOwkJCQkJCQk8cmVjdCBpZD0icmVjdDI1NjA3MCIgeT0iNjkuMDEiIHN0eWxlPSJmaWxsOiM1NTZBOEE7IiB3aWR0aD0iMTkuNSIgaGVpZ2h0PSIyLjI1Ii8+JiN4YTsJCQkJCQk8L2c+JiN4YTsJCQkJCQk8ZyBpZD0ic2hhcGUxMDk2Mi0yNCIgdHJhbnNmb3JtPSJ0cmFuc2xhdGUoMTgsLTU4LjUpIj4mI3hhOwkJCQkJCQk8dGl0bGUgaWQ9InRpdGxlMjU2MDczIj5yZWN0MTU0MjM8L3RpdGxlPiYjeGE7CQkJCQkJCTxyZWN0IGlkPSJyZWN0MjU2MDc1IiB5PSI2OS4wMSIgc3R5bGU9ImZpbGw6IzU1NkE4QTsiIHdpZHRoPSIxOS41IiBoZWlnaHQ9IjIuMjUiLz4mI3hhOwkJCQkJCTwvZz4mI3hhOwkJCQkJPC9nPiYjeGE7CQkJCQk8ZyBpZD0ic2hhcGUxMDk2My0yNiIgdHJhbnNmb3JtPSJ0cmFuc2xhdGUoMC43NSwtNTkuMjUpIj4mI3hhOwkJCQkJCTx0aXRsZSBpZD0idGl0bGUyNTYwNzkiPnJlY3QxNTQyNzwvdGl0bGU+JiN4YTsJCQkJCQk8cmVjdCBpZD0icmVjdDI1NjA4MSIgeT0iNjkuMDEiIHN0eWxlPSJmaWxsOiM1NTZBOEE7IiB3aWR0aD0iMi4yNSIgaGVpZ2h0PSIyLjI1Ii8+JiN4YTsJCQkJCTwvZz4mI3hhOwkJCQkJPGcgaWQ9InNoYXBlMTA5NjQtMjgiIHRyYW5zZm9ybT0idHJhbnNsYXRlKDAuNzUsLTU0KSI+JiN4YTsJCQkJCQk8dGl0bGUgaWQ9InRpdGxlMjU2MDg0Ij5yZWN0MTU0Mjk8L3RpdGxlPiYjeGE7CQkJCQkJPHJlY3QgaWQ9InJlY3QyNTYwODYiIHk9IjY5LjAxIiBzdHlsZT0iZmlsbDojNTU2QThBOyIgd2lkdGg9IjIuMjUiIGhlaWdodD0iMi4yNSIvPiYjeGE7CQkJCQk8L2c+JiN4YTsJCQkJCTxnIGlkPSJzaGFwZTEwOTY1LTMwIiB0cmFuc2Zvcm09InRyYW5zbGF0ZSgwLjc1LC00OC43NSkiPiYjeGE7CQkJCQkJPHRpdGxlIGlkPSJ0aXRsZTI1NjA4OSI+cmVjdDE1NDMxPC90aXRsZT4mI3hhOwkJCQkJCTxyZWN0IGlkPSJyZWN0MjU2MDkxIiB5PSI2OS4wMSIgc3R5bGU9ImZpbGw6IzU1NkE4QTsiIHdpZHRoPSIyLjI1IiBoZWlnaHQ9IjIuMjUiLz4mI3hhOwkJCQkJPC9nPiYjeGE7CQkJCTwvZz4mI3hhOwkJCQk8ZyBpZD0ic2hhcGUxMDk2Ni0zMiIgdHJhbnNmb3JtPSJ0cmFuc2xhdGUoMTMuNjk4MykiPiYjeGE7CQkJCQk8dGl0bGUgaWQ9InRpdGxlMjU2MDk1Ij5wb2x5Z29uMTU0MzUuMTE3Mzc8L3RpdGxlPiYjeGE7CQkJCQkmI3hhOwkJCQkJCTxwYXRoIGlkPSJwYXRoMjU2MDk3IiBpbmtzY2FwZTpjb25uZWN0b3ItY3VydmF0dXJlPSIwIiBzdHlsZT0iZmlsbDojRkZGRkZGO3N0cm9rZTojNTU2QThBO3N0cm9rZS13aWR0aDoxLjU7c3Ryb2tlLW1pdGVybGltaXQ6MzsiIGQ9IiAgICAgICBNOC4yNyw3MS4yNkwwLDU3LjAybDguMjctMTQuMjNoMTYuNTVsOC4yNywxNC4yM2wtOC4yNywxNC4yNEg4LjI3eiIvPiYjeGE7CQkJCTwvZz4mI3hhOwkJCTwvZz4mI3hhOwkJPC9nPiYjeGE7CQk8ZyBpZD0iZ3JvdXAxMDk2Ny0zNCIgdHJhbnNmb3JtPSJ0cmFuc2xhdGUoMjIuMDM2NiwtMy44NjEzMykiPiYjeGE7CQkJPHRpdGxlIGlkPSJ0aXRsZTI1NjEwMiI+U2hlZXQuMTA5Njc8L3RpdGxlPiYjeGE7CQkJPGcgaWQ9Imdyb3VwMTA5NjgtMzUiPiYjeGE7CQkJCTx0aXRsZSBpZD0idGl0bGUyNTYxMDQiPmcxNDUwPC90aXRsZT4mI3hhOwkJCQk8ZyBpZD0ic2hhcGUxMDk2OS0zNiI+JiN4YTsJCQkJCTx0aXRsZSBpZD0idGl0bGUyNTYxMDYiPnBhdGgxNDQyPC90aXRsZT4mI3hhOwkJCQkJPHBhdGggaWQ9InBhdGgyNTYxMDgiIGlua3NjYXBlOmNvbm5lY3Rvci1jdXJ2YXR1cmU9IjAiIHN0eWxlPSJmaWxsOiNGRkZGRkY7IiBkPSJNMTQuNzUsNTIuNmwtNC44LDAuMDVMMCw1Mi43M3YxNS40OSAgICAgICBjMCwxLjU5LDMuNDgsMi45NSw4LjAxLDMuMDRoMC4xN2MwLjYxLDAsMS4yLTAuMDQsMS43Ny0wLjA5YzEuNjYtMC4xLDMuMjgtMC41LDQuOC0xLjE4YzEuMDItMC41MSwxLjYxLTEuMTMsMS42MS0xLjc3VjUyLjU5ICAgICAgIEwxNC43NSw1Mi42eiIvPiYjeGE7CQkJCTwvZz4mI3hhOwkJCQk8ZyBpZD0ic2hhcGUxMDk3MC0zOCIgdHJhbnNmb3JtPSJ0cmFuc2xhdGUoOS45NTEzNCwtMC4wOTc0NTk4KSI+JiN4YTsJCQkJCTx0aXRsZSBpZD0idGl0bGUyNTYxMTEiPnBhdGgxNDQ0PC90aXRsZT4mI3hhOwkJCQkJPHBhdGggaWQ9InBhdGgyNTYxMTMiIGlua3NjYXBlOmNvbm5lY3Rvci1jdXJ2YXR1cmU9IjAiIHN0eWxlPSJmaWxsOiNFNUU1RTU7IiBkPSJNNC44LDUyLjd2MTcuMzggICAgICAgYy0xLjUyLDAuNjgtMy4xNCwxLjA4LTQuOCwxLjE4VjUyLjc0TDQuOCw1Mi43eiIvPiYjeGE7CQkJCTwvZz4mI3hhOwkJCQk8ZyBpZD0ic2hhcGUxMDk3MS00MCI+JiN4YTsJCQkJCTx0aXRsZSBpZD0idGl0bGUyNTYxMTYiPnBhdGgxNDQ2PC90aXRsZT4mI3hhOwkJCQkJPHBhdGggaWQ9InBhdGgyNTYxMTgiIGlua3NjYXBlOmNvbm5lY3Rvci1jdXJ2YXR1cmU9IjAiIHN0eWxlPSJmaWxsOm5vbmU7IiBkPSJNMCw1Mi43M3YxNS40OWMwLDEuNTksMy40NiwyLjk1LDguMDEsMy4wNGgwLjE3ICAgICAgIGM0LjYzLTAuMDYsOC4xOC0xLjQ0LDguMTgtMy4wNFY1Mi41OUwwLDUyLjczeiIvPiYjeGE7CQkJCQkmI3hhOwkJCQkJCTxwYXRoIGlkPSJwYXRoMjU2MTIwIiBpbmtzY2FwZTpjb25uZWN0b3ItY3VydmF0dXJlPSIwIiBzdHlsZT0iZmlsbDpub25lO3N0cm9rZTojNTU2QThBO3N0cm9rZS13aWR0aDoxLjU7c3Ryb2tlLW1pdGVybGltaXQ6MzsiIGQ9IiAgICAgICBNMCw1Mi43M3YxNS40OWMwLDEuNTksMy40NiwyLjk1LDguMDEsMy4wNGgwLjE3YzQuNjMtMC4wNiw4LjE4LTEuNDQsOC4xOC0zLjA0VjUyLjU5Ii8+JiN4YTsJCQkJPC9nPiYjeGE7CQkJCTxnIGlkPSJzaGFwZTEwOTcyLTQzIiB0cmFuc2Zvcm09InRyYW5zbGF0ZSgwLjAyMDg4NDIsLTE1LjUzMDkpIj4mI3hhOwkJCQkJPHRpdGxlIGlkPSJ0aXRsZTI1NjEyMyI+cGF0aDE0NDg8L3RpdGxlPiYjeGE7CQkJCQk8cGF0aCBpZD0icGF0aDI1NjEyNSIgaW5rc2NhcGU6Y29ubmVjdG9yLWN1cnZhdHVyZT0iMCIgc3R5bGU9ImZpbGw6IzU1RDJGNjsiIGQ9Ik0xNi4zNiw2OC4zYzAsMS42My0zLjY2LDIuOTYtOC4xOCwyLjk2ICAgICAgIFMwLDY5LjkzLDAsNjguM3MzLjc3LTIuOTUsOC4yOS0yLjk1czguMDcsMS4zMiw4LjA3LDIuOTZWNjguM3oiLz4mI3hhOwkJCQkJJiN4YTsJCQkJCQk8cGF0aCBpZD0icGF0aDI1NjEyNyIgaW5rc2NhcGU6Y29ubmVjdG9yLWN1cnZhdHVyZT0iMCIgc3R5bGU9ImZpbGw6bm9uZTtzdHJva2U6IzU1NkE4QTtzdHJva2Utd2lkdGg6MS41O3N0cm9rZS1taXRlcmxpbWl0OjM7IiBkPSIgICAgICAgTTE2LjM2LDY4LjNjMCwxLjYzLTMuNjYsMi45Ni04LjE4LDIuOTZTMCw2OS45MywwLDY4LjNzMy43Ny0yLjk1LDguMjktMi45NXM4LjA3LDEuMzIsOC4wNywyLjk2Ii8+JiN4YTsJCQkJPC9nPiYjeGE7CQkJPC9nPiYjeGE7CQk8L2c+JiN4YTsJPC9nPiYjeGE7PC9nPiYjeGE7PC9zdmc+;" vertex="1" parent="QX-P79LdTZ4ubuz_DQ_H-30">
          <mxGeometry x="60" y="388.99999999999955" width="48" height="70" as="geometry" />
        </mxCell>
        <mxCell id="QX-P79LdTZ4ubuz_DQ_H-22" style="edgeStyle=orthogonalEdgeStyle;rounded=0;orthogonalLoop=1;jettySize=auto;html=1;exitX=0.5;exitY=0;exitDx=0;exitDy=0;entryX=0;entryY=0.5;entryDx=0;entryDy=0;" edge="1" parent="QX-P79LdTZ4ubuz_DQ_H-30" source="QX-P79LdTZ4ubuz_DQ_H-4" target="QX-P79LdTZ4ubuz_DQ_H-15">
          <mxGeometry relative="1" as="geometry" />
        </mxCell>
        <mxCell id="QX-P79LdTZ4ubuz_DQ_H-4" value="Active Directory" style="shape=image;verticalLabelPosition=bottom;labelBackgroundColor=#ffffff;verticalAlign=top;aspect=fixed;imageAspect=0;image=data:image/svg+xml,PHN2ZyB4bWxuczpjYz0iaHR0cDovL2NyZWF0aXZlY29tbW9ucy5vcmcvbnMjIiB4bWxuczpkYz0iaHR0cDovL3B1cmwub3JnL2RjL2VsZW1lbnRzLzEuMS8iIHhtbG5zOmlua3NjYXBlPSJodHRwOi8vd3d3Lmlua3NjYXBlLm9yZy9uYW1lc3BhY2VzL2lua3NjYXBlIiB4bWxuczpyZGY9Imh0dHA6Ly93d3cudzMub3JnLzE5OTkvMDIvMjItcmRmLXN5bnRheC1ucyMiIHhtbG5zOnNvZGlwb2RpPSJodHRwOi8vc29kaXBvZGkuc291cmNlZm9yZ2UubmV0L0RURC9zb2RpcG9kaS0wLmR0ZCIgeG1sbnM6c3ZnPSJodHRwOi8vd3d3LnczLm9yZy8yMDAwL3N2ZyIgeG1sbnM9Imh0dHA6Ly93d3cudzMub3JnLzIwMDAvc3ZnIiB4bWxuczp4bGluaz0iaHR0cDovL3d3dy53My5vcmcvMTk5OS94bGluayIgdmVyc2lvbj0iMS4xIiBpZD0ic3ZnMTMzNTMxIiBpbmtzY2FwZTp2ZXJzaW9uPSIwLjkyLjMgKDI0MDU1NDYsIDIwMTgtMDMtMTEpIiBzb2RpcG9kaTpkb2NuYW1lPSJhZF9kbnNfc2VydmVyLnN2ZyIgeD0iMHB4IiB5PSIwcHgiIHZpZXdCb3g9IjAgMCA1NC40MiA2OS43NSIgc3R5bGU9ImVuYWJsZS1iYWNrZ3JvdW5kOm5ldyAwIDAgNTQuNDIgNjkuNzU7IiB4bWw6c3BhY2U9InByZXNlcnZlIj4mI3hhOzxzb2RpcG9kaTpuYW1lZHZpZXcgYm9yZGVyY29sb3I9IiM2NjY2NjYiIGJvcmRlcm9wYWNpdHk9IjEiIGZpdC1tYXJnaW4tYm90dG9tPSIwIiBmaXQtbWFyZ2luLWxlZnQ9IjAiIGZpdC1tYXJnaW4tcmlnaHQ9IjAiIGZpdC1tYXJnaW4tdG9wPSIwIiBncmlkdG9sZXJhbmNlPSIxMCIgZ3VpZGV0b2xlcmFuY2U9IjEwIiBpZD0ibmFtZWR2aWV3MTMzNTMzIiBpbmtzY2FwZTpjdXJyZW50LWxheWVyPSJzdmcxMzM1MzEiIGlua3NjYXBlOmN4PSI0My45Mzg1MTkiIGlua3NjYXBlOmN5PSI0Mi4yNjk0NDQiIGlua3NjYXBlOnBhZ2VvcGFjaXR5PSIwIiBpbmtzY2FwZTpwYWdlc2hhZG93PSIyIiBpbmtzY2FwZTp3aW5kb3ctaGVpZ2h0PSIxMDE3IiBpbmtzY2FwZTp3aW5kb3ctbWF4aW1pemVkPSIxIiBpbmtzY2FwZTp3aW5kb3ctd2lkdGg9IjE5MjAiIGlua3NjYXBlOndpbmRvdy14PSItOCIgaW5rc2NhcGU6d2luZG93LXk9Ii04IiBpbmtzY2FwZTp6b29tPSI4LjM4MDAzNyIgb2JqZWN0dG9sZXJhbmNlPSIxMCIgcGFnZWNvbG9yPSIjZmZmZmZmIiBzaG93Z3JpZD0iZmFsc2UiPiYjeGE7CTwvc29kaXBvZGk6bmFtZWR2aWV3PiYjeGE7PGcgaWQ9ImcxMzM1MjkiIHRyYW5zZm9ybT0idHJhbnNsYXRlKC0wLjc1MDE0MTUxLC0wLjc0OTk4OTk0KSI+JiN4YTsJPHRpdGxlIGlkPSJ0aXRsZTEzMzQwMiI+UGFnZS0xPC90aXRsZT4mI3hhOwk8ZyBpZD0iZ3JvdXA4MjY4LTEiIHRyYW5zZm9ybT0idHJhbnNsYXRlKDEuNSwtNy44NDU0NykiPiYjeGE7CQk8dGl0bGUgaWQ9InRpdGxlMTMzNDA0Ij5BRC9ETlMgU2VydmVyPC90aXRsZT4mI3hhOwkJPGcgaWQ9Imdyb3VwODI2OS0yIj4mI3hhOwkJCTx0aXRsZSBpZD0idGl0bGUxMzM0MDYiPlNoZWV0LjgyNjk8L3RpdGxlPiYjeGE7CQkJPGcgaWQ9Imdyb3VwODI3MC0zIj4mI3hhOwkJCQk8dGl0bGUgaWQ9InRpdGxlMTMzNDA4Ij5nMTY0MDg8L3RpdGxlPiYjeGE7CQkJCTxnIGlkPSJzaGFwZTgyNzEtNCI+JiN4YTsJCQkJCTx0aXRsZSBpZD0idGl0bGUxMzM0MTAiPnJlY3QxNjM4MDwvdGl0bGU+JiN4YTsJCQkJCSYjeGE7CQkJCQkJPHJlY3QgaWQ9InJlY3QxMzM0MTIiIHg9IjAiIHk9IjkuMzUiIHN0eWxlPSJmaWxsOiNGRkZGRkY7c3Ryb2tlOiM1NTZBOEE7c3Ryb2tlLXdpZHRoOjEuNTtzdHJva2UtbWl0ZXJsaW1pdDozOyIgd2lkdGg9IjM5Ljc1IiBoZWlnaHQ9IjY4LjI1Ii8+JiN4YTsJCQkJPC9nPiYjeGE7CQkJCTxnIGlkPSJncm91cDgyNzItNiIgdHJhbnNmb3JtPSJ0cmFuc2xhdGUoMS41LC0wLjc1KSI+JiN4YTsJCQkJCTx0aXRsZSBpZD0idGl0bGUxMzM0MTUiPmcxNjQwMDwvdGl0bGU+JiN4YTsJCQkJCTxnIGlkPSJzaGFwZTgyNzMtNyIgdHJhbnNmb3JtPSJ0cmFuc2xhdGUoMTgpIj4mI3hhOwkJCQkJCTx0aXRsZSBpZD0idGl0bGUxMzM0MTciPnJlY3QxNjM4MjwvdGl0bGU+JiN4YTsJCQkJCQk8cmVjdCBpZD0icmVjdDEzMzQxOSIgeD0iMCIgeT0iMTAuODUiIHN0eWxlPSJmaWxsOiNFNUU1RTU7IiB3aWR0aD0iMTkuNSIgaGVpZ2h0PSI2Ni43NSIvPiYjeGE7CQkJCQk8L2c+JiN4YTsJCQkJCTxnIGlkPSJzaGFwZTgyNzQtOSIgdHJhbnNmb3JtPSJ0cmFuc2xhdGUoMCwtNDgpIj4mI3hhOwkJCQkJCTx0aXRsZSBpZD0idGl0bGUxMzM0MjIiPnJlY3QxNjM4NDwvdGl0bGU+JiN4YTsJCQkJCQk8cmVjdCBpZD0icmVjdDEzMzQyNCIgeD0iMCIgeT0iNzUuMzUiIHN0eWxlPSJmaWxsOiMyQkM3RjQ7IiB3aWR0aD0iMTgiIGhlaWdodD0iMi4yNSIvPiYjeGE7CQkJCQk8L2c+JiN4YTsJCQkJCTxnIGlkPSJzaGFwZTgyNzUtMTEiIHRyYW5zZm9ybT0idHJhbnNsYXRlKDAsLTU4LjUpIj4mI3hhOwkJCQkJCTx0aXRsZSBpZD0idGl0bGUxMzM0MjciPnBvbHlnb24xNjM4NjwvdGl0bGU+JiN4YTsJCQkJCQk8cmVjdCBpZD0icmVjdDEzMzQyOSIgeD0iMCIgeT0iNzUuMzUiIHN0eWxlPSJmaWxsOm5vbmU7IiB3aWR0aD0iMjciIGhlaWdodD0iMi4yNSIvPiYjeGE7CQkJCQk8L2c+JiN4YTsJCQkJCTxnIGlkPSJzaGFwZTgyNzYtMTMiIHRyYW5zZm9ybT0idHJhbnNsYXRlKDAsLTU4LjUpIj4mI3hhOwkJCQkJCTx0aXRsZSBpZD0idGl0bGUxMzM0MzIiPnBvbHlsaW5lMTYzODg8L3RpdGxlPiYjeGE7CQkJCQkJPHJlY3QgaWQ9InJlY3QxMzM0MzQiIHg9IjAiIHk9Ijc1LjM1IiBzdHlsZT0iZmlsbDpub25lOyIgd2lkdGg9IjI3IiBoZWlnaHQ9IjIuMjUiLz4mI3hhOwkJCQkJPC9nPiYjeGE7CQkJCQk8ZyBpZD0ic2hhcGU4Mjc3LTE1IiB0cmFuc2Zvcm09InRyYW5zbGF0ZSgwLC01My4yNSkiPiYjeGE7CQkJCQkJPHRpdGxlIGlkPSJ0aXRsZTEzMzQzNyI+cmVjdDE2MzkwPC90aXRsZT4mI3hhOwkJCQkJCTxyZWN0IGlkPSJyZWN0MTMzNDM5IiB4PSIwIiB5PSI3NS4zNSIgc3R5bGU9ImZpbGw6IzJCQzdGNDsiIHdpZHRoPSIxOCIgaGVpZ2h0PSIyLjI1Ii8+JiN4YTsJCQkJCTwvZz4mI3hhOwkJCQkJPGcgaWQ9InNoYXBlODI3OC0xNyIgdHJhbnNmb3JtPSJ0cmFuc2xhdGUoMCwtNTguNSkiPiYjeGE7CQkJCQkJPHRpdGxlIGlkPSJ0aXRsZTEzMzQ0MiI+cmVjdDE2MzkyPC90aXRsZT4mI3hhOwkJCQkJCTxyZWN0IGlkPSJyZWN0MTMzNDQ0IiB4PSIwIiB5PSI3NS4zNSIgc3R5bGU9ImZpbGw6IzJCQzdGNDsiIHdpZHRoPSIxOCIgaGVpZ2h0PSIyLjI1Ii8+JiN4YTsJCQkJCTwvZz4mI3hhOwkJCQkJPGcgaWQ9InNoYXBlODI3OS0xOSIgdHJhbnNmb3JtPSJ0cmFuc2xhdGUoMTgsLTQ4KSI+JiN4YTsJCQkJCQk8dGl0bGUgaWQ9InRpdGxlMTMzNDQ3Ij5yZWN0MTYzOTQ8L3RpdGxlPiYjeGE7CQkJCQkJPHJlY3QgaWQ9InJlY3QxMzM0NDkiIHg9IjAiIHk9Ijc1LjM1IiBzdHlsZT0iZmlsbDojNTU2QThBOyIgd2lkdGg9IjE5LjUiIGhlaWdodD0iMi4yNSIvPiYjeGE7CQkJCQk8L2c+JiN4YTsJCQkJCTxnIGlkPSJzaGFwZTgyODAtMjEiIHRyYW5zZm9ybT0idHJhbnNsYXRlKDE4LC01My4yNSkiPiYjeGE7CQkJCQkJPHRpdGxlIGlkPSJ0aXRsZTEzMzQ1MiI+cmVjdDE2Mzk2PC90aXRsZT4mI3hhOwkJCQkJCTxyZWN0IGlkPSJyZWN0MTMzNDU0IiB4PSIwIiB5PSI3NS4zNSIgc3R5bGU9ImZpbGw6IzU1NkE4QTsiIHdpZHRoPSIxOS41IiBoZWlnaHQ9IjIuMjUiLz4mI3hhOwkJCQkJPC9nPiYjeGE7CQkJCQk8ZyBpZD0ic2hhcGU4MjgxLTIzIiB0cmFuc2Zvcm09InRyYW5zbGF0ZSgxOCwtNTguNSkiPiYjeGE7CQkJCQkJPHRpdGxlIGlkPSJ0aXRsZTEzMzQ1NyI+cmVjdDE2Mzk4PC90aXRsZT4mI3hhOwkJCQkJCTxyZWN0IGlkPSJyZWN0MTMzNDU5IiB4PSIwIiB5PSI3NS4zNSIgc3R5bGU9ImZpbGw6IzU1NkE4QTsiIHdpZHRoPSIxOS41IiBoZWlnaHQ9IjIuMjUiLz4mI3hhOwkJCQkJPC9nPiYjeGE7CQkJCTwvZz4mI3hhOwkJCQk8ZyBpZD0ic2hhcGU4MjgyLTI1IiB0cmFuc2Zvcm09InRyYW5zbGF0ZSgwLjc1LC01OS4yNSkiPiYjeGE7CQkJCQk8dGl0bGUgaWQ9InRpdGxlMTMzNDYzIj5yZWN0MTY0MDI8L3RpdGxlPiYjeGE7CQkJCQk8cmVjdCBpZD0icmVjdDEzMzQ2NSIgeD0iMCIgeT0iNzUuMzUiIHN0eWxlPSJmaWxsOiM1NTZBOEE7IiB3aWR0aD0iMi4yNSIgaGVpZ2h0PSIyLjI1Ii8+JiN4YTsJCQkJPC9nPiYjeGE7CQkJCTxnIGlkPSJzaGFwZTgyODMtMjciIHRyYW5zZm9ybT0idHJhbnNsYXRlKDAuNzUsLTU0KSI+JiN4YTsJCQkJCTx0aXRsZSBpZD0idGl0bGUxMzM0NjgiPnJlY3QxNjQwNDwvdGl0bGU+JiN4YTsJCQkJCTxyZWN0IGlkPSJyZWN0MTMzNDcwIiB4PSIwIiB5PSI3NS4zNSIgc3R5bGU9ImZpbGw6IzU1NkE4QTsiIHdpZHRoPSIyLjI1IiBoZWlnaHQ9IjIuMjUiLz4mI3hhOwkJCQk8L2c+JiN4YTsJCQkJPGcgaWQ9InNoYXBlODI4NC0yOSIgdHJhbnNmb3JtPSJ0cmFuc2xhdGUoMC43NSwtNDguNzUpIj4mI3hhOwkJCQkJPHRpdGxlIGlkPSJ0aXRsZTEzMzQ3MyI+cmVjdDE2NDA2PC90aXRsZT4mI3hhOwkJCQkJPHJlY3QgaWQ9InJlY3QxMzM0NzUiIHg9IjAiIHk9Ijc1LjM1IiBzdHlsZT0iZmlsbDojNTU2QThBOyIgd2lkdGg9IjIuMjUiIGhlaWdodD0iMi4yNSIvPiYjeGE7CQkJCTwvZz4mI3hhOwkJCTwvZz4mI3hhOwkJPC9nPiYjeGE7CQk8ZyBpZD0iZ3JvdXA4Mjg1LTMxIiB0cmFuc2Zvcm09InRyYW5zbGF0ZSgyNi4wMTI1LC00LjM5NDUzKSI+JiN4YTsJCQk8dGl0bGUgaWQ9InRpdGxlMTMzNDgwIj5BenVyZSBBY3RpdmUgRGlyZWN0b3J5PC90aXRsZT4mI3hhOwkJCTxnIGlkPSJzaGFwZTgyODYtMzIiPiYjeGE7CQkJCTx0aXRsZSBpZD0idGl0bGUxMzM0ODIiPlNoZWV0LjgyODY8L3RpdGxlPiYjeGE7CQkJCTxwYXRoIGlkPSJwYXRoMTMzNDg0IiBpbmtzY2FwZTpjb25uZWN0b3ItY3VydmF0dXJlPSIwIiBzdHlsZT0iZmlsbDojNTlCNEQ5OyIgZD0iTTEzLjgzLDc3LjZjLTAuNjgsMC0xLjMyLTAuMjctMS44MS0wLjc1ICAgICAgTDAuNzUsNjUuNTdDMC4yNyw2NS4xLDAsNjQuNDQsMCw2My43N3MwLjI3LTEuMzMsMC43NS0xLjgxbDExLjI3LTExLjI3YzAuNDktMC40OSwxLjEzLTAuNzUsMS44MS0wLjc1ICAgICAgYzAuNjgsMCwxLjMyLDAuMjYsMS44LDAuNzVsMTEuMjgsMTEuMjdjMC40OCwwLjQ4LDAuNzUsMS4xMywwLjc1LDEuODFjMCwwLjY4LTAuMjcsMS4zMi0wLjc1LDEuOEwxNS42Myw3Ni44NSAgICAgIEMxNS4xNSw3Ny4zMywxNC41MSw3Ny42LDEzLjgzLDc3LjZ6Ii8+JiN4YTsJCQk8L2c+JiN4YTsJCQk8ZyBpZD0ic2hhcGU4Mjg3LTM0IiB0cmFuc2Zvcm09InRyYW5zbGF0ZSg0LjEzNTYxLC0zLjc4MTA2KSI+JiN4YTsJCQkJPHRpdGxlIGlkPSJ0aXRsZTEzMzQ4NyI+U2hlZXQuODI4NzwvdGl0bGU+JiN4YTsJCQkJPHBhdGggaWQ9InBhdGgxMzM0ODkiIGlua3NjYXBlOmNvbm5lY3Rvci1jdXJ2YXR1cmU9IjAiIHN0eWxlPSJmaWxsOiNGRkZGRkY7IiBkPSJNMTcuMjIsNjUuMzljLTEuMTksMC0yLjE2LDAuOTctMi4xNiwyLjE2ICAgICAgYzAsMC40NCwwLjEzLDAuODQsMC4zNiwxLjE4bC00LjI5LDQuMjljLTAuMTEtMC4wOC0wLjIzLTAuMTUtMC4zNi0wLjIxVjYxLjg4YzAuNjUtMC4zNywxLjA4LTEuMDYsMS4wOC0xLjg2ICAgICAgYzAtMS4xOS0wLjk2LTIuMTYtMi4xNi0yLjE2Yy0xLjE5LDAtMi4xNiwwLjk3LTIuMTYsMi4xNmMwLDAuOCwwLjQ0LDEuNDksMS4wOCwxLjg2djEwLjkzYy0wLjEyLDAuMDYtMC4yNCwwLjEyLTAuMzQsMC4yICAgICAgbC00LjI5LTQuMjljMC4yMS0wLjM0LDAuMzQtMC43NCwwLjM0LTEuMTdjMC0xLjE5LTAuOTYtMi4xNi0yLjE2LTIuMTZDMC45Nyw2NS4zOSwwLDY2LjM2LDAsNjcuNTVzMC45NywyLjE2LDIuMTYsMi4xNiAgICAgIGMwLjI1LDAsMC40OC0wLjA1LDAuNzEtMC4xM2w0LjUxLDQuNTFjLTAuMTMsMC4zMS0wLjIxLDAuNjQtMC4yMSwwLjk5YzAsMS4zOSwxLjEzLDIuNTIsMi41MiwyLjUyczIuNTItMS4xMywyLjUyLTIuNTIgICAgICBjMC0wLjM1LTAuMDctMC42Ny0wLjItMC45N2w0LjUyLTQuNTJjMC4yMiwwLjA3LDAuNDUsMC4xMiwwLjY5LDAuMTJjMS4xOSwwLDIuMTYtMC45NywyLjE2LTIuMTZTMTguNDIsNjUuMzksMTcuMjIsNjUuMzl6Ii8+JiN4YTsJCQk8L2c+JiN4YTsJCQk8ZyBpZD0ic2hhcGU4Mjg4LTM2IiB0cmFuc2Zvcm09InJvdGF0ZSgxMzQuOTkyLDExLjY5MDA5Niw2OS41OTU2MykiPiYjeGE7CQkJCTx0aXRsZSBpZD0idGl0bGUxMzM0OTIiPlNoZWV0LjgyODg8L3RpdGxlPiYjeGE7CQkJCTxyZWN0IGlkPSJyZWN0MTMzNDk0IiB4PSIwIiB5PSI2Ni4xNiIgc3R5bGU9ImZpbGw6I0ZGRkZGRjtmaWxsLW9wYWNpdHk6MC41OyIgd2lkdGg9IjEuNCIgaGVpZ2h0PSIxMS40NCIvPiYjeGE7CQkJPC9nPiYjeGE7CQkJPGcgaWQ9InNoYXBlODI4OS0zOCIgdHJhbnNmb3JtPSJyb3RhdGUoNDUsMTkuMzMzMzk4LDc3LjA1MzM5NikiPiYjeGE7CQkJCTx0aXRsZSBpZD0idGl0bGUxMzM0OTciPlNoZWV0LjgyODk8L3RpdGxlPiYjeGE7CQkJCSYjeGE7CQkJCQk8cmVjdCBpZD0icmVjdDEzMzQ5OSIgeD0iLTUuMDIiIHk9IjcxLjE4IiB0cmFuc2Zvcm09Im1hdHJpeCgyLjUzNTE4MWUtMDYgMSAtMSAyLjUzNTE4MWUtMDYgNzIuNTc1MiA3MS4xNzg4KSIgc3R5bGU9ImZpbGw6I0ZGRkZGRjtmaWxsLW9wYWNpdHk6MC41OyIgd2lkdGg9IjExLjQ0IiBoZWlnaHQ9IjEuNCIvPiYjeGE7CQkJPC9nPiYjeGE7CQkJPGcgaWQ9InNoYXBlODI5MC00MCIgdHJhbnNmb3JtPSJ0cmFuc2xhdGUoMTIuMzA0NSwtNC43OTk4OSkiPiYjeGE7CQkJCTx0aXRsZSBpZD0idGl0bGUxMzM1MDIiPlNoZWV0LjgyOTA8L3RpdGxlPiYjeGE7CQkJCTxwYXRoIGlkPSJwYXRoMTMzNTA0IiBpbmtzY2FwZTpjb25uZWN0b3ItY3VydmF0dXJlPSIwIiBzdHlsZT0iZmlsbDojQjhENDMyOyIgZD0iTTMsNzYuMWMwLDAuODItMC42NywxLjUtMS41LDEuNSAgICAgIFMwLDc2LjkyLDAsNzYuMWMwLTAuODMsMC42Ny0xLjUsMS41LTEuNVMzLDc1LjI3LDMsNzYuMXoiLz4mI3hhOwkJCTwvZz4mI3hhOwkJCTxnIGlkPSJzaGFwZTgyOTEtNDIiIHRyYW5zZm9ybT0idHJhbnNsYXRlKDEyLjYyNTMsLTIwLjE1NDIpIj4mI3hhOwkJCQk8dGl0bGUgaWQ9InRpdGxlMTMzNTA3Ij5TaGVldC44MjkxPC90aXRsZT4mI3hhOwkJCQk8cGF0aCBpZD0icGF0aDEzMzUwOSIgaW5rc2NhcGU6Y29ubmVjdG9yLWN1cnZhdHVyZT0iMCIgc3R5bGU9ImZpbGw6I0I4RDQzMjsiIGQ9Ik0yLjQsNzYuMzljMCwwLjY3LTAuNTMsMS4yMS0xLjIsMS4yMSAgICAgIGMtMC42NiwwLTEuMi0wLjU0LTEuMi0xLjIxYzAtMC42NiwwLjU0LTEuMiwxLjItMS4yQzEuODcsNzUuMTksMi40LDc1LjczLDIuNCw3Ni4zOXoiLz4mI3hhOwkJCTwvZz4mI3hhOwkJCTxnIGlkPSJzaGFwZTgyOTItNDQiIHRyYW5zZm9ybT0idHJhbnNsYXRlKDUuMDk2OTEsLTEyLjYyNTMpIj4mI3hhOwkJCQk8dGl0bGUgaWQ9InRpdGxlMTMzNTEyIj5TaGVldC44MjkyPC90aXRsZT4mI3hhOwkJCQk8cGF0aCBpZD0icGF0aDEzMzUxNCIgaW5rc2NhcGU6Y29ubmVjdG9yLWN1cnZhdHVyZT0iMCIgc3R5bGU9ImZpbGw6I0I4RDQzMjsiIGQ9Ik0yLjQsNzYuMzljMCwwLjY3LTAuNTMsMS4yMS0xLjIsMS4yMSAgICAgIGMtMC42NiwwLTEuMi0wLjU0LTEuMi0xLjIxYzAtMC42NiwwLjU0LTEuMiwxLjItMS4yQzEuODcsNzUuMTksMi40LDc1LjczLDIuNCw3Ni4zOXoiLz4mI3hhOwkJCTwvZz4mI3hhOwkJCTxnIGlkPSJzaGFwZTgyOTMtNDYiIHRyYW5zZm9ybT0idHJhbnNsYXRlKDIwLjE1NDgsLTEyLjYyNTMpIj4mI3hhOwkJCQk8dGl0bGUgaWQ9InRpdGxlMTMzNTE3Ij5TaGVldC44MjkzPC90aXRsZT4mI3hhOwkJCQk8cGF0aCBpZD0icGF0aDEzMzUxOSIgaW5rc2NhcGU6Y29ubmVjdG9yLWN1cnZhdHVyZT0iMCIgc3R5bGU9ImZpbGw6I0I4RDQzMjsiIGQ9Ik0yLjQxLDc2LjM5YzAsMC42Ny0wLjU0LDEuMjEtMS4yMSwxLjIxICAgICAgYy0wLjY2LDAtMS4yLTAuNTQtMS4yLTEuMjFjMC0wLjY2LDAuNTQtMS4yLDEuMi0xLjJDMS44Nyw3NS4xOSwyLjQxLDc1LjczLDIuNDEsNzYuMzl6Ii8+JiN4YTsJCQk8L2c+JiN4YTsJCQk8ZyBpZD0ic2hhcGU4Mjk0LTQ4IiB0cmFuc2Zvcm09InRyYW5zbGF0ZSgwLC01LjYzOTUxKSI+JiN4YTsJCQkJPHRpdGxlIGlkPSJ0aXRsZTEzMzUyMiI+U2hlZXQuODI5NDwvdGl0bGU+JiN4YTsJCQkJPHBhdGggaWQ9InBhdGgxMzM1MjQiIGlua3NjYXBlOmNvbm5lY3Rvci1jdXJ2YXR1cmU9IjAiIHN0eWxlPSJmaWxsOiNGRkZGRkY7ZmlsbC1vcGFjaXR5OjAuMDk4OyIgZD0iTTE1LjYzLDU2LjMzICAgICAgYy0wLjQ4LTAuNDktMS4xMi0wLjc1LTEuOC0wLjc1cy0xLjMyLDAuMjYtMS44LDAuNzVMMC43NSw2Ny42QzAuMjcsNjguMDgsMCw2OC43NCwwLDY5LjQxYzAsMC42NywwLjI3LDEuMzMsMC43NSwxLjhsNi4zOCw2LjM5ICAgICAgbDEyLjAxLTE3Ljc2TDE1LjYzLDU2LjMzeiIvPiYjeGE7CQkJPC9nPiYjeGE7CQk8L2c+JiN4YTsJPC9nPiYjeGE7PC9nPiYjeGE7PC9zdmc+;" vertex="1" parent="QX-P79LdTZ4ubuz_DQ_H-30">
          <mxGeometry x="120.00000000000017" y="248.99999999999955" width="54" height="70" as="geometry" />
        </mxCell>
        <mxCell id="QX-P79LdTZ4ubuz_DQ_H-5" value="Firewall" style="shape=image;verticalLabelPosition=bottom;labelBackgroundColor=#ffffff;verticalAlign=top;aspect=fixed;imageAspect=0;image=data:image/svg+xml,PHN2ZyB4bWxuczpjYz0iaHR0cDovL2NyZWF0aXZlY29tbW9ucy5vcmcvbnMjIiB4bWxuczpkYz0iaHR0cDovL3B1cmwub3JnL2RjL2VsZW1lbnRzLzEuMS8iIHhtbG5zOmlua3NjYXBlPSJodHRwOi8vd3d3Lmlua3NjYXBlLm9yZy9uYW1lc3BhY2VzL2lua3NjYXBlIiB4bWxuczpyZGY9Imh0dHA6Ly93d3cudzMub3JnLzE5OTkvMDIvMjItcmRmLXN5bnRheC1ucyMiIHhtbG5zOnNvZGlwb2RpPSJodHRwOi8vc29kaXBvZGkuc291cmNlZm9yZ2UubmV0L0RURC9zb2RpcG9kaS0wLmR0ZCIgeG1sbnM6c3ZnPSJodHRwOi8vd3d3LnczLm9yZy8yMDAwL3N2ZyIgeG1sbnM9Imh0dHA6Ly93d3cudzMub3JnLzIwMDAvc3ZnIiB4bWxuczp4bGluaz0iaHR0cDovL3d3dy53My5vcmcvMTk5OS94bGluayIgdmVyc2lvbj0iMS4xIiBpZD0ic3ZnMTU3MTE1IiBpbmtzY2FwZTp2ZXJzaW9uPSIwLjkyLjMgKDI0MDU1NDYsIDIwMTgtMDMtMTEpIiBzb2RpcG9kaTpkb2NuYW1lPSJmaXJld2FsbF8xLnN2ZyIgeD0iMHB4IiB5PSIwcHgiIHZpZXdCb3g9IjAgMCA3MS44OCA1Ni40NiIgc3R5bGU9ImVuYWJsZS1iYWNrZ3JvdW5kOm5ldyAwIDAgNzEuODggNTYuNDY7IiB4bWw6c3BhY2U9InByZXNlcnZlIj4mI3hhOzxzb2RpcG9kaTpuYW1lZHZpZXcgYm9yZGVyY29sb3I9IiM2NjY2NjYiIGJvcmRlcm9wYWNpdHk9IjEiIGZpdC1tYXJnaW4tYm90dG9tPSIwIiBmaXQtbWFyZ2luLWxlZnQ9IjAiIGZpdC1tYXJnaW4tcmlnaHQ9IjAiIGZpdC1tYXJnaW4tdG9wPSIwIiBncmlkdG9sZXJhbmNlPSIxMCIgZ3VpZGV0b2xlcmFuY2U9IjEwIiBpZD0ibmFtZWR2aWV3MTU3MTE3IiBpbmtzY2FwZTpjdXJyZW50LWxheWVyPSJzdmcxNTcxMTUiIGlua3NjYXBlOmN4PSI0Ny45MTgyNCIgaW5rc2NhcGU6Y3k9IjM3LjYzNzY0NyIgaW5rc2NhcGU6cGFnZW9wYWNpdHk9IjAiIGlua3NjYXBlOnBhZ2VzaGFkb3c9IjIiIGlua3NjYXBlOndpbmRvdy1oZWlnaHQ9IjEwMTciIGlua3NjYXBlOndpbmRvdy1tYXhpbWl6ZWQ9IjEiIGlua3NjYXBlOndpbmRvdy13aWR0aD0iMTkyMCIgaW5rc2NhcGU6d2luZG93LXg9Ii04IiBpbmtzY2FwZTp3aW5kb3cteT0iLTgiIGlua3NjYXBlOnpvb209IjExLjIxODI2MSIgb2JqZWN0dG9sZXJhbmNlPSIxMCIgcGFnZWNvbG9yPSIjZmZmZmZmIiBzaG93Z3JpZD0iZmFsc2UiPiYjeGE7CTwvc29kaXBvZGk6bmFtZWR2aWV3PiYjeGE7PGcgaWQ9ImcxNTcxMTMiIHRyYW5zZm9ybT0idHJhbnNsYXRlKC0wLjc1LC0wLjc0OTI4MjEyKSI+JiN4YTsJPHRpdGxlIGlkPSJ0aXRsZTE1NzA5OCI+UGFnZS0xPC90aXRsZT4mI3hhOwk8ZyBpZD0iZ3JvdXA5NTM4LTEiIHRyYW5zZm9ybT0idHJhbnNsYXRlKDAuNzUsLTAuNzUpIj4mI3hhOwkJPHRpdGxlIGlkPSJ0aXRsZTE1NzEwMCI+RmlyZXdhbGwgIzE8L3RpdGxlPiYjeGE7CQk8ZyBpZD0ic2hhcGU5NTM5LTIiIHRyYW5zZm9ybT0idHJhbnNsYXRlKDAsLTcuNDg3MDllLTQpIj4mI3hhOwkJCTx0aXRsZSBpZD0idGl0bGUxNTcxMDIiPnBhdGgxNTI5MS4zMjI1MjwvdGl0bGU+JiN4YTsJCQk8cGF0aCBpZD0icGF0aDE1NzEwNCIgaW5rc2NhcGU6Y29ubmVjdG9yLWN1cnZhdHVyZT0iMCIgc3R5bGU9ImZpbGw6IzQzNTY3MDsiIGQ9Ik0yMS45MSwxNy42MmMtMC41MSwwLjUxLTAuNzYsMS4xMS0wLjc2LDEuODEgICAgIHY1LjEzYzAsMC43LDAuMjUsMS4zLDAuNzYsMS44MWMwLjUxLDAuNSwxLjExLDAuNzYsMS44LDAuNzZoMTEuMzRjMC4yNy0yLjY0LDIuNjMtNC41Nyw1LjI4LTQuM2MwLjk1LDAuMSwxLjg0LDAuNDcsMi41NywxLjA4ICAgICBjMC44Ni0yLjIyLDEuNDQtNC41NywxLjc0LTcuMDVIMjMuNzFDMjMuMDIsMTYuODYsMjIuNDIsMTcuMTEsMjEuOTEsMTcuNjJ6IE0xMy40NSw0Ny43SDIuNTdjLTAuNywwLTEuMywwLjI1LTEuODEsMC43NiAgICAgQzAuMjUsNDguOTcsMCw0OS41NywwLDUwLjI2djUuMTRjMCwwLjY5LDAuMjUsMS4yOSwwLjc2LDEuOHMxLjExLDAuNzYsMS44MSwwLjc2aDEwLjg4YzAuNjksMCwxLjI5LTAuMjUsMS44LTAuNzYgICAgIHMwLjc2LTEuMTEsMC43Ni0xLjh2LTUuMTRjMC0wLjY5LTAuMjUtMS4yOS0wLjc2LTEuOEMxNC43NSw0Ny45NSwxNC4xNCw0Ny43LDEzLjQ1LDQ3Ljd6IE0yLjU3LDQyLjU2aDE4LjU4ICAgICBjMC42OSwwLDEuMjktMC4yNSwxLjgtMC43NmMwLjUxLTAuNSwwLjc2LTEuMTEsMC43Ni0xLjh2LTUuMTNjMC0wLjctMC4yNS0xLjMtMC43Ni0xLjgxYy0wLjUxLTAuNTEtMS4xMS0wLjc2LTEuOC0wLjc2SDIuNTcgICAgIGMtMC43LDAtMS4zLDAuMjUtMS44MSwwLjc2UzAsMzQuMTcsMCwzNC44N1Y0MGMwLDAuNjksMC4yNSwxLjMsMC43NiwxLjhDMS4yNyw0Mi4zMSwxLjg3LDQyLjU2LDIuNTcsNDIuNTZ6IE0zMi4yNiw1Mi43NyAgICAgTDMyLjI2LDUyLjc3Yy0wLjkyLTEuNTctMS41Ny0zLjI4LTEuOTEtNS4wN2gtNi42NGMtMC42OSwwLTEuMjksMC4yNS0xLjgsMC43NnMtMC43NiwxLjExLTAuNzYsMS44djUuMTQgICAgIGMwLDAuNjksMC4yNSwxLjI5LDAuNzYsMS44czEuMTEsMC43NiwxLjgsMC43NmgxMy4xQzM0LjgzLDU2LjMsMzMuMzIsNTQuNTcsMzIuMjYsNTIuNzd6IE00Ny4yMiw5LjQ1ICAgICBjMS41MS0wLjgzLDMuMzUtMC44LDQuODMsMC4wOWMwLjQsMC4yNCwwLjg4LDAuNTUsMS41MSwwLjk4YzAsMC4wMSwwLjAxLDAuMDEsMC4wMSwwLjAxYzAuMjksMC4yLDAuNzYsMC41NCwxLjcxLDEuMzFoMTQuMDEgICAgIGMwLjcsMCwxLjMxLTAuMjYsMS44Mi0wLjc3czAuNzctMS4xMiwwLjc3LTEuODJWNC4wOGMwLTAuNy0wLjI2LTEuMy0wLjc3LTEuODFDNzAuNiwxLjc2LDY5Ljk5LDEuNSw2OS4yOSwxLjVINDguNDQgICAgIGMtMC43LDAtMS4zMSwwLjI2LTEuODIsMC43N3MtMC43NywxLjExLTAuNzcsMS44MXY1LjE3YzAsMC4zOSwwLjA4LDAuNzQsMC4yMywxLjA3QzQ2LjQyLDkuOTgsNDYuOCw5LjY4LDQ3LjIyLDkuNDV6ICAgICAgTTIuNTcsMjcuMTNoMTAuODhjMC42OSwwLDEuMjktMC4yNiwxLjgtMC43N2MwLjUxLTAuNSwwLjc2LTEuMSwwLjc2LTEuOHYtNS4xM2MwLTAuNy0wLjI1LTEuMy0wLjc2LTEuODFzLTEuMTEtMC43Ni0xLjgtMC43NiAgICAgSDIuNTdjLTAuNywwLTEuMywwLjI1LTEuODEsMC43NkMwLjI1LDE4LjEzLDAsMTguNzMsMCwxOS40M3Y1LjEzYzAsMC43LDAuMjUsMS4zLDAuNzYsMS44QzEuMjcsMjYuODcsMS44NywyNy4xMywyLjU3LDI3LjEzeiAgICAgIE0zMS40MSwxMS43N2g2LjljMC43LDAsMS4zLTAuMjYsMS44LTAuNzdjMC41MS0wLjUsMC43Ny0xLjEsMC43Ny0xLjhWNC4wN2MwLTAuNy0wLjI2LTEuMy0wLjc3LTEuODEgICAgIGMtMC41LTAuNTEtMS4xLTAuNzYtMS44LTAuNzZoLTYuOWMtMC42OSwwLTEuMjksMC4yNS0xLjgsMC43NnMtMC43NiwxLjExLTAuNzYsMS44MVY5LjJjMCwwLjcsMC4yNSwxLjMsMC43NiwxLjgxICAgICBDMzAuMTIsMTEuNTEsMzAuNzIsMTEuNzcsMzEuNDEsMTEuNzd6IE0yLjU3LDExLjc3aDE4LjU4YzAuNjksMCwxLjI5LTAuMjYsMS44LTAuNzdjMC41MS0wLjUsMC43Ni0xLjEsMC43Ni0xLjhWNC4wNyAgICAgYzAtMC43LTAuMjUtMS4zLTAuNzYtMS44MWMtMC41MS0wLjUxLTEuMTEtMC43Ni0xLjgtMC43NkgyLjU3Yy0wLjcsMC0xLjMsMC4yNS0xLjgxLDAuNzZTMCwzLjM3LDAsNC4wN1Y5LjIgICAgIGMwLDAuNywwLjI1LDEuMywwLjc2LDEuODFDMS4yNywxMS41MSwxLjg3LDExLjc3LDIuNTcsMTEuNzd6Ii8+JiN4YTsJCTwvZz4mI3hhOwkJPGcgaWQ9InNoYXBlOTU0MC00IiB0cmFuc2Zvcm09InRyYW5zbGF0ZSgzNC40OTE1KSI+JiN4YTsJCQk8dGl0bGUgaWQ9InRpdGxlMTU3MTA3Ij5wYXRoMTUyOTMuMzIyNTM8L3RpdGxlPiYjeGE7CQkJPHBhdGggaWQ9InBhdGgxNTcxMDkiIGlua3NjYXBlOmNvbm5lY3Rvci1jdXJ2YXR1cmU9IjAiIHN0eWxlPSJmaWxsOiNGRjAwMDA7IiBkPSJNMTAuODYsNTcuOTZjLTQuNDUtMi41MS03LjQzLTUuMDUtOC45NC03LjYzICAgICBDMC40LDQ3Ljc1LDAsNDQuNzYsMC43MSw0MS4zNGMwLjMyLTEuMzUsMS4xNC0zLjUyLDIuNDYtNi41MmMxLjMyLTIuOTksMi4wNS01LjM5LDIuMTgtNy4yYzEuMjksMi4zOSwyLjAzLDQuNzcsMi4yMiw3LjE1ICAgICBjNC45LTYuMDUsNy40NC0xMy4xLDcuNjQtMjEuMTZjMC4zMiwwLjIsMC43NCwwLjQ3LDEuMjUsMC44MmMwLjUyLDAuMzYsMS40NywxLjExLDIuODUsMi4yN2MxLjM5LDEuMTYsMi42MSwyLjM3LDMuNjcsMy42MyAgICAgYzEuMDcsMS4yNSwyLjA2LDIuODUsMyw0Ljc4YzAuOTMsMS45MywxLjUsMy44NywxLjY5LDUuOGMwLjUxLTEuMTYsMC44NC0yLjQ1LDAuOTctMy44N2MwLjEzLTEuNDEtMC4wNC0yLjc0LTAuNDktMy45NiAgICAgYzAuNTIsMC4zOSwxLjE5LDEuMDMsMi4wMywxLjkzYzAuODQsMC45MSwxLjc3LDIuMTMsMi44LDMuNjdjMS4wNSwxLjU3LDEuOTcsMy4yMiwyLjc2LDQuOTNjMC44LDEuNzQsMS4zMiwzLjY5LDEuNTQsNS44NSAgICAgYzAuMjMsMi4xNiwwLjA4LDQuMjUtMC40Myw2LjI4Yy0wLjUyLDIuMDMtMS43MSw0LjEyLTMuNTgsNi4yOGMtMS44NywyLjE2LTQuMzgsNC4xNC03LjUzLDUuOTRjMi4xMi00LjI1LDIuNTQtOC44NCwxLjI1LTEzLjc3ICAgICBzLTMuODMtOC43MS03LjYzLTExLjM1YzAuMzIsMS40MiwwLjE0LDMuNzUtMC41Myw3Yy0wLjY4LDMuMjYtMS43Niw1LjcyLTMuMjQsNy40YzAuMjYtMi4wNywwLjMyLTMuNzQsMC4xOS01LjAzICAgICBjLTAuMTMtMS4yOS0wLjMyLTIuMjUtMC41OC0yLjlsLTAuNDgtMC44N2MtMC4zOSwyLjMyLTEuMzksNC42NC0yLjk5LDYuOTZjLTAuODQsMS4yMy0xLjQ3LDIuMzUtMS44OSwzLjM4ICAgICBjLTAuNDIsMS4wMy0wLjU4LDIuMzUtMC40OCwzLjk2QzkuNDYsNTQuMzYsOS45NSw1Ni4xLDEwLjg2LDU3Ljk2eiIvPiYjeGE7CQk8L2c+JiN4YTsJPC9nPiYjeGE7PC9nPiYjeGE7PC9zdmc+;" vertex="1" parent="QX-P79LdTZ4ubuz_DQ_H-30">
          <mxGeometry x="240" y="192.99999999999955" width="72" height="56" as="geometry" />
        </mxCell>
        <mxCell id="QX-P79LdTZ4ubuz_DQ_H-7" value="AWS S3, Artifact Store" style="sketch=0;points=[[0,0,0],[0.25,0,0],[0.5,0,0],[0.75,0,0],[1,0,0],[0,1,0],[0.25,1,0],[0.5,1,0],[0.75,1,0],[1,1,0],[0,0.25,0],[0,0.5,0],[0,0.75,0],[1,0.25,0],[1,0.5,0],[1,0.75,0]];outlineConnect=0;fontColor=#232F3E;fillColor=#7AA116;strokeColor=#ffffff;dashed=0;verticalLabelPosition=bottom;verticalAlign=top;align=center;html=1;fontSize=12;fontStyle=0;aspect=fixed;shape=mxgraph.aws4.resourceIcon;resIcon=mxgraph.aws4.s3;" vertex="1" parent="QX-P79LdTZ4ubuz_DQ_H-30">
          <mxGeometry x="680" y="384.99999999999955" width="78" height="78" as="geometry" />
        </mxCell>
        <mxCell id="QX-P79LdTZ4ubuz_DQ_H-8" value="AWS Direct Connect" style="sketch=0;points=[[0,0,0],[0.25,0,0],[0.5,0,0],[0.75,0,0],[1,0,0],[0,1,0],[0.25,1,0],[0.5,1,0],[0.75,1,0],[1,1,0],[0,0.25,0],[0,0.5,0],[0,0.75,0],[1,0.25,0],[1,0.5,0],[1,0.75,0]];outlineConnect=0;fontColor=#232F3E;fillColor=#8C4FFF;strokeColor=#ffffff;dashed=0;verticalLabelPosition=bottom;verticalAlign=top;align=center;html=1;fontSize=12;fontStyle=0;aspect=fixed;shape=mxgraph.aws4.resourceIcon;resIcon=mxgraph.aws4.direct_connect;" vertex="1" parent="QX-P79LdTZ4ubuz_DQ_H-30">
          <mxGeometry x="400" y="384.99999999999955" width="78" height="78" as="geometry" />
        </mxCell>
        <mxCell id="QX-P79LdTZ4ubuz_DQ_H-9" value="AWS Sagemaker, Orchestrator" style="sketch=0;points=[[0,0,0],[0.25,0,0],[0.5,0,0],[0.75,0,0],[1,0,0],[0,1,0],[0.25,1,0],[0.5,1,0],[0.75,1,0],[1,1,0],[0,0.25,0],[0,0.5,0],[0,0.75,0],[1,0.25,0],[1,0.5,0],[1,0.75,0]];outlineConnect=0;fontColor=#232F3E;fillColor=#01A88D;strokeColor=#ffffff;dashed=0;verticalLabelPosition=bottom;verticalAlign=top;align=center;html=1;fontSize=12;fontStyle=0;aspect=fixed;shape=mxgraph.aws4.resourceIcon;resIcon=mxgraph.aws4.sagemaker;" vertex="1" parent="QX-P79LdTZ4ubuz_DQ_H-30">
          <mxGeometry x="520" y="214.99999999999955" width="78" height="78" as="geometry" />
        </mxCell>
        <mxCell id="QX-P79LdTZ4ubuz_DQ_H-10" value="MLFlow Server, &#xa;Model Tracking&#xa;Model Registries" style="shape=image;verticalLabelPosition=bottom;labelBackgroundColor=#ffffff;verticalAlign=top;aspect=fixed;imageAspect=0;image=data:image/svg+xml,PHN2ZyB4bWxuczpjYz0iaHR0cDovL2NyZWF0aXZlY29tbW9ucy5vcmcvbnMjIiB4bWxuczpkYz0iaHR0cDovL3B1cmwub3JnL2RjL2VsZW1lbnRzLzEuMS8iIHhtbG5zOmlua3NjYXBlPSJodHRwOi8vd3d3Lmlua3NjYXBlLm9yZy9uYW1lc3BhY2VzL2lua3NjYXBlIiB4bWxuczpyZGY9Imh0dHA6Ly93d3cudzMub3JnLzE5OTkvMDIvMjItcmRmLXN5bnRheC1ucyMiIHhtbG5zOnNvZGlwb2RpPSJodHRwOi8vc29kaXBvZGkuc291cmNlZm9yZ2UubmV0L0RURC9zb2RpcG9kaS0wLmR0ZCIgeG1sbnM6c3ZnPSJodHRwOi8vd3d3LnczLm9yZy8yMDAwL3N2ZyIgeG1sbnM9Imh0dHA6Ly93d3cudzMub3JnLzIwMDAvc3ZnIiB4bWxuczp4bGluaz0iaHR0cDovL3d3dy53My5vcmcvMTk5OS94bGluayIgdmVyc2lvbj0iMS4xIiBpZD0ic3ZnMjU4NTk0IiBpbmtzY2FwZTp2ZXJzaW9uPSIwLjkyLjMgKDI0MDU1NDYsIDIwMTgtMDMtMTEpIiBzb2RpcG9kaTpkb2NuYW1lPSJnZW5lcmljX3NlcnZlci5zdmciIHg9IjBweCIgeT0iMHB4IiB2aWV3Qm94PSIwIDAgNDguNDEgNjkuNzYiIHN0eWxlPSJlbmFibGUtYmFja2dyb3VuZDpuZXcgMCAwIDQ4LjQxIDY5Ljc2OyIgeG1sOnNwYWNlPSJwcmVzZXJ2ZSI+JiN4YTs8c29kaXBvZGk6bmFtZWR2aWV3IGJvcmRlcmNvbG9yPSIjNjY2NjY2IiBib3JkZXJvcGFjaXR5PSIxIiBmaXQtbWFyZ2luLWJvdHRvbT0iMCIgZml0LW1hcmdpbi1sZWZ0PSIwIiBmaXQtbWFyZ2luLXJpZ2h0PSIwIiBmaXQtbWFyZ2luLXRvcD0iMCIgZ3JpZHRvbGVyYW5jZT0iMTAiIGd1aWRldG9sZXJhbmNlPSIxMCIgaWQ9Im5hbWVkdmlldzI1ODU5NiIgaW5rc2NhcGU6Y3VycmVudC1sYXllcj0ic3ZnMjU4NTk0IiBpbmtzY2FwZTpjeD0iMzIuMTkwODk3IiBpbmtzY2FwZTpjeT0iNDYuNTA4MzQ2IiBpbmtzY2FwZTpwYWdlb3BhY2l0eT0iMCIgaW5rc2NhcGU6cGFnZXNoYWRvdz0iMiIgaW5rc2NhcGU6d2luZG93LWhlaWdodD0iMTAxNyIgaW5rc2NhcGU6d2luZG93LW1heGltaXplZD0iMSIgaW5rc2NhcGU6d2luZG93LXdpZHRoPSIxOTIwIiBpbmtzY2FwZTp3aW5kb3cteD0iLTgiIGlua3NjYXBlOndpbmRvdy15PSItOCIgaW5rc2NhcGU6em9vbT0iOS4xMjUzNjg5IiBvYmplY3R0b2xlcmFuY2U9IjEwIiBwYWdlY29sb3I9IiNmZmZmZmYiIHNob3dncmlkPSJmYWxzZSI+JiN4YTsJPC9zb2RpcG9kaTpuYW1lZHZpZXc+JiN4YTs8ZyBpZD0iZzI1ODU5MiIgdHJhbnNmb3JtPSJ0cmFuc2xhdGUoLTAuNzUsLTAuNzUwMDM4NzgpIj4mI3hhOwk8dGl0bGUgaWQ9InRpdGxlMjU4NTExIj5QYWdlLTE8L3RpdGxlPiYjeGE7CTxnIGlkPSJncm91cDEwODY2LTEiIHRyYW5zZm9ybT0idHJhbnNsYXRlKDEuNSwtMS41KSI+JiN4YTsJCTx0aXRsZSBpZD0idGl0bGUyNTg1MTMiPkdlbmVyaWMgU2VydmVyPC90aXRsZT4mI3hhOwkJPGcgaWQ9Imdyb3VwMTA4NjctMiIgdHJhbnNmb3JtPSJ0cmFuc2xhdGUoMCwtMC4wMDczOTg3NikiPiYjeGE7CQkJPHRpdGxlIGlkPSJ0aXRsZTI1ODUxNSI+ZzE1NDMzLjExNzIxPC90aXRsZT4mI3hhOwkJCTxnIGlkPSJzaGFwZTEwODY4LTMiPiYjeGE7CQkJCTx0aXRsZSBpZD0idGl0bGUyNTg1MTciPnJlY3QxNTQwNTwvdGl0bGU+JiN4YTsJCQkJJiN4YTsJCQkJCTxyZWN0IGlkPSJyZWN0MjU4NTE5IiB5PSIzLjAxIiBzdHlsZT0iZmlsbDojRkZGRkZGO3N0cm9rZTojNTU2QThBO3N0cm9rZS13aWR0aDoxLjU7c3Ryb2tlLW1pdGVybGltaXQ6MzsiIHdpZHRoPSIzOS43NSIgaGVpZ2h0PSI2OC4yNSIvPiYjeGE7CQkJPC9nPiYjeGE7CQkJPGcgaWQ9Imdyb3VwMTA4NjktNSIgdHJhbnNmb3JtPSJ0cmFuc2xhdGUoMS41LC0wLjc1KSI+JiN4YTsJCQkJPHRpdGxlIGlkPSJ0aXRsZTI1ODUyMiI+ZzE1NDI1PC90aXRsZT4mI3hhOwkJCQk8ZyBpZD0ic2hhcGUxMDg3MC02IiB0cmFuc2Zvcm09InRyYW5zbGF0ZSgxOCkiPiYjeGE7CQkJCQk8dGl0bGUgaWQ9InRpdGxlMjU4NTI0Ij5yZWN0MTU0MDc8L3RpdGxlPiYjeGE7CQkJCQk8cmVjdCBpZD0icmVjdDI1ODUyNiIgeT0iNC41MSIgc3R5bGU9ImZpbGw6I0U1RTVFNTsiIHdpZHRoPSIxOS41IiBoZWlnaHQ9IjY2Ljc1Ii8+JiN4YTsJCQkJPC9nPiYjeGE7CQkJCTxnIGlkPSJzaGFwZTEwODcxLTgiIHRyYW5zZm9ybT0idHJhbnNsYXRlKDAsLTQ4KSI+JiN4YTsJCQkJCTx0aXRsZSBpZD0idGl0bGUyNTg1MjkiPnJlY3QxNTQwOTwvdGl0bGU+JiN4YTsJCQkJCTxyZWN0IGlkPSJyZWN0MjU4NTMxIiB5PSI2OS4wMSIgc3R5bGU9ImZpbGw6IzJCQzdGNDsiIHdpZHRoPSIxOCIgaGVpZ2h0PSIyLjI1Ii8+JiN4YTsJCQkJPC9nPiYjeGE7CQkJCTxnIGlkPSJzaGFwZTEwODcyLTEwIiB0cmFuc2Zvcm09InRyYW5zbGF0ZSgwLC01OC41KSI+JiN4YTsJCQkJCTx0aXRsZSBpZD0idGl0bGUyNTg1MzQiPnBvbHlnb24xNTQxMTwvdGl0bGU+JiN4YTsJCQkJCTxyZWN0IGlkPSJyZWN0MjU4NTM2IiB5PSI2OS4wMSIgc3R5bGU9ImZpbGw6bm9uZTsiIHdpZHRoPSIyNyIgaGVpZ2h0PSIyLjI1Ii8+JiN4YTsJCQkJPC9nPiYjeGE7CQkJCTxnIGlkPSJzaGFwZTEwODczLTEyIiB0cmFuc2Zvcm09InRyYW5zbGF0ZSgwLC01OC41KSI+JiN4YTsJCQkJCTx0aXRsZSBpZD0idGl0bGUyNTg1MzkiPnBvbHlsaW5lMTU0MTM8L3RpdGxlPiYjeGE7CQkJCQk8cmVjdCBpZD0icmVjdDI1ODU0MSIgeT0iNjkuMDEiIHN0eWxlPSJmaWxsOm5vbmU7IiB3aWR0aD0iMjciIGhlaWdodD0iMi4yNSIvPiYjeGE7CQkJCTwvZz4mI3hhOwkJCQk8ZyBpZD0ic2hhcGUxMDg3NC0xNCIgdHJhbnNmb3JtPSJ0cmFuc2xhdGUoMCwtNTMuMjUpIj4mI3hhOwkJCQkJPHRpdGxlIGlkPSJ0aXRsZTI1ODU0NCI+cmVjdDE1NDE1PC90aXRsZT4mI3hhOwkJCQkJPHJlY3QgaWQ9InJlY3QyNTg1NDYiIHk9IjY5LjAxIiBzdHlsZT0iZmlsbDojMkJDN0Y0OyIgd2lkdGg9IjE4IiBoZWlnaHQ9IjIuMjUiLz4mI3hhOwkJCQk8L2c+JiN4YTsJCQkJPGcgaWQ9InNoYXBlMTA4NzUtMTYiIHRyYW5zZm9ybT0idHJhbnNsYXRlKDAsLTU4LjUpIj4mI3hhOwkJCQkJPHRpdGxlIGlkPSJ0aXRsZTI1ODU0OSI+cmVjdDE1NDE3PC90aXRsZT4mI3hhOwkJCQkJPHJlY3QgaWQ9InJlY3QyNTg1NTEiIHk9IjY5LjAxIiBzdHlsZT0iZmlsbDojMkJDN0Y0OyIgd2lkdGg9IjE4IiBoZWlnaHQ9IjIuMjUiLz4mI3hhOwkJCQk8L2c+JiN4YTsJCQkJPGcgaWQ9InNoYXBlMTA4NzYtMTgiIHRyYW5zZm9ybT0idHJhbnNsYXRlKDE4LC00OCkiPiYjeGE7CQkJCQk8dGl0bGUgaWQ9InRpdGxlMjU4NTU0Ij5yZWN0MTU0MTk8L3RpdGxlPiYjeGE7CQkJCQk8cmVjdCBpZD0icmVjdDI1ODU1NiIgeT0iNjkuMDEiIHN0eWxlPSJmaWxsOiM1NTZBOEE7IiB3aWR0aD0iMTkuNSIgaGVpZ2h0PSIyLjI1Ii8+JiN4YTsJCQkJPC9nPiYjeGE7CQkJCTxnIGlkPSJzaGFwZTEwODc3LTIwIiB0cmFuc2Zvcm09InRyYW5zbGF0ZSgxOCwtNTMuMjUpIj4mI3hhOwkJCQkJPHRpdGxlIGlkPSJ0aXRsZTI1ODU1OSI+cmVjdDE1NDIxPC90aXRsZT4mI3hhOwkJCQkJPHJlY3QgaWQ9InJlY3QyNTg1NjEiIHk9IjY5LjAxIiBzdHlsZT0iZmlsbDojNTU2QThBOyIgd2lkdGg9IjE5LjUiIGhlaWdodD0iMi4yNSIvPiYjeGE7CQkJCTwvZz4mI3hhOwkJCQk8ZyBpZD0ic2hhcGUxMDg3OC0yMiIgdHJhbnNmb3JtPSJ0cmFuc2xhdGUoMTgsLTU4LjUpIj4mI3hhOwkJCQkJPHRpdGxlIGlkPSJ0aXRsZTI1ODU2NCI+cmVjdDE1NDIzPC90aXRsZT4mI3hhOwkJCQkJPHJlY3QgaWQ9InJlY3QyNTg1NjYiIHk9IjY5LjAxIiBzdHlsZT0iZmlsbDojNTU2QThBOyIgd2lkdGg9IjE5LjUiIGhlaWdodD0iMi4yNSIvPiYjeGE7CQkJCTwvZz4mI3hhOwkJCTwvZz4mI3hhOwkJCTxnIGlkPSJzaGFwZTEwODc5LTI0IiB0cmFuc2Zvcm09InRyYW5zbGF0ZSgwLjc1LC01OS4yNSkiPiYjeGE7CQkJCTx0aXRsZSBpZD0idGl0bGUyNTg1NzAiPnJlY3QxNTQyNzwvdGl0bGU+JiN4YTsJCQkJPHJlY3QgaWQ9InJlY3QyNTg1NzIiIHk9IjY5LjAxIiBzdHlsZT0iZmlsbDojNTU2QThBOyIgd2lkdGg9IjIuMjUiIGhlaWdodD0iMi4yNSIvPiYjeGE7CQkJPC9nPiYjeGE7CQkJPGcgaWQ9InNoYXBlMTA4ODAtMjYiIHRyYW5zZm9ybT0idHJhbnNsYXRlKDAuNzUsLTU0KSI+JiN4YTsJCQkJPHRpdGxlIGlkPSJ0aXRsZTI1ODU3NSI+cmVjdDE1NDI5PC90aXRsZT4mI3hhOwkJCQk8cmVjdCBpZD0icmVjdDI1ODU3NyIgeT0iNjkuMDEiIHN0eWxlPSJmaWxsOiM1NTZBOEE7IiB3aWR0aD0iMi4yNSIgaGVpZ2h0PSIyLjI1Ii8+JiN4YTsJCQk8L2c+JiN4YTsJCQk8ZyBpZD0ic2hhcGUxMDg4MS0yOCIgdHJhbnNmb3JtPSJ0cmFuc2xhdGUoMC43NSwtNDguNzUpIj4mI3hhOwkJCQk8dGl0bGUgaWQ9InRpdGxlMjU4NTgwIj5yZWN0MTU0MzE8L3RpdGxlPiYjeGE7CQkJCTxyZWN0IGlkPSJyZWN0MjU4NTgyIiB5PSI2OS4wMSIgc3R5bGU9ImZpbGw6IzU1NkE4QTsiIHdpZHRoPSIyLjI1IiBoZWlnaHQ9IjIuMjUiLz4mI3hhOwkJCTwvZz4mI3hhOwkJPC9nPiYjeGE7CQk8ZyBpZD0ic2hhcGUxMDg4Mi0zMCIgdHJhbnNmb3JtPSJ0cmFuc2xhdGUoMTMuNjk4MykiPiYjeGE7CQkJPHRpdGxlIGlkPSJ0aXRsZTI1ODU4NiI+cG9seWdvbjE1NDM1LjExNzM3PC90aXRsZT4mI3hhOwkJCSYjeGE7CQkJCTxwYXRoIGlkPSJwYXRoMjU4NTg4IiBpbmtzY2FwZTpjb25uZWN0b3ItY3VydmF0dXJlPSIwIiBzdHlsZT0iZmlsbDojRkZGRkZGO3N0cm9rZTojNTU2QThBO3N0cm9rZS13aWR0aDoxLjU7c3Ryb2tlLW1pdGVybGltaXQ6MzsiIGQ9IiAgICAgTTguMjcsNzEuMjZMMCw1Ny4wMmw4LjI3LTE0LjIzaDE2LjU1bDguMjcsMTQuMjNsLTguMjcsMTQuMjRIOC4yN3oiLz4mI3hhOwkJPC9nPiYjeGE7CTwvZz4mI3hhOzwvZz4mI3hhOzwvc3ZnPg==;" vertex="1" parent="QX-P79LdTZ4ubuz_DQ_H-30">
          <mxGeometry x="695" y="218.99999999999955" width="48" height="70" as="geometry" />
        </mxCell>
        <mxCell id="QX-P79LdTZ4ubuz_DQ_H-12" value="Data Warehouse" style="shape=image;verticalLabelPosition=bottom;labelBackgroundColor=#ffffff;verticalAlign=top;aspect=fixed;imageAspect=0;image=data:image/svg+xml,PHN2ZyB4bWxuczpjYz0iaHR0cDovL2NyZWF0aXZlY29tbW9ucy5vcmcvbnMjIiB4bWxuczpkYz0iaHR0cDovL3B1cmwub3JnL2RjL2VsZW1lbnRzLzEuMS8iIHhtbG5zOmlua3NjYXBlPSJodHRwOi8vd3d3Lmlua3NjYXBlLm9yZy9uYW1lc3BhY2VzL2lua3NjYXBlIiB4bWxuczpyZGY9Imh0dHA6Ly93d3cudzMub3JnLzE5OTkvMDIvMjItcmRmLXN5bnRheC1ucyMiIHhtbG5zOnNvZGlwb2RpPSJodHRwOi8vc29kaXBvZGkuc291cmNlZm9yZ2UubmV0L0RURC9zb2RpcG9kaS0wLmR0ZCIgeG1sbnM6c3ZnPSJodHRwOi8vd3d3LnczLm9yZy8yMDAwL3N2ZyIgeG1sbnM9Imh0dHA6Ly93d3cudzMub3JnLzIwMDAvc3ZnIiB4bWxuczp4bGluaz0iaHR0cDovL3d3dy53My5vcmcvMTk5OS94bGluayIgdmVyc2lvbj0iMS4xIiBpZD0ic3ZnMjU2MTM1IiBpbmtzY2FwZTp2ZXJzaW9uPSIwLjkyLjMgKDI0MDU1NDYsIDIwMTgtMDMtMTEpIiBzb2RpcG9kaTpkb2NuYW1lPSJkYXRhYmFzZV9zZXJ2ZXIuc3ZnIiB4PSIwcHgiIHk9IjBweCIgdmlld0JveD0iMCAwIDQ4LjQxIDY5Ljc2IiBzdHlsZT0iZW5hYmxlLWJhY2tncm91bmQ6bmV3IDAgMCA0OC40MSA2OS43NjsiIHhtbDpzcGFjZT0icHJlc2VydmUiPiYjeGE7PHNvZGlwb2RpOm5hbWVkdmlldyBib3JkZXJjb2xvcj0iIzY2NjY2NiIgYm9yZGVyb3BhY2l0eT0iMSIgZml0LW1hcmdpbi1ib3R0b209IjAiIGZpdC1tYXJnaW4tbGVmdD0iMCIgZml0LW1hcmdpbi1yaWdodD0iMCIgZml0LW1hcmdpbi10b3A9IjAiIGdyaWR0b2xlcmFuY2U9IjEwIiBndWlkZXRvbGVyYW5jZT0iMTAiIGlkPSJuYW1lZHZpZXcyNTYxMzciIGlua3NjYXBlOmN1cnJlbnQtbGF5ZXI9InN2ZzI1NjEzNSIgaW5rc2NhcGU6Y3g9IjMyLjE5MDg5NyIgaW5rc2NhcGU6Y3k9IjQ2LjUwODM0NiIgaW5rc2NhcGU6cGFnZW9wYWNpdHk9IjAiIGlua3NjYXBlOnBhZ2VzaGFkb3c9IjIiIGlua3NjYXBlOndpbmRvdy1oZWlnaHQ9IjEwMTciIGlua3NjYXBlOndpbmRvdy1tYXhpbWl6ZWQ9IjEiIGlua3NjYXBlOndpbmRvdy13aWR0aD0iMTkyMCIgaW5rc2NhcGU6d2luZG93LXg9Ii04IiBpbmtzY2FwZTp3aW5kb3cteT0iLTgiIGlua3NjYXBlOnpvb209IjkuMTI1MzY4OSIgb2JqZWN0dG9sZXJhbmNlPSIxMCIgcGFnZWNvbG9yPSIjZmZmZmZmIiBzaG93Z3JpZD0iZmFsc2UiPiYjeGE7CTwvc29kaXBvZGk6bmFtZWR2aWV3PiYjeGE7PGcgaWQ9ImcyNTYxMzMiIHRyYW5zZm9ybT0idHJhbnNsYXRlKC0wLjc1LC0wLjc1MDAzODc4KSI+JiN4YTsJPHRpdGxlIGlkPSJ0aXRsZTI1NjAxNiI+UGFnZS0xPC90aXRsZT4mI3hhOwk8ZyBpZD0iZ3JvdXAxMDk0OC0xIiB0cmFuc2Zvcm09InRyYW5zbGF0ZSgxLjUsLTEuNSkiPiYjeGE7CQk8dGl0bGUgaWQ9InRpdGxlMjU2MDE4Ij5EYXRhYmFzZSBTZXJ2ZXI8L3RpdGxlPiYjeGE7CQk8ZyBpZD0iZ3JvdXAxMDk0OS0yIj4mI3hhOwkJCTx0aXRsZSBpZD0idGl0bGUyNTYwMjAiPkRhdGFiYXNlIFNlcnZlcjwvdGl0bGU+JiN4YTsJCQk8ZyBpZD0iZ3JvdXAxMDk1MC0zIj4mI3hhOwkJCQk8dGl0bGUgaWQ9InRpdGxlMjU2MDIyIj5HZW5lcmljIFNlcnZpY2U8L3RpdGxlPiYjeGE7CQkJCTxnIGlkPSJncm91cDEwOTUxLTQiIHRyYW5zZm9ybT0idHJhbnNsYXRlKDAsLTAuMDA3Mzk4NzYpIj4mI3hhOwkJCQkJPHRpdGxlIGlkPSJ0aXRsZTI1NjAyNCI+ZzE1NDMzLjExNzIxPC90aXRsZT4mI3hhOwkJCQkJPGcgaWQ9InNoYXBlMTA5NTItNSI+JiN4YTsJCQkJCQk8dGl0bGUgaWQ9InRpdGxlMjU2MDI2Ij5yZWN0MTU0MDU8L3RpdGxlPiYjeGE7CQkJCQkJJiN4YTsJCQkJCQkJPHJlY3QgaWQ9InJlY3QyNTYwMjgiIHk9IjMuMDEiIHN0eWxlPSJmaWxsOiNGRkZGRkY7c3Ryb2tlOiM1NTZBOEE7c3Ryb2tlLXdpZHRoOjEuNTtzdHJva2UtbWl0ZXJsaW1pdDozOyIgd2lkdGg9IjM5Ljc1IiBoZWlnaHQ9IjY4LjI1Ii8+JiN4YTsJCQkJCTwvZz4mI3hhOwkJCQkJPGcgaWQ9Imdyb3VwMTA5NTMtNyIgdHJhbnNmb3JtPSJ0cmFuc2xhdGUoMS41LC0wLjc1KSI+JiN4YTsJCQkJCQk8dGl0bGUgaWQ9InRpdGxlMjU2MDMxIj5nMTU0MjU8L3RpdGxlPiYjeGE7CQkJCQkJPGcgaWQ9InNoYXBlMTA5NTQtOCIgdHJhbnNmb3JtPSJ0cmFuc2xhdGUoMTgpIj4mI3hhOwkJCQkJCQk8dGl0bGUgaWQ9InRpdGxlMjU2MDMzIj5yZWN0MTU0MDc8L3RpdGxlPiYjeGE7CQkJCQkJCTxyZWN0IGlkPSJyZWN0MjU2MDM1IiB5PSI0LjUxIiBzdHlsZT0iZmlsbDojRTVFNUU1OyIgd2lkdGg9IjE5LjUiIGhlaWdodD0iNjYuNzUiLz4mI3hhOwkJCQkJCTwvZz4mI3hhOwkJCQkJCTxnIGlkPSJzaGFwZTEwOTU1LTEwIiB0cmFuc2Zvcm09InRyYW5zbGF0ZSgwLC00OCkiPiYjeGE7CQkJCQkJCTx0aXRsZSBpZD0idGl0bGUyNTYwMzgiPnJlY3QxNTQwOTwvdGl0bGU+JiN4YTsJCQkJCQkJPHJlY3QgaWQ9InJlY3QyNTYwNDAiIHk9IjY5LjAxIiBzdHlsZT0iZmlsbDojMkJDN0Y0OyIgd2lkdGg9IjE4IiBoZWlnaHQ9IjIuMjUiLz4mI3hhOwkJCQkJCTwvZz4mI3hhOwkJCQkJCTxnIGlkPSJzaGFwZTEwOTU2LTEyIiB0cmFuc2Zvcm09InRyYW5zbGF0ZSgwLC01OC41KSI+JiN4YTsJCQkJCQkJPHRpdGxlIGlkPSJ0aXRsZTI1NjA0MyI+cG9seWdvbjE1NDExPC90aXRsZT4mI3hhOwkJCQkJCQk8cmVjdCBpZD0icmVjdDI1NjA0NSIgeT0iNjkuMDEiIHN0eWxlPSJmaWxsOm5vbmU7IiB3aWR0aD0iMjciIGhlaWdodD0iMi4yNSIvPiYjeGE7CQkJCQkJPC9nPiYjeGE7CQkJCQkJPGcgaWQ9InNoYXBlMTA5NTctMTQiIHRyYW5zZm9ybT0idHJhbnNsYXRlKDAsLTU4LjUpIj4mI3hhOwkJCQkJCQk8dGl0bGUgaWQ9InRpdGxlMjU2MDQ4Ij5wb2x5bGluZTE1NDEzPC90aXRsZT4mI3hhOwkJCQkJCQk8cmVjdCBpZD0icmVjdDI1NjA1MCIgeT0iNjkuMDEiIHN0eWxlPSJmaWxsOm5vbmU7IiB3aWR0aD0iMjciIGhlaWdodD0iMi4yNSIvPiYjeGE7CQkJCQkJPC9nPiYjeGE7CQkJCQkJPGcgaWQ9InNoYXBlMTA5NTgtMTYiIHRyYW5zZm9ybT0idHJhbnNsYXRlKDAsLTUzLjI1KSI+JiN4YTsJCQkJCQkJPHRpdGxlIGlkPSJ0aXRsZTI1NjA1MyI+cmVjdDE1NDE1PC90aXRsZT4mI3hhOwkJCQkJCQk8cmVjdCBpZD0icmVjdDI1NjA1NSIgeT0iNjkuMDEiIHN0eWxlPSJmaWxsOiMyQkM3RjQ7IiB3aWR0aD0iMTgiIGhlaWdodD0iMi4yNSIvPiYjeGE7CQkJCQkJPC9nPiYjeGE7CQkJCQkJPGcgaWQ9InNoYXBlMTA5NTktMTgiIHRyYW5zZm9ybT0idHJhbnNsYXRlKDAsLTU4LjUpIj4mI3hhOwkJCQkJCQk8dGl0bGUgaWQ9InRpdGxlMjU2MDU4Ij5yZWN0MTU0MTc8L3RpdGxlPiYjeGE7CQkJCQkJCTxyZWN0IGlkPSJyZWN0MjU2MDYwIiB5PSI2OS4wMSIgc3R5bGU9ImZpbGw6IzJCQzdGNDsiIHdpZHRoPSIxOCIgaGVpZ2h0PSIyLjI1Ii8+JiN4YTsJCQkJCQk8L2c+JiN4YTsJCQkJCQk8ZyBpZD0ic2hhcGUxMDk2MC0yMCIgdHJhbnNmb3JtPSJ0cmFuc2xhdGUoMTgsLTQ4KSI+JiN4YTsJCQkJCQkJPHRpdGxlIGlkPSJ0aXRsZTI1NjA2MyI+cmVjdDE1NDE5PC90aXRsZT4mI3hhOwkJCQkJCQk8cmVjdCBpZD0icmVjdDI1NjA2NSIgeT0iNjkuMDEiIHN0eWxlPSJmaWxsOiM1NTZBOEE7IiB3aWR0aD0iMTkuNSIgaGVpZ2h0PSIyLjI1Ii8+JiN4YTsJCQkJCQk8L2c+JiN4YTsJCQkJCQk8ZyBpZD0ic2hhcGUxMDk2MS0yMiIgdHJhbnNmb3JtPSJ0cmFuc2xhdGUoMTgsLTUzLjI1KSI+JiN4YTsJCQkJCQkJPHRpdGxlIGlkPSJ0aXRsZTI1NjA2OCI+cmVjdDE1NDIxPC90aXRsZT4mI3hhOwkJCQkJCQk8cmVjdCBpZD0icmVjdDI1NjA3MCIgeT0iNjkuMDEiIHN0eWxlPSJmaWxsOiM1NTZBOEE7IiB3aWR0aD0iMTkuNSIgaGVpZ2h0PSIyLjI1Ii8+JiN4YTsJCQkJCQk8L2c+JiN4YTsJCQkJCQk8ZyBpZD0ic2hhcGUxMDk2Mi0yNCIgdHJhbnNmb3JtPSJ0cmFuc2xhdGUoMTgsLTU4LjUpIj4mI3hhOwkJCQkJCQk8dGl0bGUgaWQ9InRpdGxlMjU2MDczIj5yZWN0MTU0MjM8L3RpdGxlPiYjeGE7CQkJCQkJCTxyZWN0IGlkPSJyZWN0MjU2MDc1IiB5PSI2OS4wMSIgc3R5bGU9ImZpbGw6IzU1NkE4QTsiIHdpZHRoPSIxOS41IiBoZWlnaHQ9IjIuMjUiLz4mI3hhOwkJCQkJCTwvZz4mI3hhOwkJCQkJPC9nPiYjeGE7CQkJCQk8ZyBpZD0ic2hhcGUxMDk2My0yNiIgdHJhbnNmb3JtPSJ0cmFuc2xhdGUoMC43NSwtNTkuMjUpIj4mI3hhOwkJCQkJCTx0aXRsZSBpZD0idGl0bGUyNTYwNzkiPnJlY3QxNTQyNzwvdGl0bGU+JiN4YTsJCQkJCQk8cmVjdCBpZD0icmVjdDI1NjA4MSIgeT0iNjkuMDEiIHN0eWxlPSJmaWxsOiM1NTZBOEE7IiB3aWR0aD0iMi4yNSIgaGVpZ2h0PSIyLjI1Ii8+JiN4YTsJCQkJCTwvZz4mI3hhOwkJCQkJPGcgaWQ9InNoYXBlMTA5NjQtMjgiIHRyYW5zZm9ybT0idHJhbnNsYXRlKDAuNzUsLTU0KSI+JiN4YTsJCQkJCQk8dGl0bGUgaWQ9InRpdGxlMjU2MDg0Ij5yZWN0MTU0Mjk8L3RpdGxlPiYjeGE7CQkJCQkJPHJlY3QgaWQ9InJlY3QyNTYwODYiIHk9IjY5LjAxIiBzdHlsZT0iZmlsbDojNTU2QThBOyIgd2lkdGg9IjIuMjUiIGhlaWdodD0iMi4yNSIvPiYjeGE7CQkJCQk8L2c+JiN4YTsJCQkJCTxnIGlkPSJzaGFwZTEwOTY1LTMwIiB0cmFuc2Zvcm09InRyYW5zbGF0ZSgwLjc1LC00OC43NSkiPiYjeGE7CQkJCQkJPHRpdGxlIGlkPSJ0aXRsZTI1NjA4OSI+cmVjdDE1NDMxPC90aXRsZT4mI3hhOwkJCQkJCTxyZWN0IGlkPSJyZWN0MjU2MDkxIiB5PSI2OS4wMSIgc3R5bGU9ImZpbGw6IzU1NkE4QTsiIHdpZHRoPSIyLjI1IiBoZWlnaHQ9IjIuMjUiLz4mI3hhOwkJCQkJPC9nPiYjeGE7CQkJCTwvZz4mI3hhOwkJCQk8ZyBpZD0ic2hhcGUxMDk2Ni0zMiIgdHJhbnNmb3JtPSJ0cmFuc2xhdGUoMTMuNjk4MykiPiYjeGE7CQkJCQk8dGl0bGUgaWQ9InRpdGxlMjU2MDk1Ij5wb2x5Z29uMTU0MzUuMTE3Mzc8L3RpdGxlPiYjeGE7CQkJCQkmI3hhOwkJCQkJCTxwYXRoIGlkPSJwYXRoMjU2MDk3IiBpbmtzY2FwZTpjb25uZWN0b3ItY3VydmF0dXJlPSIwIiBzdHlsZT0iZmlsbDojRkZGRkZGO3N0cm9rZTojNTU2QThBO3N0cm9rZS13aWR0aDoxLjU7c3Ryb2tlLW1pdGVybGltaXQ6MzsiIGQ9IiAgICAgICBNOC4yNyw3MS4yNkwwLDU3LjAybDguMjctMTQuMjNoMTYuNTVsOC4yNywxNC4yM2wtOC4yNywxNC4yNEg4LjI3eiIvPiYjeGE7CQkJCTwvZz4mI3hhOwkJCTwvZz4mI3hhOwkJPC9nPiYjeGE7CQk8ZyBpZD0iZ3JvdXAxMDk2Ny0zNCIgdHJhbnNmb3JtPSJ0cmFuc2xhdGUoMjIuMDM2NiwtMy44NjEzMykiPiYjeGE7CQkJPHRpdGxlIGlkPSJ0aXRsZTI1NjEwMiI+U2hlZXQuMTA5Njc8L3RpdGxlPiYjeGE7CQkJPGcgaWQ9Imdyb3VwMTA5NjgtMzUiPiYjeGE7CQkJCTx0aXRsZSBpZD0idGl0bGUyNTYxMDQiPmcxNDUwPC90aXRsZT4mI3hhOwkJCQk8ZyBpZD0ic2hhcGUxMDk2OS0zNiI+JiN4YTsJCQkJCTx0aXRsZSBpZD0idGl0bGUyNTYxMDYiPnBhdGgxNDQyPC90aXRsZT4mI3hhOwkJCQkJPHBhdGggaWQ9InBhdGgyNTYxMDgiIGlua3NjYXBlOmNvbm5lY3Rvci1jdXJ2YXR1cmU9IjAiIHN0eWxlPSJmaWxsOiNGRkZGRkY7IiBkPSJNMTQuNzUsNTIuNmwtNC44LDAuMDVMMCw1Mi43M3YxNS40OSAgICAgICBjMCwxLjU5LDMuNDgsMi45NSw4LjAxLDMuMDRoMC4xN2MwLjYxLDAsMS4yLTAuMDQsMS43Ny0wLjA5YzEuNjYtMC4xLDMuMjgtMC41LDQuOC0xLjE4YzEuMDItMC41MSwxLjYxLTEuMTMsMS42MS0xLjc3VjUyLjU5ICAgICAgIEwxNC43NSw1Mi42eiIvPiYjeGE7CQkJCTwvZz4mI3hhOwkJCQk8ZyBpZD0ic2hhcGUxMDk3MC0zOCIgdHJhbnNmb3JtPSJ0cmFuc2xhdGUoOS45NTEzNCwtMC4wOTc0NTk4KSI+JiN4YTsJCQkJCTx0aXRsZSBpZD0idGl0bGUyNTYxMTEiPnBhdGgxNDQ0PC90aXRsZT4mI3hhOwkJCQkJPHBhdGggaWQ9InBhdGgyNTYxMTMiIGlua3NjYXBlOmNvbm5lY3Rvci1jdXJ2YXR1cmU9IjAiIHN0eWxlPSJmaWxsOiNFNUU1RTU7IiBkPSJNNC44LDUyLjd2MTcuMzggICAgICAgYy0xLjUyLDAuNjgtMy4xNCwxLjA4LTQuOCwxLjE4VjUyLjc0TDQuOCw1Mi43eiIvPiYjeGE7CQkJCTwvZz4mI3hhOwkJCQk8ZyBpZD0ic2hhcGUxMDk3MS00MCI+JiN4YTsJCQkJCTx0aXRsZSBpZD0idGl0bGUyNTYxMTYiPnBhdGgxNDQ2PC90aXRsZT4mI3hhOwkJCQkJPHBhdGggaWQ9InBhdGgyNTYxMTgiIGlua3NjYXBlOmNvbm5lY3Rvci1jdXJ2YXR1cmU9IjAiIHN0eWxlPSJmaWxsOm5vbmU7IiBkPSJNMCw1Mi43M3YxNS40OWMwLDEuNTksMy40NiwyLjk1LDguMDEsMy4wNGgwLjE3ICAgICAgIGM0LjYzLTAuMDYsOC4xOC0xLjQ0LDguMTgtMy4wNFY1Mi41OUwwLDUyLjczeiIvPiYjeGE7CQkJCQkmI3hhOwkJCQkJCTxwYXRoIGlkPSJwYXRoMjU2MTIwIiBpbmtzY2FwZTpjb25uZWN0b3ItY3VydmF0dXJlPSIwIiBzdHlsZT0iZmlsbDpub25lO3N0cm9rZTojNTU2QThBO3N0cm9rZS13aWR0aDoxLjU7c3Ryb2tlLW1pdGVybGltaXQ6MzsiIGQ9IiAgICAgICBNMCw1Mi43M3YxNS40OWMwLDEuNTksMy40NiwyLjk1LDguMDEsMy4wNGgwLjE3YzQuNjMtMC4wNiw4LjE4LTEuNDQsOC4xOC0zLjA0VjUyLjU5Ii8+JiN4YTsJCQkJPC9nPiYjeGE7CQkJCTxnIGlkPSJzaGFwZTEwOTcyLTQzIiB0cmFuc2Zvcm09InRyYW5zbGF0ZSgwLjAyMDg4NDIsLTE1LjUzMDkpIj4mI3hhOwkJCQkJPHRpdGxlIGlkPSJ0aXRsZTI1NjEyMyI+cGF0aDE0NDg8L3RpdGxlPiYjeGE7CQkJCQk8cGF0aCBpZD0icGF0aDI1NjEyNSIgaW5rc2NhcGU6Y29ubmVjdG9yLWN1cnZhdHVyZT0iMCIgc3R5bGU9ImZpbGw6IzU1RDJGNjsiIGQ9Ik0xNi4zNiw2OC4zYzAsMS42My0zLjY2LDIuOTYtOC4xOCwyLjk2ICAgICAgIFMwLDY5LjkzLDAsNjguM3MzLjc3LTIuOTUsOC4yOS0yLjk1czguMDcsMS4zMiw4LjA3LDIuOTZWNjguM3oiLz4mI3hhOwkJCQkJJiN4YTsJCQkJCQk8cGF0aCBpZD0icGF0aDI1NjEyNyIgaW5rc2NhcGU6Y29ubmVjdG9yLWN1cnZhdHVyZT0iMCIgc3R5bGU9ImZpbGw6bm9uZTtzdHJva2U6IzU1NkE4QTtzdHJva2Utd2lkdGg6MS41O3N0cm9rZS1taXRlcmxpbWl0OjM7IiBkPSIgICAgICAgTTE2LjM2LDY4LjNjMCwxLjYzLTMuNjYsMi45Ni04LjE4LDIuOTZTMCw2OS45MywwLDY4LjNzMy43Ny0yLjk1LDguMjktMi45NXM4LjA3LDEuMzIsOC4wNywyLjk2Ii8+JiN4YTsJCQkJPC9nPiYjeGE7CQkJPC9nPiYjeGE7CQk8L2c+JiN4YTsJPC9nPiYjeGE7PC9nPiYjeGE7PC9zdmc+;" vertex="1" parent="QX-P79LdTZ4ubuz_DQ_H-30">
          <mxGeometry x="192" y="388.99999999999955" width="48" height="70" as="geometry" />
        </mxCell>
        <mxCell id="QX-P79LdTZ4ubuz_DQ_H-13" value="AWS S3, Data Lake" style="sketch=0;points=[[0,0,0],[0.25,0,0],[0.5,0,0],[0.75,0,0],[1,0,0],[0,1,0],[0.25,1,0],[0.5,1,0],[0.75,1,0],[1,1,0],[0,0.25,0],[0,0.5,0],[0,0.75,0],[1,0.25,0],[1,0.5,0],[1,0.75,0]];outlineConnect=0;fontColor=#232F3E;fillColor=#7AA116;strokeColor=#ffffff;dashed=0;verticalLabelPosition=bottom;verticalAlign=top;align=center;html=1;fontSize=12;fontStyle=0;aspect=fixed;shape=mxgraph.aws4.resourceIcon;resIcon=mxgraph.aws4.s3;" vertex="1" parent="QX-P79LdTZ4ubuz_DQ_H-30">
          <mxGeometry x="520" y="384.99999999999955" width="78" height="78" as="geometry" />
        </mxCell>
        <mxCell id="QX-P79LdTZ4ubuz_DQ_H-14" value="Docker Hub,&#xa;Container Registries" style="shape=image;verticalLabelPosition=bottom;labelBackgroundColor=#ffffff;verticalAlign=top;aspect=fixed;imageAspect=0;image=data:image/svg+xml,PHN2ZyB4bWxuczpjYz0iaHR0cDovL2NyZWF0aXZlY29tbW9ucy5vcmcvbnMjIiB4bWxuczpkYz0iaHR0cDovL3B1cmwub3JnL2RjL2VsZW1lbnRzLzEuMS8iIHhtbG5zOmlua3NjYXBlPSJodHRwOi8vd3d3Lmlua3NjYXBlLm9yZy9uYW1lc3BhY2VzL2lua3NjYXBlIiB4bWxuczpyZGY9Imh0dHA6Ly93d3cudzMub3JnLzE5OTkvMDIvMjItcmRmLXN5bnRheC1ucyMiIHhtbG5zOnNvZGlwb2RpPSJodHRwOi8vc29kaXBvZGkuc291cmNlZm9yZ2UubmV0L0RURC9zb2RpcG9kaS0wLmR0ZCIgeG1sbnM6c3ZnPSJodHRwOi8vd3d3LnczLm9yZy8yMDAwL3N2ZyIgeG1sbnM9Imh0dHA6Ly93d3cudzMub3JnLzIwMDAvc3ZnIiB4bWxuczp4bGluaz0iaHR0cDovL3d3dy53My5vcmcvMTk5OS94bGluayIgdmVyc2lvbj0iMS4xIiBpZD0ic3ZnMTM4NzI0IiBpbmtzY2FwZTp2ZXJzaW9uPSIwLjkyLjMgKDI0MDU1NDYsIDIwMTgtMDMtMTEpIiBzb2RpcG9kaTpkb2NuYW1lPSJhenVyZV92aXJ0dWFsX21hY2hpbmUuc3ZnIiB4PSIwcHgiIHk9IjBweCIgdmlld0JveD0iMCAwIDgwLjMzIDU5LjA2IiBzdHlsZT0iZW5hYmxlLWJhY2tncm91bmQ6bmV3IDAgMCA4MC4zMyA1OS4wNjsiIHhtbDpzcGFjZT0icHJlc2VydmUiPiYjeGE7PHNvZGlwb2RpOm5hbWVkdmlldyBib3JkZXJjb2xvcj0iIzY2NjY2NiIgYm9yZGVyb3BhY2l0eT0iMSIgZml0LW1hcmdpbi1ib3R0b209IjAiIGZpdC1tYXJnaW4tbGVmdD0iMCIgZml0LW1hcmdpbi1yaWdodD0iMCIgZml0LW1hcmdpbi10b3A9IjAiIGdyaWR0b2xlcmFuY2U9IjEwIiBndWlkZXRvbGVyYW5jZT0iMTAiIGlkPSJuYW1lZHZpZXcxMzg3MjYiIGlua3NjYXBlOmN1cnJlbnQtbGF5ZXI9InN2ZzEzODcyNCIgaW5rc2NhcGU6Y3g9IjUzLjUzMTY3NyIgaW5rc2NhcGU6Y3k9IjM5LjM3MTEzMyIgaW5rc2NhcGU6cGFnZW9wYWNpdHk9IjAiIGlua3NjYXBlOnBhZ2VzaGFkb3c9IjIiIGlua3NjYXBlOndpbmRvdy1oZWlnaHQ9IjEwMTciIGlua3NjYXBlOndpbmRvdy1tYXhpbWl6ZWQ9IjEiIGlua3NjYXBlOndpbmRvdy13aWR0aD0iMTkyMCIgaW5rc2NhcGU6d2luZG93LXg9Ii04IiBpbmtzY2FwZTp3aW5kb3cteT0iLTgiIGlua3NjYXBlOnpvb209IjEwLjczNjY4NyIgb2JqZWN0dG9sZXJhbmNlPSIxMCIgcGFnZWNvbG9yPSIjZmZmZmZmIiBzaG93Z3JpZD0iZmFsc2UiPiYjeGE7CTwvc29kaXBvZGk6bmFtZWR2aWV3PiYjeGE7PGcgaWQ9ImcxMzg3MjIiIHRyYW5zZm9ybT0idHJhbnNsYXRlKC0wLjc2MjAwMjY1LC0wLjc0OTk5NDI3KSI+JiN4YTsJPHRpdGxlIGlkPSJ0aXRsZTEzODY5MiI+UGFnZS0xPC90aXRsZT4mI3hhOwk8ZyBpZD0iZ3JvdXA4NjIyLTEiIHRyYW5zZm9ybT0idHJhbnNsYXRlKDAuNzUwMTI0LC0wLjc1MDkwNikiPiYjeGE7CQk8dGl0bGUgaWQ9InRpdGxlMTM4Njk0Ij5BenVyZSBWaXJ0dWFsIE1hY2hpbmU8L3RpdGxlPiYjeGE7CQk8ZyBpZD0ic2hhcGU4NjIzLTIiIHRyYW5zZm9ybT0idHJhbnNsYXRlKDI2LjUwNDcsLTcuNDc3NSkiPiYjeGE7CQkJPHRpdGxlIGlkPSJ0aXRsZTEzODY5NiI+cGF0aDYyMDM8L3RpdGxlPiYjeGE7CQkJPHBhdGggaWQ9InBhdGgxMzg2OTgiIGlua3NjYXBlOmNvbm5lY3Rvci1jdXJ2YXR1cmU9IjAiIHN0eWxlPSJmaWxsOiNDNkUxRjY7IiBkPSJNNDMuMjIsNjAuNTZIMTQuNjVjLTIuNzMsMC00LjQ2LDAtNS43My0wLjEzICAgICBIOC42N2MtMS0wLjEtMS45OC0wLjM3LTIuOS0wLjhsLTAuMTUtMC4wNmMtNC45MS0yLjMtNy4wMy04LjE1LTQuNzMtMTMuMDZjMS4yNi0yLjY5LDMuNjctNC42Nyw2LjU1LTUuMzggICAgIGMxLjQzLTAuMzQsMi45My0wLjM2LDQuMzctMC4wNmMxLjQ5LTQuMjMsNS40Ny03LjA3LDkuOTUtNy4xMmMxLjYxLTAuMDEsMy4yLDAuMzYsNC42NSwxLjA4YzEuODYtMy4wNSw1LjE3LTQuOTEsOC43NC00LjkyICAgICBjNS4xNiwwLjA5LDkuNSwzLjg5LDEwLjI2LDljNS44NSwxLjM1LDkuNSw3LjIsOC4xNCwxMy4wNWMtMC45NCw0LjA4LTQuMTUsNy4yNS04LjIzLDguMTZDNDQuNjMsNjAuNDgsNDMuOTMsNjAuNTYsNDMuMjIsNjAuNTZ6ICAgICAiLz4mI3hhOwkJPC9nPiYjeGE7CQk8ZyBpZD0ic2hhcGU4NjI0LTQiIHRyYW5zZm9ybT0idHJhbnNsYXRlKDMwLjQ4NTQsLTguODEyNSkiPiYjeGE7CQkJPHRpdGxlIGlkPSJ0aXRsZTEzODcwMSI+cmVjdDYyMDU8L3RpdGxlPiYjeGE7CQkJPHJlY3QgaWQ9InJlY3QxMzg3MDMiIHg9IjAiIHk9IjEwLjMxIiBzdHlsZT0iZmlsbDojMzMzMzMzOyIgd2lkdGg9IjMwLjc1IiBoZWlnaHQ9IjUwLjI1Ii8+JiN4YTsJCTwvZz4mI3hhOwkJPGcgaWQ9InNoYXBlODYyNS02IiB0cmFuc2Zvcm09InRyYW5zbGF0ZSgzNS43MzU0LC00OS4zMTI1KSI+JiN4YTsJCQk8dGl0bGUgaWQ9InRpdGxlMTM4NzA2Ij5yZWN0NjIwNzwvdGl0bGU+JiN4YTsJCQk8cmVjdCBpZD0icmVjdDEzODcwOCIgeD0iMCIgeT0iNTYuMDYiIHN0eWxlPSJmaWxsOiM5MDkwOTA7IiB3aWR0aD0iMjAuMjUiIGhlaWdodD0iNC41Ii8+JiN4YTsJCTwvZz4mI3hhOwkJPGcgaWQ9InNoYXBlODYyNi04IiB0cmFuc2Zvcm09InRyYW5zbGF0ZSgzNS43MzU0LC0zOS41NjI1KSI+JiN4YTsJCQk8dGl0bGUgaWQ9InRpdGxlMTM4NzExIj5yZWN0NjIwOTwvdGl0bGU+JiN4YTsJCQk8cmVjdCBpZD0icmVjdDEzODcxMyIgeD0iMCIgeT0iNTYuMDYiIHN0eWxlPSJmaWxsOiM5MDkwOTA7IiB3aWR0aD0iMjAuMjUiIGhlaWdodD0iNC41Ii8+JiN4YTsJCTwvZz4mI3hhOwkJPGcgaWQ9InNoYXBlODYyNy0xMCI+JiN4YTsJCQk8dGl0bGUgaWQ9InRpdGxlMTM4NzE2Ij5wYXRoNjIxOTwvdGl0bGU+JiN4YTsJCQk8cGF0aCBpZD0icGF0aDEzODcxOCIgaW5rc2NhcGU6Y29ubmVjdG9yLWN1cnZhdHVyZT0iMCIgc3R5bGU9ImZpbGw6I0FBRDJGMjsiIGQ9Ik0xMC40OSw2MC4yOUMzLjI2LDU4LjY2LTEuMjksNTEuNDgsMC4zNCw0NC4yNSAgICAgYzEuMTMtNS4wMiw1LjAzLTguOTUsMTAuMDQtMTAuMTNjMC45NC02LjMsNi4zLTExLDEyLjY3LTExLjFjNC40LDAuMDEsOC40OSwyLjMsMTAuNzksNi4wNmMxLjc3LTAuODgsMy43Mi0xLjM0LDUuNjktMS4zNCAgICAgYzUuNTMsMC4wNSwxMC40NCwzLjU1LDEyLjI5LDguNzZjMS43OC0wLjM4LDMuNjMtMC4zNSw1LjQsMC4wN2M2LjUxLDEuNTksMTAuNDksOC4xNSw4LjksMTQuNjZjLTAuODcsMy41Ny0zLjMyLDYuNTUtNi42NSw4LjExICAgICBsLTAuMTksMC4wOGMtMS4xMywwLjUzLTIuMzUsMC44Ni0zLjU5LDAuOThoLTAuM2MtMS41OCwwLjEzLTMuNzEsMC4xNi03LjA4LDAuMTZIMTMuMDZDMTIuMiw2MC41NywxMS4zMyw2MC40OCwxMC40OSw2MC4yOXoiLz4mI3hhOwkJPC9nPiYjeGE7CTwvZz4mI3hhOzwvZz4mI3hhOzwvc3ZnPg==;" vertex="1" parent="QX-P79LdTZ4ubuz_DQ_H-30">
          <mxGeometry x="529.9999999999999" width="80" height="59" as="geometry" />
        </mxCell>
        <mxCell id="QX-P79LdTZ4ubuz_DQ_H-23" style="edgeStyle=orthogonalEdgeStyle;rounded=0;orthogonalLoop=1;jettySize=auto;html=1;exitX=1;exitY=0.5;exitDx=0;exitDy=0;" edge="1" parent="QX-P79LdTZ4ubuz_DQ_H-30" source="QX-P79LdTZ4ubuz_DQ_H-15" target="QX-P79LdTZ4ubuz_DQ_H-14">
          <mxGeometry relative="1" as="geometry" />
        </mxCell>
        <mxCell id="QX-P79LdTZ4ubuz_DQ_H-28" style="edgeStyle=orthogonalEdgeStyle;rounded=0;orthogonalLoop=1;jettySize=auto;html=1;exitX=1;exitY=0.75;exitDx=0;exitDy=0;entryX=0.5;entryY=0;entryDx=0;entryDy=0;" edge="1" parent="QX-P79LdTZ4ubuz_DQ_H-30" source="QX-P79LdTZ4ubuz_DQ_H-15" target="QX-P79LdTZ4ubuz_DQ_H-10">
          <mxGeometry relative="1" as="geometry">
            <Array as="points">
              <mxPoint x="720" y="102.99999999999955" />
            </Array>
          </mxGeometry>
        </mxCell>
        <mxCell id="QX-P79LdTZ4ubuz_DQ_H-15" value="ZenML, MLOps Framework&#xa;MLOps Logging&#xa;Pipeline Manager&#xa;Secrets Manager" style="shape=image;verticalLabelPosition=bottom;labelBackgroundColor=#ffffff;verticalAlign=top;aspect=fixed;imageAspect=0;image=data:image/svg+xml,PHN2ZyB4bWxuczpjYz0iaHR0cDovL2NyZWF0aXZlY29tbW9ucy5vcmcvbnMjIiB4bWxuczpkYz0iaHR0cDovL3B1cmwub3JnL2RjL2VsZW1lbnRzLzEuMS8iIHhtbG5zOmlua3NjYXBlPSJodHRwOi8vd3d3Lmlua3NjYXBlLm9yZy9uYW1lc3BhY2VzL2lua3NjYXBlIiB4bWxuczpyZGY9Imh0dHA6Ly93d3cudzMub3JnLzE5OTkvMDIvMjItcmRmLXN5bnRheC1ucyMiIHhtbG5zOnNvZGlwb2RpPSJodHRwOi8vc29kaXBvZGkuc291cmNlZm9yZ2UubmV0L0RURC9zb2RpcG9kaS0wLmR0ZCIgeG1sbnM6c3ZnPSJodHRwOi8vd3d3LnczLm9yZy8yMDAwL3N2ZyIgeG1sbnM9Imh0dHA6Ly93d3cudzMub3JnLzIwMDAvc3ZnIiB4bWxuczp4bGluaz0iaHR0cDovL3d3dy53My5vcmcvMTk5OS94bGluayIgdmVyc2lvbj0iMS4xIiBpZD0ic3ZnMTM4NzI0IiBpbmtzY2FwZTp2ZXJzaW9uPSIwLjkyLjMgKDI0MDU1NDYsIDIwMTgtMDMtMTEpIiBzb2RpcG9kaTpkb2NuYW1lPSJhenVyZV92aXJ0dWFsX21hY2hpbmUuc3ZnIiB4PSIwcHgiIHk9IjBweCIgdmlld0JveD0iMCAwIDgwLjMzIDU5LjA2IiBzdHlsZT0iZW5hYmxlLWJhY2tncm91bmQ6bmV3IDAgMCA4MC4zMyA1OS4wNjsiIHhtbDpzcGFjZT0icHJlc2VydmUiPiYjeGE7PHNvZGlwb2RpOm5hbWVkdmlldyBib3JkZXJjb2xvcj0iIzY2NjY2NiIgYm9yZGVyb3BhY2l0eT0iMSIgZml0LW1hcmdpbi1ib3R0b209IjAiIGZpdC1tYXJnaW4tbGVmdD0iMCIgZml0LW1hcmdpbi1yaWdodD0iMCIgZml0LW1hcmdpbi10b3A9IjAiIGdyaWR0b2xlcmFuY2U9IjEwIiBndWlkZXRvbGVyYW5jZT0iMTAiIGlkPSJuYW1lZHZpZXcxMzg3MjYiIGlua3NjYXBlOmN1cnJlbnQtbGF5ZXI9InN2ZzEzODcyNCIgaW5rc2NhcGU6Y3g9IjUzLjUzMTY3NyIgaW5rc2NhcGU6Y3k9IjM5LjM3MTEzMyIgaW5rc2NhcGU6cGFnZW9wYWNpdHk9IjAiIGlua3NjYXBlOnBhZ2VzaGFkb3c9IjIiIGlua3NjYXBlOndpbmRvdy1oZWlnaHQ9IjEwMTciIGlua3NjYXBlOndpbmRvdy1tYXhpbWl6ZWQ9IjEiIGlua3NjYXBlOndpbmRvdy13aWR0aD0iMTkyMCIgaW5rc2NhcGU6d2luZG93LXg9Ii04IiBpbmtzY2FwZTp3aW5kb3cteT0iLTgiIGlua3NjYXBlOnpvb209IjEwLjczNjY4NyIgb2JqZWN0dG9sZXJhbmNlPSIxMCIgcGFnZWNvbG9yPSIjZmZmZmZmIiBzaG93Z3JpZD0iZmFsc2UiPiYjeGE7CTwvc29kaXBvZGk6bmFtZWR2aWV3PiYjeGE7PGcgaWQ9ImcxMzg3MjIiIHRyYW5zZm9ybT0idHJhbnNsYXRlKC0wLjc2MjAwMjY1LC0wLjc0OTk5NDI3KSI+JiN4YTsJPHRpdGxlIGlkPSJ0aXRsZTEzODY5MiI+UGFnZS0xPC90aXRsZT4mI3hhOwk8ZyBpZD0iZ3JvdXA4NjIyLTEiIHRyYW5zZm9ybT0idHJhbnNsYXRlKDAuNzUwMTI0LC0wLjc1MDkwNikiPiYjeGE7CQk8dGl0bGUgaWQ9InRpdGxlMTM4Njk0Ij5BenVyZSBWaXJ0dWFsIE1hY2hpbmU8L3RpdGxlPiYjeGE7CQk8ZyBpZD0ic2hhcGU4NjIzLTIiIHRyYW5zZm9ybT0idHJhbnNsYXRlKDI2LjUwNDcsLTcuNDc3NSkiPiYjeGE7CQkJPHRpdGxlIGlkPSJ0aXRsZTEzODY5NiI+cGF0aDYyMDM8L3RpdGxlPiYjeGE7CQkJPHBhdGggaWQ9InBhdGgxMzg2OTgiIGlua3NjYXBlOmNvbm5lY3Rvci1jdXJ2YXR1cmU9IjAiIHN0eWxlPSJmaWxsOiNDNkUxRjY7IiBkPSJNNDMuMjIsNjAuNTZIMTQuNjVjLTIuNzMsMC00LjQ2LDAtNS43My0wLjEzICAgICBIOC42N2MtMS0wLjEtMS45OC0wLjM3LTIuOS0wLjhsLTAuMTUtMC4wNmMtNC45MS0yLjMtNy4wMy04LjE1LTQuNzMtMTMuMDZjMS4yNi0yLjY5LDMuNjctNC42Nyw2LjU1LTUuMzggICAgIGMxLjQzLTAuMzQsMi45My0wLjM2LDQuMzctMC4wNmMxLjQ5LTQuMjMsNS40Ny03LjA3LDkuOTUtNy4xMmMxLjYxLTAuMDEsMy4yLDAuMzYsNC42NSwxLjA4YzEuODYtMy4wNSw1LjE3LTQuOTEsOC43NC00LjkyICAgICBjNS4xNiwwLjA5LDkuNSwzLjg5LDEwLjI2LDljNS44NSwxLjM1LDkuNSw3LjIsOC4xNCwxMy4wNWMtMC45NCw0LjA4LTQuMTUsNy4yNS04LjIzLDguMTZDNDQuNjMsNjAuNDgsNDMuOTMsNjAuNTYsNDMuMjIsNjAuNTZ6ICAgICAiLz4mI3hhOwkJPC9nPiYjeGE7CQk8ZyBpZD0ic2hhcGU4NjI0LTQiIHRyYW5zZm9ybT0idHJhbnNsYXRlKDMwLjQ4NTQsLTguODEyNSkiPiYjeGE7CQkJPHRpdGxlIGlkPSJ0aXRsZTEzODcwMSI+cmVjdDYyMDU8L3RpdGxlPiYjeGE7CQkJPHJlY3QgaWQ9InJlY3QxMzg3MDMiIHg9IjAiIHk9IjEwLjMxIiBzdHlsZT0iZmlsbDojMzMzMzMzOyIgd2lkdGg9IjMwLjc1IiBoZWlnaHQ9IjUwLjI1Ii8+JiN4YTsJCTwvZz4mI3hhOwkJPGcgaWQ9InNoYXBlODYyNS02IiB0cmFuc2Zvcm09InRyYW5zbGF0ZSgzNS43MzU0LC00OS4zMTI1KSI+JiN4YTsJCQk8dGl0bGUgaWQ9InRpdGxlMTM4NzA2Ij5yZWN0NjIwNzwvdGl0bGU+JiN4YTsJCQk8cmVjdCBpZD0icmVjdDEzODcwOCIgeD0iMCIgeT0iNTYuMDYiIHN0eWxlPSJmaWxsOiM5MDkwOTA7IiB3aWR0aD0iMjAuMjUiIGhlaWdodD0iNC41Ii8+JiN4YTsJCTwvZz4mI3hhOwkJPGcgaWQ9InNoYXBlODYyNi04IiB0cmFuc2Zvcm09InRyYW5zbGF0ZSgzNS43MzU0LC0zOS41NjI1KSI+JiN4YTsJCQk8dGl0bGUgaWQ9InRpdGxlMTM4NzExIj5yZWN0NjIwOTwvdGl0bGU+JiN4YTsJCQk8cmVjdCBpZD0icmVjdDEzODcxMyIgeD0iMCIgeT0iNTYuMDYiIHN0eWxlPSJmaWxsOiM5MDkwOTA7IiB3aWR0aD0iMjAuMjUiIGhlaWdodD0iNC41Ii8+JiN4YTsJCTwvZz4mI3hhOwkJPGcgaWQ9InNoYXBlODYyNy0xMCI+JiN4YTsJCQk8dGl0bGUgaWQ9InRpdGxlMTM4NzE2Ij5wYXRoNjIxOTwvdGl0bGU+JiN4YTsJCQk8cGF0aCBpZD0icGF0aDEzODcxOCIgaW5rc2NhcGU6Y29ubmVjdG9yLWN1cnZhdHVyZT0iMCIgc3R5bGU9ImZpbGw6I0FBRDJGMjsiIGQ9Ik0xMC40OSw2MC4yOUMzLjI2LDU4LjY2LTEuMjksNTEuNDgsMC4zNCw0NC4yNSAgICAgYzEuMTMtNS4wMiw1LjAzLTguOTUsMTAuMDQtMTAuMTNjMC45NC02LjMsNi4zLTExLDEyLjY3LTExLjFjNC40LDAuMDEsOC40OSwyLjMsMTAuNzksNi4wNmMxLjc3LTAuODgsMy43Mi0xLjM0LDUuNjktMS4zNCAgICAgYzUuNTMsMC4wNSwxMC40NCwzLjU1LDEyLjI5LDguNzZjMS43OC0wLjM4LDMuNjMtMC4zNSw1LjQsMC4wN2M2LjUxLDEuNTksMTAuNDksOC4xNSw4LjksMTQuNjZjLTAuODcsMy41Ny0zLjMyLDYuNTUtNi42NSw4LjExICAgICBsLTAuMTksMC4wOGMtMS4xMywwLjUzLTIuMzUsMC44Ni0zLjU5LDAuOThoLTAuM2MtMS41OCwwLjEzLTMuNzEsMC4xNi03LjA4LDAuMTZIMTMuMDZDMTIuMiw2MC41NywxMS4zMyw2MC40OCwxMC40OSw2MC4yOXoiLz4mI3hhOwkJPC9nPiYjeGE7CTwvZz4mI3hhOzwvZz4mI3hhOzwvc3ZnPg==;" vertex="1" parent="QX-P79LdTZ4ubuz_DQ_H-30">
          <mxGeometry x="209.9999999999999" y="59" width="80" height="59" as="geometry" />
        </mxCell>
        <mxCell id="QX-P79LdTZ4ubuz_DQ_H-18" style="edgeStyle=orthogonalEdgeStyle;rounded=0;orthogonalLoop=1;jettySize=auto;html=1;exitX=1;exitY=0.5;exitDx=0;exitDy=0;entryX=0;entryY=0.5;entryDx=0;entryDy=0;entryPerimeter=0;" edge="1" parent="QX-P79LdTZ4ubuz_DQ_H-30" source="QX-P79LdTZ4ubuz_DQ_H-12" target="QX-P79LdTZ4ubuz_DQ_H-8">
          <mxGeometry relative="1" as="geometry" />
        </mxCell>
        <mxCell id="QX-P79LdTZ4ubuz_DQ_H-26" style="edgeStyle=orthogonalEdgeStyle;rounded=0;orthogonalLoop=1;jettySize=auto;html=1;exitX=1;exitY=0.5;exitDx=0;exitDy=0;exitPerimeter=0;entryX=0;entryY=0.5;entryDx=0;entryDy=0;entryPerimeter=0;" edge="1" parent="QX-P79LdTZ4ubuz_DQ_H-30" source="QX-P79LdTZ4ubuz_DQ_H-8" target="QX-P79LdTZ4ubuz_DQ_H-13">
          <mxGeometry relative="1" as="geometry" />
        </mxCell>
        <mxCell id="QX-P79LdTZ4ubuz_DQ_H-29" style="edgeStyle=orthogonalEdgeStyle;rounded=0;orthogonalLoop=1;jettySize=auto;html=1;exitX=1;exitY=1;exitDx=0;exitDy=0;entryX=0.5;entryY=0;entryDx=0;entryDy=0;entryPerimeter=0;" edge="1" parent="QX-P79LdTZ4ubuz_DQ_H-30" source="QX-P79LdTZ4ubuz_DQ_H-15" target="QX-P79LdTZ4ubuz_DQ_H-9">
          <mxGeometry relative="1" as="geometry">
            <Array as="points">
              <mxPoint x="340" y="117.99999999999955" />
              <mxPoint x="340" y="118.99999999999955" />
              <mxPoint x="559" y="118.99999999999955" />
            </Array>
          </mxGeometry>
        </mxCell>
        <mxCell id="QX-P79LdTZ4ubuz_DQ_H-32" value="Corporate Datacenter" style="verticalLabelPosition=bottom;verticalAlign=top;html=1;shape=mxgraph.basic.patternFillRect;fillStyle=diag;step=5;fillStrokeWidth=0.2;fillStrokeColor=#dddddd;opacity=30;fillColor=#dae8fc;strokeColor=#6c8ebf;" vertex="1" parent="1">
          <mxGeometry x="40" y="229" width="280" height="270" as="geometry" />
        </mxCell>
        <mxCell id="QX-P79LdTZ4ubuz_DQ_H-34" value="Corporate Database" style="shape=image;verticalLabelPosition=bottom;labelBackgroundColor=#ffffff;verticalAlign=top;aspect=fixed;imageAspect=0;image=data:image/svg+xml,PHN2ZyB4bWxuczpjYz0iaHR0cDovL2NyZWF0aXZlY29tbW9ucy5vcmcvbnMjIiB4bWxuczpkYz0iaHR0cDovL3B1cmwub3JnL2RjL2VsZW1lbnRzLzEuMS8iIHhtbG5zOmlua3NjYXBlPSJodHRwOi8vd3d3Lmlua3NjYXBlLm9yZy9uYW1lc3BhY2VzL2lua3NjYXBlIiB4bWxuczpyZGY9Imh0dHA6Ly93d3cudzMub3JnLzE5OTkvMDIvMjItcmRmLXN5bnRheC1ucyMiIHhtbG5zOnNvZGlwb2RpPSJodHRwOi8vc29kaXBvZGkuc291cmNlZm9yZ2UubmV0L0RURC9zb2RpcG9kaS0wLmR0ZCIgeG1sbnM6c3ZnPSJodHRwOi8vd3d3LnczLm9yZy8yMDAwL3N2ZyIgeG1sbnM9Imh0dHA6Ly93d3cudzMub3JnLzIwMDAvc3ZnIiB4bWxuczp4bGluaz0iaHR0cDovL3d3dy53My5vcmcvMTk5OS94bGluayIgdmVyc2lvbj0iMS4xIiBpZD0ic3ZnMjU2MTM1IiBpbmtzY2FwZTp2ZXJzaW9uPSIwLjkyLjMgKDI0MDU1NDYsIDIwMTgtMDMtMTEpIiBzb2RpcG9kaTpkb2NuYW1lPSJkYXRhYmFzZV9zZXJ2ZXIuc3ZnIiB4PSIwcHgiIHk9IjBweCIgdmlld0JveD0iMCAwIDQ4LjQxIDY5Ljc2IiBzdHlsZT0iZW5hYmxlLWJhY2tncm91bmQ6bmV3IDAgMCA0OC40MSA2OS43NjsiIHhtbDpzcGFjZT0icHJlc2VydmUiPiYjeGE7PHNvZGlwb2RpOm5hbWVkdmlldyBib3JkZXJjb2xvcj0iIzY2NjY2NiIgYm9yZGVyb3BhY2l0eT0iMSIgZml0LW1hcmdpbi1ib3R0b209IjAiIGZpdC1tYXJnaW4tbGVmdD0iMCIgZml0LW1hcmdpbi1yaWdodD0iMCIgZml0LW1hcmdpbi10b3A9IjAiIGdyaWR0b2xlcmFuY2U9IjEwIiBndWlkZXRvbGVyYW5jZT0iMTAiIGlkPSJuYW1lZHZpZXcyNTYxMzciIGlua3NjYXBlOmN1cnJlbnQtbGF5ZXI9InN2ZzI1NjEzNSIgaW5rc2NhcGU6Y3g9IjMyLjE5MDg5NyIgaW5rc2NhcGU6Y3k9IjQ2LjUwODM0NiIgaW5rc2NhcGU6cGFnZW9wYWNpdHk9IjAiIGlua3NjYXBlOnBhZ2VzaGFkb3c9IjIiIGlua3NjYXBlOndpbmRvdy1oZWlnaHQ9IjEwMTciIGlua3NjYXBlOndpbmRvdy1tYXhpbWl6ZWQ9IjEiIGlua3NjYXBlOndpbmRvdy13aWR0aD0iMTkyMCIgaW5rc2NhcGU6d2luZG93LXg9Ii04IiBpbmtzY2FwZTp3aW5kb3cteT0iLTgiIGlua3NjYXBlOnpvb209IjkuMTI1MzY4OSIgb2JqZWN0dG9sZXJhbmNlPSIxMCIgcGFnZWNvbG9yPSIjZmZmZmZmIiBzaG93Z3JpZD0iZmFsc2UiPiYjeGE7CTwvc29kaXBvZGk6bmFtZWR2aWV3PiYjeGE7PGcgaWQ9ImcyNTYxMzMiIHRyYW5zZm9ybT0idHJhbnNsYXRlKC0wLjc1LC0wLjc1MDAzODc4KSI+JiN4YTsJPHRpdGxlIGlkPSJ0aXRsZTI1NjAxNiI+UGFnZS0xPC90aXRsZT4mI3hhOwk8ZyBpZD0iZ3JvdXAxMDk0OC0xIiB0cmFuc2Zvcm09InRyYW5zbGF0ZSgxLjUsLTEuNSkiPiYjeGE7CQk8dGl0bGUgaWQ9InRpdGxlMjU2MDE4Ij5EYXRhYmFzZSBTZXJ2ZXI8L3RpdGxlPiYjeGE7CQk8ZyBpZD0iZ3JvdXAxMDk0OS0yIj4mI3hhOwkJCTx0aXRsZSBpZD0idGl0bGUyNTYwMjAiPkRhdGFiYXNlIFNlcnZlcjwvdGl0bGU+JiN4YTsJCQk8ZyBpZD0iZ3JvdXAxMDk1MC0zIj4mI3hhOwkJCQk8dGl0bGUgaWQ9InRpdGxlMjU2MDIyIj5HZW5lcmljIFNlcnZpY2U8L3RpdGxlPiYjeGE7CQkJCTxnIGlkPSJncm91cDEwOTUxLTQiIHRyYW5zZm9ybT0idHJhbnNsYXRlKDAsLTAuMDA3Mzk4NzYpIj4mI3hhOwkJCQkJPHRpdGxlIGlkPSJ0aXRsZTI1NjAyNCI+ZzE1NDMzLjExNzIxPC90aXRsZT4mI3hhOwkJCQkJPGcgaWQ9InNoYXBlMTA5NTItNSI+JiN4YTsJCQkJCQk8dGl0bGUgaWQ9InRpdGxlMjU2MDI2Ij5yZWN0MTU0MDU8L3RpdGxlPiYjeGE7CQkJCQkJJiN4YTsJCQkJCQkJPHJlY3QgaWQ9InJlY3QyNTYwMjgiIHk9IjMuMDEiIHN0eWxlPSJmaWxsOiNGRkZGRkY7c3Ryb2tlOiM1NTZBOEE7c3Ryb2tlLXdpZHRoOjEuNTtzdHJva2UtbWl0ZXJsaW1pdDozOyIgd2lkdGg9IjM5Ljc1IiBoZWlnaHQ9IjY4LjI1Ii8+JiN4YTsJCQkJCTwvZz4mI3hhOwkJCQkJPGcgaWQ9Imdyb3VwMTA5NTMtNyIgdHJhbnNmb3JtPSJ0cmFuc2xhdGUoMS41LC0wLjc1KSI+JiN4YTsJCQkJCQk8dGl0bGUgaWQ9InRpdGxlMjU2MDMxIj5nMTU0MjU8L3RpdGxlPiYjeGE7CQkJCQkJPGcgaWQ9InNoYXBlMTA5NTQtOCIgdHJhbnNmb3JtPSJ0cmFuc2xhdGUoMTgpIj4mI3hhOwkJCQkJCQk8dGl0bGUgaWQ9InRpdGxlMjU2MDMzIj5yZWN0MTU0MDc8L3RpdGxlPiYjeGE7CQkJCQkJCTxyZWN0IGlkPSJyZWN0MjU2MDM1IiB5PSI0LjUxIiBzdHlsZT0iZmlsbDojRTVFNUU1OyIgd2lkdGg9IjE5LjUiIGhlaWdodD0iNjYuNzUiLz4mI3hhOwkJCQkJCTwvZz4mI3hhOwkJCQkJCTxnIGlkPSJzaGFwZTEwOTU1LTEwIiB0cmFuc2Zvcm09InRyYW5zbGF0ZSgwLC00OCkiPiYjeGE7CQkJCQkJCTx0aXRsZSBpZD0idGl0bGUyNTYwMzgiPnJlY3QxNTQwOTwvdGl0bGU+JiN4YTsJCQkJCQkJPHJlY3QgaWQ9InJlY3QyNTYwNDAiIHk9IjY5LjAxIiBzdHlsZT0iZmlsbDojMkJDN0Y0OyIgd2lkdGg9IjE4IiBoZWlnaHQ9IjIuMjUiLz4mI3hhOwkJCQkJCTwvZz4mI3hhOwkJCQkJCTxnIGlkPSJzaGFwZTEwOTU2LTEyIiB0cmFuc2Zvcm09InRyYW5zbGF0ZSgwLC01OC41KSI+JiN4YTsJCQkJCQkJPHRpdGxlIGlkPSJ0aXRsZTI1NjA0MyI+cG9seWdvbjE1NDExPC90aXRsZT4mI3hhOwkJCQkJCQk8cmVjdCBpZD0icmVjdDI1NjA0NSIgeT0iNjkuMDEiIHN0eWxlPSJmaWxsOm5vbmU7IiB3aWR0aD0iMjciIGhlaWdodD0iMi4yNSIvPiYjeGE7CQkJCQkJPC9nPiYjeGE7CQkJCQkJPGcgaWQ9InNoYXBlMTA5NTctMTQiIHRyYW5zZm9ybT0idHJhbnNsYXRlKDAsLTU4LjUpIj4mI3hhOwkJCQkJCQk8dGl0bGUgaWQ9InRpdGxlMjU2MDQ4Ij5wb2x5bGluZTE1NDEzPC90aXRsZT4mI3hhOwkJCQkJCQk8cmVjdCBpZD0icmVjdDI1NjA1MCIgeT0iNjkuMDEiIHN0eWxlPSJmaWxsOm5vbmU7IiB3aWR0aD0iMjciIGhlaWdodD0iMi4yNSIvPiYjeGE7CQkJCQkJPC9nPiYjeGE7CQkJCQkJPGcgaWQ9InNoYXBlMTA5NTgtMTYiIHRyYW5zZm9ybT0idHJhbnNsYXRlKDAsLTUzLjI1KSI+JiN4YTsJCQkJCQkJPHRpdGxlIGlkPSJ0aXRsZTI1NjA1MyI+cmVjdDE1NDE1PC90aXRsZT4mI3hhOwkJCQkJCQk8cmVjdCBpZD0icmVjdDI1NjA1NSIgeT0iNjkuMDEiIHN0eWxlPSJmaWxsOiMyQkM3RjQ7IiB3aWR0aD0iMTgiIGhlaWdodD0iMi4yNSIvPiYjeGE7CQkJCQkJPC9nPiYjeGE7CQkJCQkJPGcgaWQ9InNoYXBlMTA5NTktMTgiIHRyYW5zZm9ybT0idHJhbnNsYXRlKDAsLTU4LjUpIj4mI3hhOwkJCQkJCQk8dGl0bGUgaWQ9InRpdGxlMjU2MDU4Ij5yZWN0MTU0MTc8L3RpdGxlPiYjeGE7CQkJCQkJCTxyZWN0IGlkPSJyZWN0MjU2MDYwIiB5PSI2OS4wMSIgc3R5bGU9ImZpbGw6IzJCQzdGNDsiIHdpZHRoPSIxOCIgaGVpZ2h0PSIyLjI1Ii8+JiN4YTsJCQkJCQk8L2c+JiN4YTsJCQkJCQk8ZyBpZD0ic2hhcGUxMDk2MC0yMCIgdHJhbnNmb3JtPSJ0cmFuc2xhdGUoMTgsLTQ4KSI+JiN4YTsJCQkJCQkJPHRpdGxlIGlkPSJ0aXRsZTI1NjA2MyI+cmVjdDE1NDE5PC90aXRsZT4mI3hhOwkJCQkJCQk8cmVjdCBpZD0icmVjdDI1NjA2NSIgeT0iNjkuMDEiIHN0eWxlPSJmaWxsOiM1NTZBOEE7IiB3aWR0aD0iMTkuNSIgaGVpZ2h0PSIyLjI1Ii8+JiN4YTsJCQkJCQk8L2c+JiN4YTsJCQkJCQk8ZyBpZD0ic2hhcGUxMDk2MS0yMiIgdHJhbnNmb3JtPSJ0cmFuc2xhdGUoMTgsLTUzLjI1KSI+JiN4YTsJCQkJCQkJPHRpdGxlIGlkPSJ0aXRsZTI1NjA2OCI+cmVjdDE1NDIxPC90aXRsZT4mI3hhOwkJCQkJCQk8cmVjdCBpZD0icmVjdDI1NjA3MCIgeT0iNjkuMDEiIHN0eWxlPSJmaWxsOiM1NTZBOEE7IiB3aWR0aD0iMTkuNSIgaGVpZ2h0PSIyLjI1Ii8+JiN4YTsJCQkJCQk8L2c+JiN4YTsJCQkJCQk8ZyBpZD0ic2hhcGUxMDk2Mi0yNCIgdHJhbnNmb3JtPSJ0cmFuc2xhdGUoMTgsLTU4LjUpIj4mI3hhOwkJCQkJCQk8dGl0bGUgaWQ9InRpdGxlMjU2MDczIj5yZWN0MTU0MjM8L3RpdGxlPiYjeGE7CQkJCQkJCTxyZWN0IGlkPSJyZWN0MjU2MDc1IiB5PSI2OS4wMSIgc3R5bGU9ImZpbGw6IzU1NkE4QTsiIHdpZHRoPSIxOS41IiBoZWlnaHQ9IjIuMjUiLz4mI3hhOwkJCQkJCTwvZz4mI3hhOwkJCQkJPC9nPiYjeGE7CQkJCQk8ZyBpZD0ic2hhcGUxMDk2My0yNiIgdHJhbnNmb3JtPSJ0cmFuc2xhdGUoMC43NSwtNTkuMjUpIj4mI3hhOwkJCQkJCTx0aXRsZSBpZD0idGl0bGUyNTYwNzkiPnJlY3QxNTQyNzwvdGl0bGU+JiN4YTsJCQkJCQk8cmVjdCBpZD0icmVjdDI1NjA4MSIgeT0iNjkuMDEiIHN0eWxlPSJmaWxsOiM1NTZBOEE7IiB3aWR0aD0iMi4yNSIgaGVpZ2h0PSIyLjI1Ii8+JiN4YTsJCQkJCTwvZz4mI3hhOwkJCQkJPGcgaWQ9InNoYXBlMTA5NjQtMjgiIHRyYW5zZm9ybT0idHJhbnNsYXRlKDAuNzUsLTU0KSI+JiN4YTsJCQkJCQk8dGl0bGUgaWQ9InRpdGxlMjU2MDg0Ij5yZWN0MTU0Mjk8L3RpdGxlPiYjeGE7CQkJCQkJPHJlY3QgaWQ9InJlY3QyNTYwODYiIHk9IjY5LjAxIiBzdHlsZT0iZmlsbDojNTU2QThBOyIgd2lkdGg9IjIuMjUiIGhlaWdodD0iMi4yNSIvPiYjeGE7CQkJCQk8L2c+JiN4YTsJCQkJCTxnIGlkPSJzaGFwZTEwOTY1LTMwIiB0cmFuc2Zvcm09InRyYW5zbGF0ZSgwLjc1LC00OC43NSkiPiYjeGE7CQkJCQkJPHRpdGxlIGlkPSJ0aXRsZTI1NjA4OSI+cmVjdDE1NDMxPC90aXRsZT4mI3hhOwkJCQkJCTxyZWN0IGlkPSJyZWN0MjU2MDkxIiB5PSI2OS4wMSIgc3R5bGU9ImZpbGw6IzU1NkE4QTsiIHdpZHRoPSIyLjI1IiBoZWlnaHQ9IjIuMjUiLz4mI3hhOwkJCQkJPC9nPiYjeGE7CQkJCTwvZz4mI3hhOwkJCQk8ZyBpZD0ic2hhcGUxMDk2Ni0zMiIgdHJhbnNmb3JtPSJ0cmFuc2xhdGUoMTMuNjk4MykiPiYjeGE7CQkJCQk8dGl0bGUgaWQ9InRpdGxlMjU2MDk1Ij5wb2x5Z29uMTU0MzUuMTE3Mzc8L3RpdGxlPiYjeGE7CQkJCQkmI3hhOwkJCQkJCTxwYXRoIGlkPSJwYXRoMjU2MDk3IiBpbmtzY2FwZTpjb25uZWN0b3ItY3VydmF0dXJlPSIwIiBzdHlsZT0iZmlsbDojRkZGRkZGO3N0cm9rZTojNTU2QThBO3N0cm9rZS13aWR0aDoxLjU7c3Ryb2tlLW1pdGVybGltaXQ6MzsiIGQ9IiAgICAgICBNOC4yNyw3MS4yNkwwLDU3LjAybDguMjctMTQuMjNoMTYuNTVsOC4yNywxNC4yM2wtOC4yNywxNC4yNEg4LjI3eiIvPiYjeGE7CQkJCTwvZz4mI3hhOwkJCTwvZz4mI3hhOwkJPC9nPiYjeGE7CQk8ZyBpZD0iZ3JvdXAxMDk2Ny0zNCIgdHJhbnNmb3JtPSJ0cmFuc2xhdGUoMjIuMDM2NiwtMy44NjEzMykiPiYjeGE7CQkJPHRpdGxlIGlkPSJ0aXRsZTI1NjEwMiI+U2hlZXQuMTA5Njc8L3RpdGxlPiYjeGE7CQkJPGcgaWQ9Imdyb3VwMTA5NjgtMzUiPiYjeGE7CQkJCTx0aXRsZSBpZD0idGl0bGUyNTYxMDQiPmcxNDUwPC90aXRsZT4mI3hhOwkJCQk8ZyBpZD0ic2hhcGUxMDk2OS0zNiI+JiN4YTsJCQkJCTx0aXRsZSBpZD0idGl0bGUyNTYxMDYiPnBhdGgxNDQyPC90aXRsZT4mI3hhOwkJCQkJPHBhdGggaWQ9InBhdGgyNTYxMDgiIGlua3NjYXBlOmNvbm5lY3Rvci1jdXJ2YXR1cmU9IjAiIHN0eWxlPSJmaWxsOiNGRkZGRkY7IiBkPSJNMTQuNzUsNTIuNmwtNC44LDAuMDVMMCw1Mi43M3YxNS40OSAgICAgICBjMCwxLjU5LDMuNDgsMi45NSw4LjAxLDMuMDRoMC4xN2MwLjYxLDAsMS4yLTAuMDQsMS43Ny0wLjA5YzEuNjYtMC4xLDMuMjgtMC41LDQuOC0xLjE4YzEuMDItMC41MSwxLjYxLTEuMTMsMS42MS0xLjc3VjUyLjU5ICAgICAgIEwxNC43NSw1Mi42eiIvPiYjeGE7CQkJCTwvZz4mI3hhOwkJCQk8ZyBpZD0ic2hhcGUxMDk3MC0zOCIgdHJhbnNmb3JtPSJ0cmFuc2xhdGUoOS45NTEzNCwtMC4wOTc0NTk4KSI+JiN4YTsJCQkJCTx0aXRsZSBpZD0idGl0bGUyNTYxMTEiPnBhdGgxNDQ0PC90aXRsZT4mI3hhOwkJCQkJPHBhdGggaWQ9InBhdGgyNTYxMTMiIGlua3NjYXBlOmNvbm5lY3Rvci1jdXJ2YXR1cmU9IjAiIHN0eWxlPSJmaWxsOiNFNUU1RTU7IiBkPSJNNC44LDUyLjd2MTcuMzggICAgICAgYy0xLjUyLDAuNjgtMy4xNCwxLjA4LTQuOCwxLjE4VjUyLjc0TDQuOCw1Mi43eiIvPiYjeGE7CQkJCTwvZz4mI3hhOwkJCQk8ZyBpZD0ic2hhcGUxMDk3MS00MCI+JiN4YTsJCQkJCTx0aXRsZSBpZD0idGl0bGUyNTYxMTYiPnBhdGgxNDQ2PC90aXRsZT4mI3hhOwkJCQkJPHBhdGggaWQ9InBhdGgyNTYxMTgiIGlua3NjYXBlOmNvbm5lY3Rvci1jdXJ2YXR1cmU9IjAiIHN0eWxlPSJmaWxsOm5vbmU7IiBkPSJNMCw1Mi43M3YxNS40OWMwLDEuNTksMy40NiwyLjk1LDguMDEsMy4wNGgwLjE3ICAgICAgIGM0LjYzLTAuMDYsOC4xOC0xLjQ0LDguMTgtMy4wNFY1Mi41OUwwLDUyLjczeiIvPiYjeGE7CQkJCQkmI3hhOwkJCQkJCTxwYXRoIGlkPSJwYXRoMjU2MTIwIiBpbmtzY2FwZTpjb25uZWN0b3ItY3VydmF0dXJlPSIwIiBzdHlsZT0iZmlsbDpub25lO3N0cm9rZTojNTU2QThBO3N0cm9rZS13aWR0aDoxLjU7c3Ryb2tlLW1pdGVybGltaXQ6MzsiIGQ9IiAgICAgICBNMCw1Mi43M3YxNS40OWMwLDEuNTksMy40NiwyLjk1LDguMDEsMy4wNGgwLjE3YzQuNjMtMC4wNiw4LjE4LTEuNDQsOC4xOC0zLjA0VjUyLjU5Ii8+JiN4YTsJCQkJPC9nPiYjeGE7CQkJCTxnIGlkPSJzaGFwZTEwOTcyLTQzIiB0cmFuc2Zvcm09InRyYW5zbGF0ZSgwLjAyMDg4NDIsLTE1LjUzMDkpIj4mI3hhOwkJCQkJPHRpdGxlIGlkPSJ0aXRsZTI1NjEyMyI+cGF0aDE0NDg8L3RpdGxlPiYjeGE7CQkJCQk8cGF0aCBpZD0icGF0aDI1NjEyNSIgaW5rc2NhcGU6Y29ubmVjdG9yLWN1cnZhdHVyZT0iMCIgc3R5bGU9ImZpbGw6IzU1RDJGNjsiIGQ9Ik0xNi4zNiw2OC4zYzAsMS42My0zLjY2LDIuOTYtOC4xOCwyLjk2ICAgICAgIFMwLDY5LjkzLDAsNjguM3MzLjc3LTIuOTUsOC4yOS0yLjk1czguMDcsMS4zMiw4LjA3LDIuOTZWNjguM3oiLz4mI3hhOwkJCQkJJiN4YTsJCQkJCQk8cGF0aCBpZD0icGF0aDI1NjEyNyIgaW5rc2NhcGU6Y29ubmVjdG9yLWN1cnZhdHVyZT0iMCIgc3R5bGU9ImZpbGw6bm9uZTtzdHJva2U6IzU1NkE4QTtzdHJva2Utd2lkdGg6MS41O3N0cm9rZS1taXRlcmxpbWl0OjM7IiBkPSIgICAgICAgTTE2LjM2LDY4LjNjMCwxLjYzLTMuNjYsMi45Ni04LjE4LDIuOTZTMCw2OS45MywwLDY4LjNzMy43Ny0yLjk1LDguMjktMi45NXM4LjA3LDEuMzIsOC4wNywyLjk2Ii8+JiN4YTsJCQkJPC9nPiYjeGE7CQkJPC9nPiYjeGE7CQk8L2c+JiN4YTsJPC9nPiYjeGE7PC9nPiYjeGE7PC9zdmc+;" vertex="1" parent="1">
          <mxGeometry x="100" y="389" width="48" height="70" as="geometry" />
        </mxCell>
        <mxCell id="QX-P79LdTZ4ubuz_DQ_H-36" value="Active Directory" style="shape=image;verticalLabelPosition=bottom;labelBackgroundColor=#ffffff;verticalAlign=top;aspect=fixed;imageAspect=0;image=data:image/svg+xml,PHN2ZyB4bWxuczpjYz0iaHR0cDovL2NyZWF0aXZlY29tbW9ucy5vcmcvbnMjIiB4bWxuczpkYz0iaHR0cDovL3B1cmwub3JnL2RjL2VsZW1lbnRzLzEuMS8iIHhtbG5zOmlua3NjYXBlPSJodHRwOi8vd3d3Lmlua3NjYXBlLm9yZy9uYW1lc3BhY2VzL2lua3NjYXBlIiB4bWxuczpyZGY9Imh0dHA6Ly93d3cudzMub3JnLzE5OTkvMDIvMjItcmRmLXN5bnRheC1ucyMiIHhtbG5zOnNvZGlwb2RpPSJodHRwOi8vc29kaXBvZGkuc291cmNlZm9yZ2UubmV0L0RURC9zb2RpcG9kaS0wLmR0ZCIgeG1sbnM6c3ZnPSJodHRwOi8vd3d3LnczLm9yZy8yMDAwL3N2ZyIgeG1sbnM9Imh0dHA6Ly93d3cudzMub3JnLzIwMDAvc3ZnIiB4bWxuczp4bGluaz0iaHR0cDovL3d3dy53My5vcmcvMTk5OS94bGluayIgdmVyc2lvbj0iMS4xIiBpZD0ic3ZnMTMzNTMxIiBpbmtzY2FwZTp2ZXJzaW9uPSIwLjkyLjMgKDI0MDU1NDYsIDIwMTgtMDMtMTEpIiBzb2RpcG9kaTpkb2NuYW1lPSJhZF9kbnNfc2VydmVyLnN2ZyIgeD0iMHB4IiB5PSIwcHgiIHZpZXdCb3g9IjAgMCA1NC40MiA2OS43NSIgc3R5bGU9ImVuYWJsZS1iYWNrZ3JvdW5kOm5ldyAwIDAgNTQuNDIgNjkuNzU7IiB4bWw6c3BhY2U9InByZXNlcnZlIj4mI3hhOzxzb2RpcG9kaTpuYW1lZHZpZXcgYm9yZGVyY29sb3I9IiM2NjY2NjYiIGJvcmRlcm9wYWNpdHk9IjEiIGZpdC1tYXJnaW4tYm90dG9tPSIwIiBmaXQtbWFyZ2luLWxlZnQ9IjAiIGZpdC1tYXJnaW4tcmlnaHQ9IjAiIGZpdC1tYXJnaW4tdG9wPSIwIiBncmlkdG9sZXJhbmNlPSIxMCIgZ3VpZGV0b2xlcmFuY2U9IjEwIiBpZD0ibmFtZWR2aWV3MTMzNTMzIiBpbmtzY2FwZTpjdXJyZW50LWxheWVyPSJzdmcxMzM1MzEiIGlua3NjYXBlOmN4PSI0My45Mzg1MTkiIGlua3NjYXBlOmN5PSI0Mi4yNjk0NDQiIGlua3NjYXBlOnBhZ2VvcGFjaXR5PSIwIiBpbmtzY2FwZTpwYWdlc2hhZG93PSIyIiBpbmtzY2FwZTp3aW5kb3ctaGVpZ2h0PSIxMDE3IiBpbmtzY2FwZTp3aW5kb3ctbWF4aW1pemVkPSIxIiBpbmtzY2FwZTp3aW5kb3ctd2lkdGg9IjE5MjAiIGlua3NjYXBlOndpbmRvdy14PSItOCIgaW5rc2NhcGU6d2luZG93LXk9Ii04IiBpbmtzY2FwZTp6b29tPSI4LjM4MDAzNyIgb2JqZWN0dG9sZXJhbmNlPSIxMCIgcGFnZWNvbG9yPSIjZmZmZmZmIiBzaG93Z3JpZD0iZmFsc2UiPiYjeGE7CTwvc29kaXBvZGk6bmFtZWR2aWV3PiYjeGE7PGcgaWQ9ImcxMzM1MjkiIHRyYW5zZm9ybT0idHJhbnNsYXRlKC0wLjc1MDE0MTUxLC0wLjc0OTk4OTk0KSI+JiN4YTsJPHRpdGxlIGlkPSJ0aXRsZTEzMzQwMiI+UGFnZS0xPC90aXRsZT4mI3hhOwk8ZyBpZD0iZ3JvdXA4MjY4LTEiIHRyYW5zZm9ybT0idHJhbnNsYXRlKDEuNSwtNy44NDU0NykiPiYjeGE7CQk8dGl0bGUgaWQ9InRpdGxlMTMzNDA0Ij5BRC9ETlMgU2VydmVyPC90aXRsZT4mI3hhOwkJPGcgaWQ9Imdyb3VwODI2OS0yIj4mI3hhOwkJCTx0aXRsZSBpZD0idGl0bGUxMzM0MDYiPlNoZWV0LjgyNjk8L3RpdGxlPiYjeGE7CQkJPGcgaWQ9Imdyb3VwODI3MC0zIj4mI3hhOwkJCQk8dGl0bGUgaWQ9InRpdGxlMTMzNDA4Ij5nMTY0MDg8L3RpdGxlPiYjeGE7CQkJCTxnIGlkPSJzaGFwZTgyNzEtNCI+JiN4YTsJCQkJCTx0aXRsZSBpZD0idGl0bGUxMzM0MTAiPnJlY3QxNjM4MDwvdGl0bGU+JiN4YTsJCQkJCSYjeGE7CQkJCQkJPHJlY3QgaWQ9InJlY3QxMzM0MTIiIHg9IjAiIHk9IjkuMzUiIHN0eWxlPSJmaWxsOiNGRkZGRkY7c3Ryb2tlOiM1NTZBOEE7c3Ryb2tlLXdpZHRoOjEuNTtzdHJva2UtbWl0ZXJsaW1pdDozOyIgd2lkdGg9IjM5Ljc1IiBoZWlnaHQ9IjY4LjI1Ii8+JiN4YTsJCQkJPC9nPiYjeGE7CQkJCTxnIGlkPSJncm91cDgyNzItNiIgdHJhbnNmb3JtPSJ0cmFuc2xhdGUoMS41LC0wLjc1KSI+JiN4YTsJCQkJCTx0aXRsZSBpZD0idGl0bGUxMzM0MTUiPmcxNjQwMDwvdGl0bGU+JiN4YTsJCQkJCTxnIGlkPSJzaGFwZTgyNzMtNyIgdHJhbnNmb3JtPSJ0cmFuc2xhdGUoMTgpIj4mI3hhOwkJCQkJCTx0aXRsZSBpZD0idGl0bGUxMzM0MTciPnJlY3QxNjM4MjwvdGl0bGU+JiN4YTsJCQkJCQk8cmVjdCBpZD0icmVjdDEzMzQxOSIgeD0iMCIgeT0iMTAuODUiIHN0eWxlPSJmaWxsOiNFNUU1RTU7IiB3aWR0aD0iMTkuNSIgaGVpZ2h0PSI2Ni43NSIvPiYjeGE7CQkJCQk8L2c+JiN4YTsJCQkJCTxnIGlkPSJzaGFwZTgyNzQtOSIgdHJhbnNmb3JtPSJ0cmFuc2xhdGUoMCwtNDgpIj4mI3hhOwkJCQkJCTx0aXRsZSBpZD0idGl0bGUxMzM0MjIiPnJlY3QxNjM4NDwvdGl0bGU+JiN4YTsJCQkJCQk8cmVjdCBpZD0icmVjdDEzMzQyNCIgeD0iMCIgeT0iNzUuMzUiIHN0eWxlPSJmaWxsOiMyQkM3RjQ7IiB3aWR0aD0iMTgiIGhlaWdodD0iMi4yNSIvPiYjeGE7CQkJCQk8L2c+JiN4YTsJCQkJCTxnIGlkPSJzaGFwZTgyNzUtMTEiIHRyYW5zZm9ybT0idHJhbnNsYXRlKDAsLTU4LjUpIj4mI3hhOwkJCQkJCTx0aXRsZSBpZD0idGl0bGUxMzM0MjciPnBvbHlnb24xNjM4NjwvdGl0bGU+JiN4YTsJCQkJCQk8cmVjdCBpZD0icmVjdDEzMzQyOSIgeD0iMCIgeT0iNzUuMzUiIHN0eWxlPSJmaWxsOm5vbmU7IiB3aWR0aD0iMjciIGhlaWdodD0iMi4yNSIvPiYjeGE7CQkJCQk8L2c+JiN4YTsJCQkJCTxnIGlkPSJzaGFwZTgyNzYtMTMiIHRyYW5zZm9ybT0idHJhbnNsYXRlKDAsLTU4LjUpIj4mI3hhOwkJCQkJCTx0aXRsZSBpZD0idGl0bGUxMzM0MzIiPnBvbHlsaW5lMTYzODg8L3RpdGxlPiYjeGE7CQkJCQkJPHJlY3QgaWQ9InJlY3QxMzM0MzQiIHg9IjAiIHk9Ijc1LjM1IiBzdHlsZT0iZmlsbDpub25lOyIgd2lkdGg9IjI3IiBoZWlnaHQ9IjIuMjUiLz4mI3hhOwkJCQkJPC9nPiYjeGE7CQkJCQk8ZyBpZD0ic2hhcGU4Mjc3LTE1IiB0cmFuc2Zvcm09InRyYW5zbGF0ZSgwLC01My4yNSkiPiYjeGE7CQkJCQkJPHRpdGxlIGlkPSJ0aXRsZTEzMzQzNyI+cmVjdDE2MzkwPC90aXRsZT4mI3hhOwkJCQkJCTxyZWN0IGlkPSJyZWN0MTMzNDM5IiB4PSIwIiB5PSI3NS4zNSIgc3R5bGU9ImZpbGw6IzJCQzdGNDsiIHdpZHRoPSIxOCIgaGVpZ2h0PSIyLjI1Ii8+JiN4YTsJCQkJCTwvZz4mI3hhOwkJCQkJPGcgaWQ9InNoYXBlODI3OC0xNyIgdHJhbnNmb3JtPSJ0cmFuc2xhdGUoMCwtNTguNSkiPiYjeGE7CQkJCQkJPHRpdGxlIGlkPSJ0aXRsZTEzMzQ0MiI+cmVjdDE2MzkyPC90aXRsZT4mI3hhOwkJCQkJCTxyZWN0IGlkPSJyZWN0MTMzNDQ0IiB4PSIwIiB5PSI3NS4zNSIgc3R5bGU9ImZpbGw6IzJCQzdGNDsiIHdpZHRoPSIxOCIgaGVpZ2h0PSIyLjI1Ii8+JiN4YTsJCQkJCTwvZz4mI3hhOwkJCQkJPGcgaWQ9InNoYXBlODI3OS0xOSIgdHJhbnNmb3JtPSJ0cmFuc2xhdGUoMTgsLTQ4KSI+JiN4YTsJCQkJCQk8dGl0bGUgaWQ9InRpdGxlMTMzNDQ3Ij5yZWN0MTYzOTQ8L3RpdGxlPiYjeGE7CQkJCQkJPHJlY3QgaWQ9InJlY3QxMzM0NDkiIHg9IjAiIHk9Ijc1LjM1IiBzdHlsZT0iZmlsbDojNTU2QThBOyIgd2lkdGg9IjE5LjUiIGhlaWdodD0iMi4yNSIvPiYjeGE7CQkJCQk8L2c+JiN4YTsJCQkJCTxnIGlkPSJzaGFwZTgyODAtMjEiIHRyYW5zZm9ybT0idHJhbnNsYXRlKDE4LC01My4yNSkiPiYjeGE7CQkJCQkJPHRpdGxlIGlkPSJ0aXRsZTEzMzQ1MiI+cmVjdDE2Mzk2PC90aXRsZT4mI3hhOwkJCQkJCTxyZWN0IGlkPSJyZWN0MTMzNDU0IiB4PSIwIiB5PSI3NS4zNSIgc3R5bGU9ImZpbGw6IzU1NkE4QTsiIHdpZHRoPSIxOS41IiBoZWlnaHQ9IjIuMjUiLz4mI3hhOwkJCQkJPC9nPiYjeGE7CQkJCQk8ZyBpZD0ic2hhcGU4MjgxLTIzIiB0cmFuc2Zvcm09InRyYW5zbGF0ZSgxOCwtNTguNSkiPiYjeGE7CQkJCQkJPHRpdGxlIGlkPSJ0aXRsZTEzMzQ1NyI+cmVjdDE2Mzk4PC90aXRsZT4mI3hhOwkJCQkJCTxyZWN0IGlkPSJyZWN0MTMzNDU5IiB4PSIwIiB5PSI3NS4zNSIgc3R5bGU9ImZpbGw6IzU1NkE4QTsiIHdpZHRoPSIxOS41IiBoZWlnaHQ9IjIuMjUiLz4mI3hhOwkJCQkJPC9nPiYjeGE7CQkJCTwvZz4mI3hhOwkJCQk8ZyBpZD0ic2hhcGU4MjgyLTI1IiB0cmFuc2Zvcm09InRyYW5zbGF0ZSgwLjc1LC01OS4yNSkiPiYjeGE7CQkJCQk8dGl0bGUgaWQ9InRpdGxlMTMzNDYzIj5yZWN0MTY0MDI8L3RpdGxlPiYjeGE7CQkJCQk8cmVjdCBpZD0icmVjdDEzMzQ2NSIgeD0iMCIgeT0iNzUuMzUiIHN0eWxlPSJmaWxsOiM1NTZBOEE7IiB3aWR0aD0iMi4yNSIgaGVpZ2h0PSIyLjI1Ii8+JiN4YTsJCQkJPC9nPiYjeGE7CQkJCTxnIGlkPSJzaGFwZTgyODMtMjciIHRyYW5zZm9ybT0idHJhbnNsYXRlKDAuNzUsLTU0KSI+JiN4YTsJCQkJCTx0aXRsZSBpZD0idGl0bGUxMzM0NjgiPnJlY3QxNjQwNDwvdGl0bGU+JiN4YTsJCQkJCTxyZWN0IGlkPSJyZWN0MTMzNDcwIiB4PSIwIiB5PSI3NS4zNSIgc3R5bGU9ImZpbGw6IzU1NkE4QTsiIHdpZHRoPSIyLjI1IiBoZWlnaHQ9IjIuMjUiLz4mI3hhOwkJCQk8L2c+JiN4YTsJCQkJPGcgaWQ9InNoYXBlODI4NC0yOSIgdHJhbnNmb3JtPSJ0cmFuc2xhdGUoMC43NSwtNDguNzUpIj4mI3hhOwkJCQkJPHRpdGxlIGlkPSJ0aXRsZTEzMzQ3MyI+cmVjdDE2NDA2PC90aXRsZT4mI3hhOwkJCQkJPHJlY3QgaWQ9InJlY3QxMzM0NzUiIHg9IjAiIHk9Ijc1LjM1IiBzdHlsZT0iZmlsbDojNTU2QThBOyIgd2lkdGg9IjIuMjUiIGhlaWdodD0iMi4yNSIvPiYjeGE7CQkJCTwvZz4mI3hhOwkJCTwvZz4mI3hhOwkJPC9nPiYjeGE7CQk8ZyBpZD0iZ3JvdXA4Mjg1LTMxIiB0cmFuc2Zvcm09InRyYW5zbGF0ZSgyNi4wMTI1LC00LjM5NDUzKSI+JiN4YTsJCQk8dGl0bGUgaWQ9InRpdGxlMTMzNDgwIj5BenVyZSBBY3RpdmUgRGlyZWN0b3J5PC90aXRsZT4mI3hhOwkJCTxnIGlkPSJzaGFwZTgyODYtMzIiPiYjeGE7CQkJCTx0aXRsZSBpZD0idGl0bGUxMzM0ODIiPlNoZWV0LjgyODY8L3RpdGxlPiYjeGE7CQkJCTxwYXRoIGlkPSJwYXRoMTMzNDg0IiBpbmtzY2FwZTpjb25uZWN0b3ItY3VydmF0dXJlPSIwIiBzdHlsZT0iZmlsbDojNTlCNEQ5OyIgZD0iTTEzLjgzLDc3LjZjLTAuNjgsMC0xLjMyLTAuMjctMS44MS0wLjc1ICAgICAgTDAuNzUsNjUuNTdDMC4yNyw2NS4xLDAsNjQuNDQsMCw2My43N3MwLjI3LTEuMzMsMC43NS0xLjgxbDExLjI3LTExLjI3YzAuNDktMC40OSwxLjEzLTAuNzUsMS44MS0wLjc1ICAgICAgYzAuNjgsMCwxLjMyLDAuMjYsMS44LDAuNzVsMTEuMjgsMTEuMjdjMC40OCwwLjQ4LDAuNzUsMS4xMywwLjc1LDEuODFjMCwwLjY4LTAuMjcsMS4zMi0wLjc1LDEuOEwxNS42Myw3Ni44NSAgICAgIEMxNS4xNSw3Ny4zMywxNC41MSw3Ny42LDEzLjgzLDc3LjZ6Ii8+JiN4YTsJCQk8L2c+JiN4YTsJCQk8ZyBpZD0ic2hhcGU4Mjg3LTM0IiB0cmFuc2Zvcm09InRyYW5zbGF0ZSg0LjEzNTYxLC0zLjc4MTA2KSI+JiN4YTsJCQkJPHRpdGxlIGlkPSJ0aXRsZTEzMzQ4NyI+U2hlZXQuODI4NzwvdGl0bGU+JiN4YTsJCQkJPHBhdGggaWQ9InBhdGgxMzM0ODkiIGlua3NjYXBlOmNvbm5lY3Rvci1jdXJ2YXR1cmU9IjAiIHN0eWxlPSJmaWxsOiNGRkZGRkY7IiBkPSJNMTcuMjIsNjUuMzljLTEuMTksMC0yLjE2LDAuOTctMi4xNiwyLjE2ICAgICAgYzAsMC40NCwwLjEzLDAuODQsMC4zNiwxLjE4bC00LjI5LDQuMjljLTAuMTEtMC4wOC0wLjIzLTAuMTUtMC4zNi0wLjIxVjYxLjg4YzAuNjUtMC4zNywxLjA4LTEuMDYsMS4wOC0xLjg2ICAgICAgYzAtMS4xOS0wLjk2LTIuMTYtMi4xNi0yLjE2Yy0xLjE5LDAtMi4xNiwwLjk3LTIuMTYsMi4xNmMwLDAuOCwwLjQ0LDEuNDksMS4wOCwxLjg2djEwLjkzYy0wLjEyLDAuMDYtMC4yNCwwLjEyLTAuMzQsMC4yICAgICAgbC00LjI5LTQuMjljMC4yMS0wLjM0LDAuMzQtMC43NCwwLjM0LTEuMTdjMC0xLjE5LTAuOTYtMi4xNi0yLjE2LTIuMTZDMC45Nyw2NS4zOSwwLDY2LjM2LDAsNjcuNTVzMC45NywyLjE2LDIuMTYsMi4xNiAgICAgIGMwLjI1LDAsMC40OC0wLjA1LDAuNzEtMC4xM2w0LjUxLDQuNTFjLTAuMTMsMC4zMS0wLjIxLDAuNjQtMC4yMSwwLjk5YzAsMS4zOSwxLjEzLDIuNTIsMi41MiwyLjUyczIuNTItMS4xMywyLjUyLTIuNTIgICAgICBjMC0wLjM1LTAuMDctMC42Ny0wLjItMC45N2w0LjUyLTQuNTJjMC4yMiwwLjA3LDAuNDUsMC4xMiwwLjY5LDAuMTJjMS4xOSwwLDIuMTYtMC45NywyLjE2LTIuMTZTMTguNDIsNjUuMzksMTcuMjIsNjUuMzl6Ii8+JiN4YTsJCQk8L2c+JiN4YTsJCQk8ZyBpZD0ic2hhcGU4Mjg4LTM2IiB0cmFuc2Zvcm09InJvdGF0ZSgxMzQuOTkyLDExLjY5MDA5Niw2OS41OTU2MykiPiYjeGE7CQkJCTx0aXRsZSBpZD0idGl0bGUxMzM0OTIiPlNoZWV0LjgyODg8L3RpdGxlPiYjeGE7CQkJCTxyZWN0IGlkPSJyZWN0MTMzNDk0IiB4PSIwIiB5PSI2Ni4xNiIgc3R5bGU9ImZpbGw6I0ZGRkZGRjtmaWxsLW9wYWNpdHk6MC41OyIgd2lkdGg9IjEuNCIgaGVpZ2h0PSIxMS40NCIvPiYjeGE7CQkJPC9nPiYjeGE7CQkJPGcgaWQ9InNoYXBlODI4OS0zOCIgdHJhbnNmb3JtPSJyb3RhdGUoNDUsMTkuMzMzMzk4LDc3LjA1MzM5NikiPiYjeGE7CQkJCTx0aXRsZSBpZD0idGl0bGUxMzM0OTciPlNoZWV0LjgyODk8L3RpdGxlPiYjeGE7CQkJCSYjeGE7CQkJCQk8cmVjdCBpZD0icmVjdDEzMzQ5OSIgeD0iLTUuMDIiIHk9IjcxLjE4IiB0cmFuc2Zvcm09Im1hdHJpeCgyLjUzNTE4MWUtMDYgMSAtMSAyLjUzNTE4MWUtMDYgNzIuNTc1MiA3MS4xNzg4KSIgc3R5bGU9ImZpbGw6I0ZGRkZGRjtmaWxsLW9wYWNpdHk6MC41OyIgd2lkdGg9IjExLjQ0IiBoZWlnaHQ9IjEuNCIvPiYjeGE7CQkJPC9nPiYjeGE7CQkJPGcgaWQ9InNoYXBlODI5MC00MCIgdHJhbnNmb3JtPSJ0cmFuc2xhdGUoMTIuMzA0NSwtNC43OTk4OSkiPiYjeGE7CQkJCTx0aXRsZSBpZD0idGl0bGUxMzM1MDIiPlNoZWV0LjgyOTA8L3RpdGxlPiYjeGE7CQkJCTxwYXRoIGlkPSJwYXRoMTMzNTA0IiBpbmtzY2FwZTpjb25uZWN0b3ItY3VydmF0dXJlPSIwIiBzdHlsZT0iZmlsbDojQjhENDMyOyIgZD0iTTMsNzYuMWMwLDAuODItMC42NywxLjUtMS41LDEuNSAgICAgIFMwLDc2LjkyLDAsNzYuMWMwLTAuODMsMC42Ny0xLjUsMS41LTEuNVMzLDc1LjI3LDMsNzYuMXoiLz4mI3hhOwkJCTwvZz4mI3hhOwkJCTxnIGlkPSJzaGFwZTgyOTEtNDIiIHRyYW5zZm9ybT0idHJhbnNsYXRlKDEyLjYyNTMsLTIwLjE1NDIpIj4mI3hhOwkJCQk8dGl0bGUgaWQ9InRpdGxlMTMzNTA3Ij5TaGVldC44MjkxPC90aXRsZT4mI3hhOwkJCQk8cGF0aCBpZD0icGF0aDEzMzUwOSIgaW5rc2NhcGU6Y29ubmVjdG9yLWN1cnZhdHVyZT0iMCIgc3R5bGU9ImZpbGw6I0I4RDQzMjsiIGQ9Ik0yLjQsNzYuMzljMCwwLjY3LTAuNTMsMS4yMS0xLjIsMS4yMSAgICAgIGMtMC42NiwwLTEuMi0wLjU0LTEuMi0xLjIxYzAtMC42NiwwLjU0LTEuMiwxLjItMS4yQzEuODcsNzUuMTksMi40LDc1LjczLDIuNCw3Ni4zOXoiLz4mI3hhOwkJCTwvZz4mI3hhOwkJCTxnIGlkPSJzaGFwZTgyOTItNDQiIHRyYW5zZm9ybT0idHJhbnNsYXRlKDUuMDk2OTEsLTEyLjYyNTMpIj4mI3hhOwkJCQk8dGl0bGUgaWQ9InRpdGxlMTMzNTEyIj5TaGVldC44MjkyPC90aXRsZT4mI3hhOwkJCQk8cGF0aCBpZD0icGF0aDEzMzUxNCIgaW5rc2NhcGU6Y29ubmVjdG9yLWN1cnZhdHVyZT0iMCIgc3R5bGU9ImZpbGw6I0I4RDQzMjsiIGQ9Ik0yLjQsNzYuMzljMCwwLjY3LTAuNTMsMS4yMS0xLjIsMS4yMSAgICAgIGMtMC42NiwwLTEuMi0wLjU0LTEuMi0xLjIxYzAtMC42NiwwLjU0LTEuMiwxLjItMS4yQzEuODcsNzUuMTksMi40LDc1LjczLDIuNCw3Ni4zOXoiLz4mI3hhOwkJCTwvZz4mI3hhOwkJCTxnIGlkPSJzaGFwZTgyOTMtNDYiIHRyYW5zZm9ybT0idHJhbnNsYXRlKDIwLjE1NDgsLTEyLjYyNTMpIj4mI3hhOwkJCQk8dGl0bGUgaWQ9InRpdGxlMTMzNTE3Ij5TaGVldC44MjkzPC90aXRsZT4mI3hhOwkJCQk8cGF0aCBpZD0icGF0aDEzMzUxOSIgaW5rc2NhcGU6Y29ubmVjdG9yLWN1cnZhdHVyZT0iMCIgc3R5bGU9ImZpbGw6I0I4RDQzMjsiIGQ9Ik0yLjQxLDc2LjM5YzAsMC42Ny0wLjU0LDEuMjEtMS4yMSwxLjIxICAgICAgYy0wLjY2LDAtMS4yLTAuNTQtMS4yLTEuMjFjMC0wLjY2LDAuNTQtMS4yLDEuMi0xLjJDMS44Nyw3NS4xOSwyLjQxLDc1LjczLDIuNDEsNzYuMzl6Ii8+JiN4YTsJCQk8L2c+JiN4YTsJCQk8ZyBpZD0ic2hhcGU4Mjk0LTQ4IiB0cmFuc2Zvcm09InRyYW5zbGF0ZSgwLC01LjYzOTUxKSI+JiN4YTsJCQkJPHRpdGxlIGlkPSJ0aXRsZTEzMzUyMiI+U2hlZXQuODI5NDwvdGl0bGU+JiN4YTsJCQkJPHBhdGggaWQ9InBhdGgxMzM1MjQiIGlua3NjYXBlOmNvbm5lY3Rvci1jdXJ2YXR1cmU9IjAiIHN0eWxlPSJmaWxsOiNGRkZGRkY7ZmlsbC1vcGFjaXR5OjAuMDk4OyIgZD0iTTE1LjYzLDU2LjMzICAgICAgYy0wLjQ4LTAuNDktMS4xMi0wLjc1LTEuOC0wLjc1cy0xLjMyLDAuMjYtMS44LDAuNzVMMC43NSw2Ny42QzAuMjcsNjguMDgsMCw2OC43NCwwLDY5LjQxYzAsMC42NywwLjI3LDEuMzMsMC43NSwxLjhsNi4zOCw2LjM5ICAgICAgbDEyLjAxLTE3Ljc2TDE1LjYzLDU2LjMzeiIvPiYjeGE7CQkJPC9nPiYjeGE7CQk8L2c+JiN4YTsJPC9nPiYjeGE7PC9nPiYjeGE7PC9zdmc+;" vertex="1" parent="1">
          <mxGeometry x="160.00000000000017" y="249" width="54" height="70" as="geometry" />
        </mxCell>
        <mxCell id="QX-P79LdTZ4ubuz_DQ_H-37" value="Firewall" style="shape=image;verticalLabelPosition=bottom;labelBackgroundColor=#ffffff;verticalAlign=top;aspect=fixed;imageAspect=0;image=data:image/svg+xml,PHN2ZyB4bWxuczpjYz0iaHR0cDovL2NyZWF0aXZlY29tbW9ucy5vcmcvbnMjIiB4bWxuczpkYz0iaHR0cDovL3B1cmwub3JnL2RjL2VsZW1lbnRzLzEuMS8iIHhtbG5zOmlua3NjYXBlPSJodHRwOi8vd3d3Lmlua3NjYXBlLm9yZy9uYW1lc3BhY2VzL2lua3NjYXBlIiB4bWxuczpyZGY9Imh0dHA6Ly93d3cudzMub3JnLzE5OTkvMDIvMjItcmRmLXN5bnRheC1ucyMiIHhtbG5zOnNvZGlwb2RpPSJodHRwOi8vc29kaXBvZGkuc291cmNlZm9yZ2UubmV0L0RURC9zb2RpcG9kaS0wLmR0ZCIgeG1sbnM6c3ZnPSJodHRwOi8vd3d3LnczLm9yZy8yMDAwL3N2ZyIgeG1sbnM9Imh0dHA6Ly93d3cudzMub3JnLzIwMDAvc3ZnIiB4bWxuczp4bGluaz0iaHR0cDovL3d3dy53My5vcmcvMTk5OS94bGluayIgdmVyc2lvbj0iMS4xIiBpZD0ic3ZnMTU3MTE1IiBpbmtzY2FwZTp2ZXJzaW9uPSIwLjkyLjMgKDI0MDU1NDYsIDIwMTgtMDMtMTEpIiBzb2RpcG9kaTpkb2NuYW1lPSJmaXJld2FsbF8xLnN2ZyIgeD0iMHB4IiB5PSIwcHgiIHZpZXdCb3g9IjAgMCA3MS44OCA1Ni40NiIgc3R5bGU9ImVuYWJsZS1iYWNrZ3JvdW5kOm5ldyAwIDAgNzEuODggNTYuNDY7IiB4bWw6c3BhY2U9InByZXNlcnZlIj4mI3hhOzxzb2RpcG9kaTpuYW1lZHZpZXcgYm9yZGVyY29sb3I9IiM2NjY2NjYiIGJvcmRlcm9wYWNpdHk9IjEiIGZpdC1tYXJnaW4tYm90dG9tPSIwIiBmaXQtbWFyZ2luLWxlZnQ9IjAiIGZpdC1tYXJnaW4tcmlnaHQ9IjAiIGZpdC1tYXJnaW4tdG9wPSIwIiBncmlkdG9sZXJhbmNlPSIxMCIgZ3VpZGV0b2xlcmFuY2U9IjEwIiBpZD0ibmFtZWR2aWV3MTU3MTE3IiBpbmtzY2FwZTpjdXJyZW50LWxheWVyPSJzdmcxNTcxMTUiIGlua3NjYXBlOmN4PSI0Ny45MTgyNCIgaW5rc2NhcGU6Y3k9IjM3LjYzNzY0NyIgaW5rc2NhcGU6cGFnZW9wYWNpdHk9IjAiIGlua3NjYXBlOnBhZ2VzaGFkb3c9IjIiIGlua3NjYXBlOndpbmRvdy1oZWlnaHQ9IjEwMTciIGlua3NjYXBlOndpbmRvdy1tYXhpbWl6ZWQ9IjEiIGlua3NjYXBlOndpbmRvdy13aWR0aD0iMTkyMCIgaW5rc2NhcGU6d2luZG93LXg9Ii04IiBpbmtzY2FwZTp3aW5kb3cteT0iLTgiIGlua3NjYXBlOnpvb209IjExLjIxODI2MSIgb2JqZWN0dG9sZXJhbmNlPSIxMCIgcGFnZWNvbG9yPSIjZmZmZmZmIiBzaG93Z3JpZD0iZmFsc2UiPiYjeGE7CTwvc29kaXBvZGk6bmFtZWR2aWV3PiYjeGE7PGcgaWQ9ImcxNTcxMTMiIHRyYW5zZm9ybT0idHJhbnNsYXRlKC0wLjc1LC0wLjc0OTI4MjEyKSI+JiN4YTsJPHRpdGxlIGlkPSJ0aXRsZTE1NzA5OCI+UGFnZS0xPC90aXRsZT4mI3hhOwk8ZyBpZD0iZ3JvdXA5NTM4LTEiIHRyYW5zZm9ybT0idHJhbnNsYXRlKDAuNzUsLTAuNzUpIj4mI3hhOwkJPHRpdGxlIGlkPSJ0aXRsZTE1NzEwMCI+RmlyZXdhbGwgIzE8L3RpdGxlPiYjeGE7CQk8ZyBpZD0ic2hhcGU5NTM5LTIiIHRyYW5zZm9ybT0idHJhbnNsYXRlKDAsLTcuNDg3MDllLTQpIj4mI3hhOwkJCTx0aXRsZSBpZD0idGl0bGUxNTcxMDIiPnBhdGgxNTI5MS4zMjI1MjwvdGl0bGU+JiN4YTsJCQk8cGF0aCBpZD0icGF0aDE1NzEwNCIgaW5rc2NhcGU6Y29ubmVjdG9yLWN1cnZhdHVyZT0iMCIgc3R5bGU9ImZpbGw6IzQzNTY3MDsiIGQ9Ik0yMS45MSwxNy42MmMtMC41MSwwLjUxLTAuNzYsMS4xMS0wLjc2LDEuODEgICAgIHY1LjEzYzAsMC43LDAuMjUsMS4zLDAuNzYsMS44MWMwLjUxLDAuNSwxLjExLDAuNzYsMS44LDAuNzZoMTEuMzRjMC4yNy0yLjY0LDIuNjMtNC41Nyw1LjI4LTQuM2MwLjk1LDAuMSwxLjg0LDAuNDcsMi41NywxLjA4ICAgICBjMC44Ni0yLjIyLDEuNDQtNC41NywxLjc0LTcuMDVIMjMuNzFDMjMuMDIsMTYuODYsMjIuNDIsMTcuMTEsMjEuOTEsMTcuNjJ6IE0xMy40NSw0Ny43SDIuNTdjLTAuNywwLTEuMywwLjI1LTEuODEsMC43NiAgICAgQzAuMjUsNDguOTcsMCw0OS41NywwLDUwLjI2djUuMTRjMCwwLjY5LDAuMjUsMS4yOSwwLjc2LDEuOHMxLjExLDAuNzYsMS44MSwwLjc2aDEwLjg4YzAuNjksMCwxLjI5LTAuMjUsMS44LTAuNzYgICAgIHMwLjc2LTEuMTEsMC43Ni0xLjh2LTUuMTRjMC0wLjY5LTAuMjUtMS4yOS0wLjc2LTEuOEMxNC43NSw0Ny45NSwxNC4xNCw0Ny43LDEzLjQ1LDQ3Ljd6IE0yLjU3LDQyLjU2aDE4LjU4ICAgICBjMC42OSwwLDEuMjktMC4yNSwxLjgtMC43NmMwLjUxLTAuNSwwLjc2LTEuMTEsMC43Ni0xLjh2LTUuMTNjMC0wLjctMC4yNS0xLjMtMC43Ni0xLjgxYy0wLjUxLTAuNTEtMS4xMS0wLjc2LTEuOC0wLjc2SDIuNTcgICAgIGMtMC43LDAtMS4zLDAuMjUtMS44MSwwLjc2UzAsMzQuMTcsMCwzNC44N1Y0MGMwLDAuNjksMC4yNSwxLjMsMC43NiwxLjhDMS4yNyw0Mi4zMSwxLjg3LDQyLjU2LDIuNTcsNDIuNTZ6IE0zMi4yNiw1Mi43NyAgICAgTDMyLjI2LDUyLjc3Yy0wLjkyLTEuNTctMS41Ny0zLjI4LTEuOTEtNS4wN2gtNi42NGMtMC42OSwwLTEuMjksMC4yNS0xLjgsMC43NnMtMC43NiwxLjExLTAuNzYsMS44djUuMTQgICAgIGMwLDAuNjksMC4yNSwxLjI5LDAuNzYsMS44czEuMTEsMC43NiwxLjgsMC43NmgxMy4xQzM0LjgzLDU2LjMsMzMuMzIsNTQuNTcsMzIuMjYsNTIuNzd6IE00Ny4yMiw5LjQ1ICAgICBjMS41MS0wLjgzLDMuMzUtMC44LDQuODMsMC4wOWMwLjQsMC4yNCwwLjg4LDAuNTUsMS41MSwwLjk4YzAsMC4wMSwwLjAxLDAuMDEsMC4wMSwwLjAxYzAuMjksMC4yLDAuNzYsMC41NCwxLjcxLDEuMzFoMTQuMDEgICAgIGMwLjcsMCwxLjMxLTAuMjYsMS44Mi0wLjc3czAuNzctMS4xMiwwLjc3LTEuODJWNC4wOGMwLTAuNy0wLjI2LTEuMy0wLjc3LTEuODFDNzAuNiwxLjc2LDY5Ljk5LDEuNSw2OS4yOSwxLjVINDguNDQgICAgIGMtMC43LDAtMS4zMSwwLjI2LTEuODIsMC43N3MtMC43NywxLjExLTAuNzcsMS44MXY1LjE3YzAsMC4zOSwwLjA4LDAuNzQsMC4yMywxLjA3QzQ2LjQyLDkuOTgsNDYuOCw5LjY4LDQ3LjIyLDkuNDV6ICAgICAgTTIuNTcsMjcuMTNoMTAuODhjMC42OSwwLDEuMjktMC4yNiwxLjgtMC43N2MwLjUxLTAuNSwwLjc2LTEuMSwwLjc2LTEuOHYtNS4xM2MwLTAuNy0wLjI1LTEuMy0wLjc2LTEuODFzLTEuMTEtMC43Ni0xLjgtMC43NiAgICAgSDIuNTdjLTAuNywwLTEuMywwLjI1LTEuODEsMC43NkMwLjI1LDE4LjEzLDAsMTguNzMsMCwxOS40M3Y1LjEzYzAsMC43LDAuMjUsMS4zLDAuNzYsMS44QzEuMjcsMjYuODcsMS44NywyNy4xMywyLjU3LDI3LjEzeiAgICAgIE0zMS40MSwxMS43N2g2LjljMC43LDAsMS4zLTAuMjYsMS44LTAuNzdjMC41MS0wLjUsMC43Ny0xLjEsMC43Ny0xLjhWNC4wN2MwLTAuNy0wLjI2LTEuMy0wLjc3LTEuODEgICAgIGMtMC41LTAuNTEtMS4xLTAuNzYtMS44LTAuNzZoLTYuOWMtMC42OSwwLTEuMjksMC4yNS0xLjgsMC43NnMtMC43NiwxLjExLTAuNzYsMS44MVY5LjJjMCwwLjcsMC4yNSwxLjMsMC43NiwxLjgxICAgICBDMzAuMTIsMTEuNTEsMzAuNzIsMTEuNzcsMzEuNDEsMTEuNzd6IE0yLjU3LDExLjc3aDE4LjU4YzAuNjksMCwxLjI5LTAuMjYsMS44LTAuNzdjMC41MS0wLjUsMC43Ni0xLjEsMC43Ni0xLjhWNC4wNyAgICAgYzAtMC43LTAuMjUtMS4zLTAuNzYtMS44MWMtMC41MS0wLjUxLTEuMTEtMC43Ni0xLjgtMC43NkgyLjU3Yy0wLjcsMC0xLjMsMC4yNS0xLjgxLDAuNzZTMCwzLjM3LDAsNC4wN1Y5LjIgICAgIGMwLDAuNywwLjI1LDEuMywwLjc2LDEuODFDMS4yNywxMS41MSwxLjg3LDExLjc3LDIuNTcsMTEuNzd6Ii8+JiN4YTsJCTwvZz4mI3hhOwkJPGcgaWQ9InNoYXBlOTU0MC00IiB0cmFuc2Zvcm09InRyYW5zbGF0ZSgzNC40OTE1KSI+JiN4YTsJCQk8dGl0bGUgaWQ9InRpdGxlMTU3MTA3Ij5wYXRoMTUyOTMuMzIyNTM8L3RpdGxlPiYjeGE7CQkJPHBhdGggaWQ9InBhdGgxNTcxMDkiIGlua3NjYXBlOmNvbm5lY3Rvci1jdXJ2YXR1cmU9IjAiIHN0eWxlPSJmaWxsOiNGRjAwMDA7IiBkPSJNMTAuODYsNTcuOTZjLTQuNDUtMi41MS03LjQzLTUuMDUtOC45NC03LjYzICAgICBDMC40LDQ3Ljc1LDAsNDQuNzYsMC43MSw0MS4zNGMwLjMyLTEuMzUsMS4xNC0zLjUyLDIuNDYtNi41MmMxLjMyLTIuOTksMi4wNS01LjM5LDIuMTgtNy4yYzEuMjksMi4zOSwyLjAzLDQuNzcsMi4yMiw3LjE1ICAgICBjNC45LTYuMDUsNy40NC0xMy4xLDcuNjQtMjEuMTZjMC4zMiwwLjIsMC43NCwwLjQ3LDEuMjUsMC44MmMwLjUyLDAuMzYsMS40NywxLjExLDIuODUsMi4yN2MxLjM5LDEuMTYsMi42MSwyLjM3LDMuNjcsMy42MyAgICAgYzEuMDcsMS4yNSwyLjA2LDIuODUsMyw0Ljc4YzAuOTMsMS45MywxLjUsMy44NywxLjY5LDUuOGMwLjUxLTEuMTYsMC44NC0yLjQ1LDAuOTctMy44N2MwLjEzLTEuNDEtMC4wNC0yLjc0LTAuNDktMy45NiAgICAgYzAuNTIsMC4zOSwxLjE5LDEuMDMsMi4wMywxLjkzYzAuODQsMC45MSwxLjc3LDIuMTMsMi44LDMuNjdjMS4wNSwxLjU3LDEuOTcsMy4yMiwyLjc2LDQuOTNjMC44LDEuNzQsMS4zMiwzLjY5LDEuNTQsNS44NSAgICAgYzAuMjMsMi4xNiwwLjA4LDQuMjUtMC40Myw2LjI4Yy0wLjUyLDIuMDMtMS43MSw0LjEyLTMuNTgsNi4yOGMtMS44NywyLjE2LTQuMzgsNC4xNC03LjUzLDUuOTRjMi4xMi00LjI1LDIuNTQtOC44NCwxLjI1LTEzLjc3ICAgICBzLTMuODMtOC43MS03LjYzLTExLjM1YzAuMzIsMS40MiwwLjE0LDMuNzUtMC41Myw3Yy0wLjY4LDMuMjYtMS43Niw1LjcyLTMuMjQsNy40YzAuMjYtMi4wNywwLjMyLTMuNzQsMC4xOS01LjAzICAgICBjLTAuMTMtMS4yOS0wLjMyLTIuMjUtMC41OC0yLjlsLTAuNDgtMC44N2MtMC4zOSwyLjMyLTEuMzksNC42NC0yLjk5LDYuOTZjLTAuODQsMS4yMy0xLjQ3LDIuMzUtMS44OSwzLjM4ICAgICBjLTAuNDIsMS4wMy0wLjU4LDIuMzUtMC40OCwzLjk2QzkuNDYsNTQuMzYsOS45NSw1Ni4xLDEwLjg2LDU3Ljk2eiIvPiYjeGE7CQk8L2c+JiN4YTsJPC9nPiYjeGE7PC9nPiYjeGE7PC9zdmc+;" vertex="1" parent="1">
          <mxGeometry x="280" y="193" width="72" height="56" as="geometry" />
        </mxCell>
        <mxCell id="QX-P79LdTZ4ubuz_DQ_H-42" value="Data Warehouse" style="shape=image;verticalLabelPosition=bottom;labelBackgroundColor=#ffffff;verticalAlign=top;aspect=fixed;imageAspect=0;image=data:image/svg+xml,PHN2ZyB4bWxuczpjYz0iaHR0cDovL2NyZWF0aXZlY29tbW9ucy5vcmcvbnMjIiB4bWxuczpkYz0iaHR0cDovL3B1cmwub3JnL2RjL2VsZW1lbnRzLzEuMS8iIHhtbG5zOmlua3NjYXBlPSJodHRwOi8vd3d3Lmlua3NjYXBlLm9yZy9uYW1lc3BhY2VzL2lua3NjYXBlIiB4bWxuczpyZGY9Imh0dHA6Ly93d3cudzMub3JnLzE5OTkvMDIvMjItcmRmLXN5bnRheC1ucyMiIHhtbG5zOnNvZGlwb2RpPSJodHRwOi8vc29kaXBvZGkuc291cmNlZm9yZ2UubmV0L0RURC9zb2RpcG9kaS0wLmR0ZCIgeG1sbnM6c3ZnPSJodHRwOi8vd3d3LnczLm9yZy8yMDAwL3N2ZyIgeG1sbnM9Imh0dHA6Ly93d3cudzMub3JnLzIwMDAvc3ZnIiB4bWxuczp4bGluaz0iaHR0cDovL3d3dy53My5vcmcvMTk5OS94bGluayIgdmVyc2lvbj0iMS4xIiBpZD0ic3ZnMjU2MTM1IiBpbmtzY2FwZTp2ZXJzaW9uPSIwLjkyLjMgKDI0MDU1NDYsIDIwMTgtMDMtMTEpIiBzb2RpcG9kaTpkb2NuYW1lPSJkYXRhYmFzZV9zZXJ2ZXIuc3ZnIiB4PSIwcHgiIHk9IjBweCIgdmlld0JveD0iMCAwIDQ4LjQxIDY5Ljc2IiBzdHlsZT0iZW5hYmxlLWJhY2tncm91bmQ6bmV3IDAgMCA0OC40MSA2OS43NjsiIHhtbDpzcGFjZT0icHJlc2VydmUiPiYjeGE7PHNvZGlwb2RpOm5hbWVkdmlldyBib3JkZXJjb2xvcj0iIzY2NjY2NiIgYm9yZGVyb3BhY2l0eT0iMSIgZml0LW1hcmdpbi1ib3R0b209IjAiIGZpdC1tYXJnaW4tbGVmdD0iMCIgZml0LW1hcmdpbi1yaWdodD0iMCIgZml0LW1hcmdpbi10b3A9IjAiIGdyaWR0b2xlcmFuY2U9IjEwIiBndWlkZXRvbGVyYW5jZT0iMTAiIGlkPSJuYW1lZHZpZXcyNTYxMzciIGlua3NjYXBlOmN1cnJlbnQtbGF5ZXI9InN2ZzI1NjEzNSIgaW5rc2NhcGU6Y3g9IjMyLjE5MDg5NyIgaW5rc2NhcGU6Y3k9IjQ2LjUwODM0NiIgaW5rc2NhcGU6cGFnZW9wYWNpdHk9IjAiIGlua3NjYXBlOnBhZ2VzaGFkb3c9IjIiIGlua3NjYXBlOndpbmRvdy1oZWlnaHQ9IjEwMTciIGlua3NjYXBlOndpbmRvdy1tYXhpbWl6ZWQ9IjEiIGlua3NjYXBlOndpbmRvdy13aWR0aD0iMTkyMCIgaW5rc2NhcGU6d2luZG93LXg9Ii04IiBpbmtzY2FwZTp3aW5kb3cteT0iLTgiIGlua3NjYXBlOnpvb209IjkuMTI1MzY4OSIgb2JqZWN0dG9sZXJhbmNlPSIxMCIgcGFnZWNvbG9yPSIjZmZmZmZmIiBzaG93Z3JpZD0iZmFsc2UiPiYjeGE7CTwvc29kaXBvZGk6bmFtZWR2aWV3PiYjeGE7PGcgaWQ9ImcyNTYxMzMiIHRyYW5zZm9ybT0idHJhbnNsYXRlKC0wLjc1LC0wLjc1MDAzODc4KSI+JiN4YTsJPHRpdGxlIGlkPSJ0aXRsZTI1NjAxNiI+UGFnZS0xPC90aXRsZT4mI3hhOwk8ZyBpZD0iZ3JvdXAxMDk0OC0xIiB0cmFuc2Zvcm09InRyYW5zbGF0ZSgxLjUsLTEuNSkiPiYjeGE7CQk8dGl0bGUgaWQ9InRpdGxlMjU2MDE4Ij5EYXRhYmFzZSBTZXJ2ZXI8L3RpdGxlPiYjeGE7CQk8ZyBpZD0iZ3JvdXAxMDk0OS0yIj4mI3hhOwkJCTx0aXRsZSBpZD0idGl0bGUyNTYwMjAiPkRhdGFiYXNlIFNlcnZlcjwvdGl0bGU+JiN4YTsJCQk8ZyBpZD0iZ3JvdXAxMDk1MC0zIj4mI3hhOwkJCQk8dGl0bGUgaWQ9InRpdGxlMjU2MDIyIj5HZW5lcmljIFNlcnZpY2U8L3RpdGxlPiYjeGE7CQkJCTxnIGlkPSJncm91cDEwOTUxLTQiIHRyYW5zZm9ybT0idHJhbnNsYXRlKDAsLTAuMDA3Mzk4NzYpIj4mI3hhOwkJCQkJPHRpdGxlIGlkPSJ0aXRsZTI1NjAyNCI+ZzE1NDMzLjExNzIxPC90aXRsZT4mI3hhOwkJCQkJPGcgaWQ9InNoYXBlMTA5NTItNSI+JiN4YTsJCQkJCQk8dGl0bGUgaWQ9InRpdGxlMjU2MDI2Ij5yZWN0MTU0MDU8L3RpdGxlPiYjeGE7CQkJCQkJJiN4YTsJCQkJCQkJPHJlY3QgaWQ9InJlY3QyNTYwMjgiIHk9IjMuMDEiIHN0eWxlPSJmaWxsOiNGRkZGRkY7c3Ryb2tlOiM1NTZBOEE7c3Ryb2tlLXdpZHRoOjEuNTtzdHJva2UtbWl0ZXJsaW1pdDozOyIgd2lkdGg9IjM5Ljc1IiBoZWlnaHQ9IjY4LjI1Ii8+JiN4YTsJCQkJCTwvZz4mI3hhOwkJCQkJPGcgaWQ9Imdyb3VwMTA5NTMtNyIgdHJhbnNmb3JtPSJ0cmFuc2xhdGUoMS41LC0wLjc1KSI+JiN4YTsJCQkJCQk8dGl0bGUgaWQ9InRpdGxlMjU2MDMxIj5nMTU0MjU8L3RpdGxlPiYjeGE7CQkJCQkJPGcgaWQ9InNoYXBlMTA5NTQtOCIgdHJhbnNmb3JtPSJ0cmFuc2xhdGUoMTgpIj4mI3hhOwkJCQkJCQk8dGl0bGUgaWQ9InRpdGxlMjU2MDMzIj5yZWN0MTU0MDc8L3RpdGxlPiYjeGE7CQkJCQkJCTxyZWN0IGlkPSJyZWN0MjU2MDM1IiB5PSI0LjUxIiBzdHlsZT0iZmlsbDojRTVFNUU1OyIgd2lkdGg9IjE5LjUiIGhlaWdodD0iNjYuNzUiLz4mI3hhOwkJCQkJCTwvZz4mI3hhOwkJCQkJCTxnIGlkPSJzaGFwZTEwOTU1LTEwIiB0cmFuc2Zvcm09InRyYW5zbGF0ZSgwLC00OCkiPiYjeGE7CQkJCQkJCTx0aXRsZSBpZD0idGl0bGUyNTYwMzgiPnJlY3QxNTQwOTwvdGl0bGU+JiN4YTsJCQkJCQkJPHJlY3QgaWQ9InJlY3QyNTYwNDAiIHk9IjY5LjAxIiBzdHlsZT0iZmlsbDojMkJDN0Y0OyIgd2lkdGg9IjE4IiBoZWlnaHQ9IjIuMjUiLz4mI3hhOwkJCQkJCTwvZz4mI3hhOwkJCQkJCTxnIGlkPSJzaGFwZTEwOTU2LTEyIiB0cmFuc2Zvcm09InRyYW5zbGF0ZSgwLC01OC41KSI+JiN4YTsJCQkJCQkJPHRpdGxlIGlkPSJ0aXRsZTI1NjA0MyI+cG9seWdvbjE1NDExPC90aXRsZT4mI3hhOwkJCQkJCQk8cmVjdCBpZD0icmVjdDI1NjA0NSIgeT0iNjkuMDEiIHN0eWxlPSJmaWxsOm5vbmU7IiB3aWR0aD0iMjciIGhlaWdodD0iMi4yNSIvPiYjeGE7CQkJCQkJPC9nPiYjeGE7CQkJCQkJPGcgaWQ9InNoYXBlMTA5NTctMTQiIHRyYW5zZm9ybT0idHJhbnNsYXRlKDAsLTU4LjUpIj4mI3hhOwkJCQkJCQk8dGl0bGUgaWQ9InRpdGxlMjU2MDQ4Ij5wb2x5bGluZTE1NDEzPC90aXRsZT4mI3hhOwkJCQkJCQk8cmVjdCBpZD0icmVjdDI1NjA1MCIgeT0iNjkuMDEiIHN0eWxlPSJmaWxsOm5vbmU7IiB3aWR0aD0iMjciIGhlaWdodD0iMi4yNSIvPiYjeGE7CQkJCQkJPC9nPiYjeGE7CQkJCQkJPGcgaWQ9InNoYXBlMTA5NTgtMTYiIHRyYW5zZm9ybT0idHJhbnNsYXRlKDAsLTUzLjI1KSI+JiN4YTsJCQkJCQkJPHRpdGxlIGlkPSJ0aXRsZTI1NjA1MyI+cmVjdDE1NDE1PC90aXRsZT4mI3hhOwkJCQkJCQk8cmVjdCBpZD0icmVjdDI1NjA1NSIgeT0iNjkuMDEiIHN0eWxlPSJmaWxsOiMyQkM3RjQ7IiB3aWR0aD0iMTgiIGhlaWdodD0iMi4yNSIvPiYjeGE7CQkJCQkJPC9nPiYjeGE7CQkJCQkJPGcgaWQ9InNoYXBlMTA5NTktMTgiIHRyYW5zZm9ybT0idHJhbnNsYXRlKDAsLTU4LjUpIj4mI3hhOwkJCQkJCQk8dGl0bGUgaWQ9InRpdGxlMjU2MDU4Ij5yZWN0MTU0MTc8L3RpdGxlPiYjeGE7CQkJCQkJCTxyZWN0IGlkPSJyZWN0MjU2MDYwIiB5PSI2OS4wMSIgc3R5bGU9ImZpbGw6IzJCQzdGNDsiIHdpZHRoPSIxOCIgaGVpZ2h0PSIyLjI1Ii8+JiN4YTsJCQkJCQk8L2c+JiN4YTsJCQkJCQk8ZyBpZD0ic2hhcGUxMDk2MC0yMCIgdHJhbnNmb3JtPSJ0cmFuc2xhdGUoMTgsLTQ4KSI+JiN4YTsJCQkJCQkJPHRpdGxlIGlkPSJ0aXRsZTI1NjA2MyI+cmVjdDE1NDE5PC90aXRsZT4mI3hhOwkJCQkJCQk8cmVjdCBpZD0icmVjdDI1NjA2NSIgeT0iNjkuMDEiIHN0eWxlPSJmaWxsOiM1NTZBOEE7IiB3aWR0aD0iMTkuNSIgaGVpZ2h0PSIyLjI1Ii8+JiN4YTsJCQkJCQk8L2c+JiN4YTsJCQkJCQk8ZyBpZD0ic2hhcGUxMDk2MS0yMiIgdHJhbnNmb3JtPSJ0cmFuc2xhdGUoMTgsLTUzLjI1KSI+JiN4YTsJCQkJCQkJPHRpdGxlIGlkPSJ0aXRsZTI1NjA2OCI+cmVjdDE1NDIxPC90aXRsZT4mI3hhOwkJCQkJCQk8cmVjdCBpZD0icmVjdDI1NjA3MCIgeT0iNjkuMDEiIHN0eWxlPSJmaWxsOiM1NTZBOEE7IiB3aWR0aD0iMTkuNSIgaGVpZ2h0PSIyLjI1Ii8+JiN4YTsJCQkJCQk8L2c+JiN4YTsJCQkJCQk8ZyBpZD0ic2hhcGUxMDk2Mi0yNCIgdHJhbnNmb3JtPSJ0cmFuc2xhdGUoMTgsLTU4LjUpIj4mI3hhOwkJCQkJCQk8dGl0bGUgaWQ9InRpdGxlMjU2MDczIj5yZWN0MTU0MjM8L3RpdGxlPiYjeGE7CQkJCQkJCTxyZWN0IGlkPSJyZWN0MjU2MDc1IiB5PSI2OS4wMSIgc3R5bGU9ImZpbGw6IzU1NkE4QTsiIHdpZHRoPSIxOS41IiBoZWlnaHQ9IjIuMjUiLz4mI3hhOwkJCQkJCTwvZz4mI3hhOwkJCQkJPC9nPiYjeGE7CQkJCQk8ZyBpZD0ic2hhcGUxMDk2My0yNiIgdHJhbnNmb3JtPSJ0cmFuc2xhdGUoMC43NSwtNTkuMjUpIj4mI3hhOwkJCQkJCTx0aXRsZSBpZD0idGl0bGUyNTYwNzkiPnJlY3QxNTQyNzwvdGl0bGU+JiN4YTsJCQkJCQk8cmVjdCBpZD0icmVjdDI1NjA4MSIgeT0iNjkuMDEiIHN0eWxlPSJmaWxsOiM1NTZBOEE7IiB3aWR0aD0iMi4yNSIgaGVpZ2h0PSIyLjI1Ii8+JiN4YTsJCQkJCTwvZz4mI3hhOwkJCQkJPGcgaWQ9InNoYXBlMTA5NjQtMjgiIHRyYW5zZm9ybT0idHJhbnNsYXRlKDAuNzUsLTU0KSI+JiN4YTsJCQkJCQk8dGl0bGUgaWQ9InRpdGxlMjU2MDg0Ij5yZWN0MTU0Mjk8L3RpdGxlPiYjeGE7CQkJCQkJPHJlY3QgaWQ9InJlY3QyNTYwODYiIHk9IjY5LjAxIiBzdHlsZT0iZmlsbDojNTU2QThBOyIgd2lkdGg9IjIuMjUiIGhlaWdodD0iMi4yNSIvPiYjeGE7CQkJCQk8L2c+JiN4YTsJCQkJCTxnIGlkPSJzaGFwZTEwOTY1LTMwIiB0cmFuc2Zvcm09InRyYW5zbGF0ZSgwLjc1LC00OC43NSkiPiYjeGE7CQkJCQkJPHRpdGxlIGlkPSJ0aXRsZTI1NjA4OSI+cmVjdDE1NDMxPC90aXRsZT4mI3hhOwkJCQkJCTxyZWN0IGlkPSJyZWN0MjU2MDkxIiB5PSI2OS4wMSIgc3R5bGU9ImZpbGw6IzU1NkE4QTsiIHdpZHRoPSIyLjI1IiBoZWlnaHQ9IjIuMjUiLz4mI3hhOwkJCQkJPC9nPiYjeGE7CQkJCTwvZz4mI3hhOwkJCQk8ZyBpZD0ic2hhcGUxMDk2Ni0zMiIgdHJhbnNmb3JtPSJ0cmFuc2xhdGUoMTMuNjk4MykiPiYjeGE7CQkJCQk8dGl0bGUgaWQ9InRpdGxlMjU2MDk1Ij5wb2x5Z29uMTU0MzUuMTE3Mzc8L3RpdGxlPiYjeGE7CQkJCQkmI3hhOwkJCQkJCTxwYXRoIGlkPSJwYXRoMjU2MDk3IiBpbmtzY2FwZTpjb25uZWN0b3ItY3VydmF0dXJlPSIwIiBzdHlsZT0iZmlsbDojRkZGRkZGO3N0cm9rZTojNTU2QThBO3N0cm9rZS13aWR0aDoxLjU7c3Ryb2tlLW1pdGVybGltaXQ6MzsiIGQ9IiAgICAgICBNOC4yNyw3MS4yNkwwLDU3LjAybDguMjctMTQuMjNoMTYuNTVsOC4yNywxNC4yM2wtOC4yNywxNC4yNEg4LjI3eiIvPiYjeGE7CQkJCTwvZz4mI3hhOwkJCTwvZz4mI3hhOwkJPC9nPiYjeGE7CQk8ZyBpZD0iZ3JvdXAxMDk2Ny0zNCIgdHJhbnNmb3JtPSJ0cmFuc2xhdGUoMjIuMDM2NiwtMy44NjEzMykiPiYjeGE7CQkJPHRpdGxlIGlkPSJ0aXRsZTI1NjEwMiI+U2hlZXQuMTA5Njc8L3RpdGxlPiYjeGE7CQkJPGcgaWQ9Imdyb3VwMTA5NjgtMzUiPiYjeGE7CQkJCTx0aXRsZSBpZD0idGl0bGUyNTYxMDQiPmcxNDUwPC90aXRsZT4mI3hhOwkJCQk8ZyBpZD0ic2hhcGUxMDk2OS0zNiI+JiN4YTsJCQkJCTx0aXRsZSBpZD0idGl0bGUyNTYxMDYiPnBhdGgxNDQyPC90aXRsZT4mI3hhOwkJCQkJPHBhdGggaWQ9InBhdGgyNTYxMDgiIGlua3NjYXBlOmNvbm5lY3Rvci1jdXJ2YXR1cmU9IjAiIHN0eWxlPSJmaWxsOiNGRkZGRkY7IiBkPSJNMTQuNzUsNTIuNmwtNC44LDAuMDVMMCw1Mi43M3YxNS40OSAgICAgICBjMCwxLjU5LDMuNDgsMi45NSw4LjAxLDMuMDRoMC4xN2MwLjYxLDAsMS4yLTAuMDQsMS43Ny0wLjA5YzEuNjYtMC4xLDMuMjgtMC41LDQuOC0xLjE4YzEuMDItMC41MSwxLjYxLTEuMTMsMS42MS0xLjc3VjUyLjU5ICAgICAgIEwxNC43NSw1Mi42eiIvPiYjeGE7CQkJCTwvZz4mI3hhOwkJCQk8ZyBpZD0ic2hhcGUxMDk3MC0zOCIgdHJhbnNmb3JtPSJ0cmFuc2xhdGUoOS45NTEzNCwtMC4wOTc0NTk4KSI+JiN4YTsJCQkJCTx0aXRsZSBpZD0idGl0bGUyNTYxMTEiPnBhdGgxNDQ0PC90aXRsZT4mI3hhOwkJCQkJPHBhdGggaWQ9InBhdGgyNTYxMTMiIGlua3NjYXBlOmNvbm5lY3Rvci1jdXJ2YXR1cmU9IjAiIHN0eWxlPSJmaWxsOiNFNUU1RTU7IiBkPSJNNC44LDUyLjd2MTcuMzggICAgICAgYy0xLjUyLDAuNjgtMy4xNCwxLjA4LTQuOCwxLjE4VjUyLjc0TDQuOCw1Mi43eiIvPiYjeGE7CQkJCTwvZz4mI3hhOwkJCQk8ZyBpZD0ic2hhcGUxMDk3MS00MCI+JiN4YTsJCQkJCTx0aXRsZSBpZD0idGl0bGUyNTYxMTYiPnBhdGgxNDQ2PC90aXRsZT4mI3hhOwkJCQkJPHBhdGggaWQ9InBhdGgyNTYxMTgiIGlua3NjYXBlOmNvbm5lY3Rvci1jdXJ2YXR1cmU9IjAiIHN0eWxlPSJmaWxsOm5vbmU7IiBkPSJNMCw1Mi43M3YxNS40OWMwLDEuNTksMy40NiwyLjk1LDguMDEsMy4wNGgwLjE3ICAgICAgIGM0LjYzLTAuMDYsOC4xOC0xLjQ0LDguMTgtMy4wNFY1Mi41OUwwLDUyLjczeiIvPiYjeGE7CQkJCQkmI3hhOwkJCQkJCTxwYXRoIGlkPSJwYXRoMjU2MTIwIiBpbmtzY2FwZTpjb25uZWN0b3ItY3VydmF0dXJlPSIwIiBzdHlsZT0iZmlsbDpub25lO3N0cm9rZTojNTU2QThBO3N0cm9rZS13aWR0aDoxLjU7c3Ryb2tlLW1pdGVybGltaXQ6MzsiIGQ9IiAgICAgICBNMCw1Mi43M3YxNS40OWMwLDEuNTksMy40NiwyLjk1LDguMDEsMy4wNGgwLjE3YzQuNjMtMC4wNiw4LjE4LTEuNDQsOC4xOC0zLjA0VjUyLjU5Ii8+JiN4YTsJCQkJPC9nPiYjeGE7CQkJCTxnIGlkPSJzaGFwZTEwOTcyLTQzIiB0cmFuc2Zvcm09InRyYW5zbGF0ZSgwLjAyMDg4NDIsLTE1LjUzMDkpIj4mI3hhOwkJCQkJPHRpdGxlIGlkPSJ0aXRsZTI1NjEyMyI+cGF0aDE0NDg8L3RpdGxlPiYjeGE7CQkJCQk8cGF0aCBpZD0icGF0aDI1NjEyNSIgaW5rc2NhcGU6Y29ubmVjdG9yLWN1cnZhdHVyZT0iMCIgc3R5bGU9ImZpbGw6IzU1RDJGNjsiIGQ9Ik0xNi4zNiw2OC4zYzAsMS42My0zLjY2LDIuOTYtOC4xOCwyLjk2ICAgICAgIFMwLDY5LjkzLDAsNjguM3MzLjc3LTIuOTUsOC4yOS0yLjk1czguMDcsMS4zMiw4LjA3LDIuOTZWNjguM3oiLz4mI3hhOwkJCQkJJiN4YTsJCQkJCQk8cGF0aCBpZD0icGF0aDI1NjEyNyIgaW5rc2NhcGU6Y29ubmVjdG9yLWN1cnZhdHVyZT0iMCIgc3R5bGU9ImZpbGw6bm9uZTtzdHJva2U6IzU1NkE4QTtzdHJva2Utd2lkdGg6MS41O3N0cm9rZS1taXRlcmxpbWl0OjM7IiBkPSIgICAgICAgTTE2LjM2LDY4LjNjMCwxLjYzLTMuNjYsMi45Ni04LjE4LDIuOTZTMCw2OS45MywwLDY4LjNzMy43Ny0yLjk1LDguMjktMi45NXM4LjA3LDEuMzIsOC4wNywyLjk2Ii8+JiN4YTsJCQkJPC9nPiYjeGE7CQkJPC9nPiYjeGE7CQk8L2c+JiN4YTsJPC9nPiYjeGE7PC9nPiYjeGE7PC9zdmc+;" vertex="1" parent="1">
          <mxGeometry x="232" y="389" width="48" height="70" as="geometry" />
        </mxCell>
        <mxCell id="QX-P79LdTZ4ubuz_DQ_H-51" value="HPC Workstation" style="shape=image;verticalLabelPosition=bottom;labelBackgroundColor=#ffffff;verticalAlign=top;aspect=fixed;imageAspect=0;image=data:image/svg+xml,PHN2ZyB4bWxuczpjYz0iaHR0cDovL2NyZWF0aXZlY29tbW9ucy5vcmcvbnMjIiB4bWxuczpkYz0iaHR0cDovL3B1cmwub3JnL2RjL2VsZW1lbnRzLzEuMS8iIHhtbG5zOmlua3NjYXBlPSJodHRwOi8vd3d3Lmlua3NjYXBlLm9yZy9uYW1lc3BhY2VzL2lua3NjYXBlIiB4bWxuczpyZGY9Imh0dHA6Ly93d3cudzMub3JnLzE5OTkvMDIvMjItcmRmLXN5bnRheC1ucyMiIHhtbG5zOnNvZGlwb2RpPSJodHRwOi8vc29kaXBvZGkuc291cmNlZm9yZ2UubmV0L0RURC9zb2RpcG9kaS0wLmR0ZCIgeG1sbnM6c3ZnPSJodHRwOi8vd3d3LnczLm9yZy8yMDAwL3N2ZyIgeG1sbnM9Imh0dHA6Ly93d3cudzMub3JnLzIwMDAvc3ZnIiB4bWxuczp4bGluaz0iaHR0cDovL3d3dy53My5vcmcvMTk5OS94bGluayIgdmVyc2lvbj0iMS4xIiBpZD0ic3ZnMTc1MDM4IiBpbmtzY2FwZTp2ZXJzaW9uPSIwLjkyLjMgKDI0MDU1NDYsIDIwMTgtMDMtMTEpIiBzb2RpcG9kaTpkb2NuYW1lPSJwYy5zdmciIHg9IjBweCIgeT0iMHB4IiB2aWV3Qm94PSIwIDAgNzIuNTIgNjMuODMiIHN0eWxlPSJlbmFibGUtYmFja2dyb3VuZDpuZXcgMCAwIDcyLjUyIDYzLjgzOyIgeG1sOnNwYWNlPSJwcmVzZXJ2ZSI+JiN4YTs8c29kaXBvZGk6bmFtZWR2aWV3IGJvcmRlcmNvbG9yPSIjNjY2NjY2IiBib3JkZXJvcGFjaXR5PSIxIiBmaXQtbWFyZ2luLWJvdHRvbT0iMCIgZml0LW1hcmdpbi1sZWZ0PSIwIiBmaXQtbWFyZ2luLXJpZ2h0PSIwIiBmaXQtbWFyZ2luLXRvcD0iMCIgZ3JpZHRvbGVyYW5jZT0iMTAiIGd1aWRldG9sZXJhbmNlPSIxMCIgaWQ9Im5hbWVkdmlldzE3NTA0MCIgaW5rc2NhcGU6Y3VycmVudC1sYXllcj0ic3ZnMTc1MDM4IiBpbmtzY2FwZTpjeD0iNDguMzQ1OTE4IiBpbmtzY2FwZTpjeT0iMjkuMjE3MjU5IiBpbmtzY2FwZTpwYWdlb3BhY2l0eT0iMCIgaW5rc2NhcGU6cGFnZXNoYWRvdz0iMiIgaW5rc2NhcGU6d2luZG93LWhlaWdodD0iMTAxNyIgaW5rc2NhcGU6d2luZG93LW1heGltaXplZD0iMSIgaW5rc2NhcGU6d2luZG93LXdpZHRoPSIxOTIwIiBpbmtzY2FwZTp3aW5kb3cteD0iLTgiIGlua3NjYXBlOndpbmRvdy15PSItOCIgaW5rc2NhcGU6em9vbT0iNy4wNjc5MjIyIiBvYmplY3R0b2xlcmFuY2U9IjEwIiBwYWdlY29sb3I9IiNmZmZmZmYiIHNob3dncmlkPSJmYWxzZSI+JiN4YTsJPC9zb2RpcG9kaTpuYW1lZHZpZXc+JiN4YTs8ZyBpZD0iZzE3NTAzNiIgdHJhbnNmb3JtPSJ0cmFuc2xhdGUoMC4wMDk1OTgzLC00LjA4MzMyMjkpIj4mI3hhOwk8dGl0bGUgaWQ9InRpdGxlMTc1MDE2Ij5QYWdlLTE8L3RpdGxlPiYjeGE7CTxnIGlkPSJncm91cDkxMzAtMSIgdHJhbnNmb3JtPSJ0cmFuc2xhdGUoMC4yNSwtMjApIj4mI3hhOwkJPHRpdGxlIGlkPSJ0aXRsZTE3NTAxOCI+UEMuNTcxPC90aXRsZT4mI3hhOwkJPGcgaWQ9InNoYXBlOTEzMS0yIiB0cmFuc2Zvcm09InRyYW5zbGF0ZSgwLC00LjIxMTk2KSI+JiN4YTsJCQk8dGl0bGUgaWQ9InRpdGxlMTc1MDIwIj5TaGVldC45MTMxPC90aXRsZT4mI3hhOwkJCSYjeGE7CQkJCTxwYXRoIGlkPSJwYXRoMTc1MDIyIiBpbmtzY2FwZTpjb25uZWN0b3ItY3VydmF0dXJlPSIwIiBzdHlsZT0iZmlsbDojM0Y1NzY1O3N0cm9rZTojQzdDOEM4O3N0cm9rZS13aWR0aDowLjI1O3N0cm9rZS1saW5lY2FwOnNxdWFyZTtzdHJva2UtbWl0ZXJsaW1pdDozOyIgZD0iICAgICBNNjguNTQsMjguNDJINC4xOXY0Mi45NWg2NC4zNVYyOC40MnogTTcyLDkyTDYxLjIsNzguNDZIMTAuOEwwLDkySDcyeiBNNDEuNjYsNzEuMzdIMzAuMzR2Ny4wOWgxMS4zMlY3MS4zN3oiLz4mI3hhOwkJPC9nPiYjeGE7CQk8ZyBpZD0ic2hhcGU5MTMyLTQiIHRyYW5zZm9ybT0idHJhbnNsYXRlKDguMzYxMTYsLTI4LjcxMjYpIj4mI3hhOwkJCTx0aXRsZSBpZD0idGl0bGUxNzUwMjUiPlNoZWV0LjkxMzI8L3RpdGxlPiYjeGE7CQkJJiN4YTsJCQkJPHBhdGggaWQ9InBhdGgxNzUwMjciIGlua3NjYXBlOmNvbm5lY3Rvci1jdXJ2YXR1cmU9IjAiIHN0eWxlPSJmaWxsOiMzRjU3NjU7c3Ryb2tlOiNDN0M4Qzg7c3Ryb2tlLXdpZHRoOjAuMjU7c3Ryb2tlLWxpbmVjYXA6c3F1YXJlO3N0cm9rZS1taXRlcmxpbWl0OjM7IiBkPSIgICAgIE01Ni4wOSw1Ny4xOEgwVjkyaDU2LjA5VjU3LjE4eiIvPiYjeGE7CQk8L2c+JiN4YTsJCTxnIGlkPSJzaGFwZTkxMzMtNiIgdHJhbnNmb3JtPSJ0cmFuc2xhdGUoOS43OTg1MywtNy4wMDY3NSkiPiYjeGE7CQkJPHRpdGxlIGlkPSJ0aXRsZTE3NTAzMCI+U2hlZXQuOTEzMzwvdGl0bGU+JiN4YTsJCQk8cGF0aCBpZD0icGF0aDE3NTAzMiIgaW5rc2NhcGU6Y29ubmVjdG9yLWN1cnZhdHVyZT0iMCIgc3R5bGU9ImZpbGw6I0ZGRkZGRjsiIGQ9Ik00OS4xNyw4Ni43NWgtMy4ybDEuNzksMS45OWgzLjQ1TDQ5LjE3LDg2Ljc1eiAgICAgIE00NS41NSw4My4yMmgtMi43NmwxLjkzLDIuMTRoMy4wMkw0NS41NSw4My4yMnogTTQ0LjI0LDg2Ljc1aC0zLjJsMS40MSwxLjk5aDMuNDVMNDQuMjQsODYuNzV6IE00MS4zMSw4My4yMmgtMi43NmwxLjUxLDIuMTQgICAgIGgzLjAzTDQxLjMxLDgzLjIyeiBNMzkuMzIsODYuNzVoLTMuMmwxLjAyLDEuOTloMy40NUwzOS4zMiw4Ni43NXogTTM3LjA4LDgzLjIyaC0yLjc2bDEuMSwyLjE4aDMuMDNMMzcuMDgsODMuMjJ6IE0zNC40LDg2Ljc1ICAgICBoLTMuMmwwLjY0LDEuOTloMy40NUwzNC40LDg2Ljc1eiBNMzIuODksODMuMzdoLTIuNzdsMC42NSwyLjAzaDMuMDNMMzIuODksODMuMzd6IE0yOS40OCw4Ni43NWgtMy4ybDAuMjUsMS45OWgzLjQ1TDI5LjQ4LDg2Ljc1ICAgICB6IE0yOC42Nyw4My41M2gtMi44bDAuMjUsMmgzLjA1TDI4LjY3LDgzLjUzeiBNMjQuMzcsODMuNTNoLTIuOGwtMC4xMywyaDMuMDRMMjQuMzcsODMuNTN6IE0yNC41Niw4Ni43NWgtMy4ybC0wLjE0LDEuOTloMy40NiAgICAgTDI0LjU2LDg2Ljc1eiBNMjAuMDYsODMuNTNoLTIuNzlsLTAuNTIsMmgzLjA1TDIwLjA2LDgzLjUzeiBNMTkuNjMsODYuNzVoLTMuMmwtMC41MSwxLjk5aDMuNDVMMTkuNjMsODYuNzV6IE0zNy4xOSw5MC4wMUgxNC42MSAgICAgTDE0LjAyLDkyaDI0LjE1TDM3LjE5LDkwLjAxeiBNMTUuNzYsODMuNTNoLTIuNzlsLTAuOSwyaDMuMDRMMTUuNzYsODMuNTN6IE0xNC43MSw4Ni43NWgtMy4ybC0wLjksMS45OWgzLjQ1TDE0LjcxLDg2Ljc1eiAgICAgIE0xMS40Niw4My41M2gtMi44bC0xLjI4LDJoMy4wNUwxMS40Niw4My41M3ogTTkuNzksODYuNzVoLTMuMmwtMS4yOCwxLjk5aDMuNDVMOS43OSw4Ni43NXogTTcuMTYsODMuNTNoLTIuOGwtMS42NywyaDMuMDUgICAgIEw3LjE2LDgzLjUzeiBNNC44Nyw4Ni43NWgtMy4yTDAsODguNzRoMy40NUw0Ljg3LDg2Ljc1eiIvPiYjeGE7CQk8L2c+JiN4YTsJPC9nPiYjeGE7PC9nPiYjeGE7PC9zdmc+;" vertex="1" parent="1">
          <mxGeometry x="469.9999999999999" y="380" width="73" height="64" as="geometry" />
        </mxCell>
        <mxCell id="QX-P79LdTZ4ubuz_DQ_H-52" value="HPC Workstation" style="shape=image;verticalLabelPosition=bottom;labelBackgroundColor=#ffffff;verticalAlign=top;aspect=fixed;imageAspect=0;image=data:image/svg+xml,PHN2ZyB4bWxuczpjYz0iaHR0cDovL2NyZWF0aXZlY29tbW9ucy5vcmcvbnMjIiB4bWxuczpkYz0iaHR0cDovL3B1cmwub3JnL2RjL2VsZW1lbnRzLzEuMS8iIHhtbG5zOmlua3NjYXBlPSJodHRwOi8vd3d3Lmlua3NjYXBlLm9yZy9uYW1lc3BhY2VzL2lua3NjYXBlIiB4bWxuczpyZGY9Imh0dHA6Ly93d3cudzMub3JnLzE5OTkvMDIvMjItcmRmLXN5bnRheC1ucyMiIHhtbG5zOnNvZGlwb2RpPSJodHRwOi8vc29kaXBvZGkuc291cmNlZm9yZ2UubmV0L0RURC9zb2RpcG9kaS0wLmR0ZCIgeG1sbnM6c3ZnPSJodHRwOi8vd3d3LnczLm9yZy8yMDAwL3N2ZyIgeG1sbnM9Imh0dHA6Ly93d3cudzMub3JnLzIwMDAvc3ZnIiB4bWxuczp4bGluaz0iaHR0cDovL3d3dy53My5vcmcvMTk5OS94bGluayIgdmVyc2lvbj0iMS4xIiBpZD0ic3ZnMTc1MDM4IiBpbmtzY2FwZTp2ZXJzaW9uPSIwLjkyLjMgKDI0MDU1NDYsIDIwMTgtMDMtMTEpIiBzb2RpcG9kaTpkb2NuYW1lPSJwYy5zdmciIHg9IjBweCIgeT0iMHB4IiB2aWV3Qm94PSIwIDAgNzIuNTIgNjMuODMiIHN0eWxlPSJlbmFibGUtYmFja2dyb3VuZDpuZXcgMCAwIDcyLjUyIDYzLjgzOyIgeG1sOnNwYWNlPSJwcmVzZXJ2ZSI+JiN4YTs8c29kaXBvZGk6bmFtZWR2aWV3IGJvcmRlcmNvbG9yPSIjNjY2NjY2IiBib3JkZXJvcGFjaXR5PSIxIiBmaXQtbWFyZ2luLWJvdHRvbT0iMCIgZml0LW1hcmdpbi1sZWZ0PSIwIiBmaXQtbWFyZ2luLXJpZ2h0PSIwIiBmaXQtbWFyZ2luLXRvcD0iMCIgZ3JpZHRvbGVyYW5jZT0iMTAiIGd1aWRldG9sZXJhbmNlPSIxMCIgaWQ9Im5hbWVkdmlldzE3NTA0MCIgaW5rc2NhcGU6Y3VycmVudC1sYXllcj0ic3ZnMTc1MDM4IiBpbmtzY2FwZTpjeD0iNDguMzQ1OTE4IiBpbmtzY2FwZTpjeT0iMjkuMjE3MjU5IiBpbmtzY2FwZTpwYWdlb3BhY2l0eT0iMCIgaW5rc2NhcGU6cGFnZXNoYWRvdz0iMiIgaW5rc2NhcGU6d2luZG93LWhlaWdodD0iMTAxNyIgaW5rc2NhcGU6d2luZG93LW1heGltaXplZD0iMSIgaW5rc2NhcGU6d2luZG93LXdpZHRoPSIxOTIwIiBpbmtzY2FwZTp3aW5kb3cteD0iLTgiIGlua3NjYXBlOndpbmRvdy15PSItOCIgaW5rc2NhcGU6em9vbT0iNy4wNjc5MjIyIiBvYmplY3R0b2xlcmFuY2U9IjEwIiBwYWdlY29sb3I9IiNmZmZmZmYiIHNob3dncmlkPSJmYWxzZSI+JiN4YTsJPC9zb2RpcG9kaTpuYW1lZHZpZXc+JiN4YTs8ZyBpZD0iZzE3NTAzNiIgdHJhbnNmb3JtPSJ0cmFuc2xhdGUoMC4wMDk1OTgzLC00LjA4MzMyMjkpIj4mI3hhOwk8dGl0bGUgaWQ9InRpdGxlMTc1MDE2Ij5QYWdlLTE8L3RpdGxlPiYjeGE7CTxnIGlkPSJncm91cDkxMzAtMSIgdHJhbnNmb3JtPSJ0cmFuc2xhdGUoMC4yNSwtMjApIj4mI3hhOwkJPHRpdGxlIGlkPSJ0aXRsZTE3NTAxOCI+UEMuNTcxPC90aXRsZT4mI3hhOwkJPGcgaWQ9InNoYXBlOTEzMS0yIiB0cmFuc2Zvcm09InRyYW5zbGF0ZSgwLC00LjIxMTk2KSI+JiN4YTsJCQk8dGl0bGUgaWQ9InRpdGxlMTc1MDIwIj5TaGVldC45MTMxPC90aXRsZT4mI3hhOwkJCSYjeGE7CQkJCTxwYXRoIGlkPSJwYXRoMTc1MDIyIiBpbmtzY2FwZTpjb25uZWN0b3ItY3VydmF0dXJlPSIwIiBzdHlsZT0iZmlsbDojM0Y1NzY1O3N0cm9rZTojQzdDOEM4O3N0cm9rZS13aWR0aDowLjI1O3N0cm9rZS1saW5lY2FwOnNxdWFyZTtzdHJva2UtbWl0ZXJsaW1pdDozOyIgZD0iICAgICBNNjguNTQsMjguNDJINC4xOXY0Mi45NWg2NC4zNVYyOC40MnogTTcyLDkyTDYxLjIsNzguNDZIMTAuOEwwLDkySDcyeiBNNDEuNjYsNzEuMzdIMzAuMzR2Ny4wOWgxMS4zMlY3MS4zN3oiLz4mI3hhOwkJPC9nPiYjeGE7CQk8ZyBpZD0ic2hhcGU5MTMyLTQiIHRyYW5zZm9ybT0idHJhbnNsYXRlKDguMzYxMTYsLTI4LjcxMjYpIj4mI3hhOwkJCTx0aXRsZSBpZD0idGl0bGUxNzUwMjUiPlNoZWV0LjkxMzI8L3RpdGxlPiYjeGE7CQkJJiN4YTsJCQkJPHBhdGggaWQ9InBhdGgxNzUwMjciIGlua3NjYXBlOmNvbm5lY3Rvci1jdXJ2YXR1cmU9IjAiIHN0eWxlPSJmaWxsOiMzRjU3NjU7c3Ryb2tlOiNDN0M4Qzg7c3Ryb2tlLXdpZHRoOjAuMjU7c3Ryb2tlLWxpbmVjYXA6c3F1YXJlO3N0cm9rZS1taXRlcmxpbWl0OjM7IiBkPSIgICAgIE01Ni4wOSw1Ny4xOEgwVjkyaDU2LjA5VjU3LjE4eiIvPiYjeGE7CQk8L2c+JiN4YTsJCTxnIGlkPSJzaGFwZTkxMzMtNiIgdHJhbnNmb3JtPSJ0cmFuc2xhdGUoOS43OTg1MywtNy4wMDY3NSkiPiYjeGE7CQkJPHRpdGxlIGlkPSJ0aXRsZTE3NTAzMCI+U2hlZXQuOTEzMzwvdGl0bGU+JiN4YTsJCQk8cGF0aCBpZD0icGF0aDE3NTAzMiIgaW5rc2NhcGU6Y29ubmVjdG9yLWN1cnZhdHVyZT0iMCIgc3R5bGU9ImZpbGw6I0ZGRkZGRjsiIGQ9Ik00OS4xNyw4Ni43NWgtMy4ybDEuNzksMS45OWgzLjQ1TDQ5LjE3LDg2Ljc1eiAgICAgIE00NS41NSw4My4yMmgtMi43NmwxLjkzLDIuMTRoMy4wMkw0NS41NSw4My4yMnogTTQ0LjI0LDg2Ljc1aC0zLjJsMS40MSwxLjk5aDMuNDVMNDQuMjQsODYuNzV6IE00MS4zMSw4My4yMmgtMi43NmwxLjUxLDIuMTQgICAgIGgzLjAzTDQxLjMxLDgzLjIyeiBNMzkuMzIsODYuNzVoLTMuMmwxLjAyLDEuOTloMy40NUwzOS4zMiw4Ni43NXogTTM3LjA4LDgzLjIyaC0yLjc2bDEuMSwyLjE4aDMuMDNMMzcuMDgsODMuMjJ6IE0zNC40LDg2Ljc1ICAgICBoLTMuMmwwLjY0LDEuOTloMy40NUwzNC40LDg2Ljc1eiBNMzIuODksODMuMzdoLTIuNzdsMC42NSwyLjAzaDMuMDNMMzIuODksODMuMzd6IE0yOS40OCw4Ni43NWgtMy4ybDAuMjUsMS45OWgzLjQ1TDI5LjQ4LDg2Ljc1ICAgICB6IE0yOC42Nyw4My41M2gtMi44bDAuMjUsMmgzLjA1TDI4LjY3LDgzLjUzeiBNMjQuMzcsODMuNTNoLTIuOGwtMC4xMywyaDMuMDRMMjQuMzcsODMuNTN6IE0yNC41Niw4Ni43NWgtMy4ybC0wLjE0LDEuOTloMy40NiAgICAgTDI0LjU2LDg2Ljc1eiBNMjAuMDYsODMuNTNoLTIuNzlsLTAuNTIsMmgzLjA1TDIwLjA2LDgzLjUzeiBNMTkuNjMsODYuNzVoLTMuMmwtMC41MSwxLjk5aDMuNDVMMTkuNjMsODYuNzV6IE0zNy4xOSw5MC4wMUgxNC42MSAgICAgTDE0LjAyLDkyaDI0LjE1TDM3LjE5LDkwLjAxeiBNMTUuNzYsODMuNTNoLTIuNzlsLTAuOSwyaDMuMDRMMTUuNzYsODMuNTN6IE0xNC43MSw4Ni43NWgtMy4ybC0wLjksMS45OWgzLjQ1TDE0LjcxLDg2Ljc1eiAgICAgIE0xMS40Niw4My41M2gtMi44bC0xLjI4LDJoMy4wNUwxMS40Niw4My41M3ogTTkuNzksODYuNzVoLTMuMmwtMS4yOCwxLjk5aDMuNDVMOS43OSw4Ni43NXogTTcuMTYsODMuNTNoLTIuOGwtMS42NywyaDMuMDUgICAgIEw3LjE2LDgzLjUzeiBNNC44Nyw4Ni43NWgtMy4yTDAsODguNzRoMy40NUw0Ljg3LDg2Ljc1eiIvPiYjeGE7CQk8L2c+JiN4YTsJPC9nPiYjeGE7PC9nPiYjeGE7PC9zdmc+;" vertex="1" parent="1">
          <mxGeometry x="589.9999999999999" y="380" width="73" height="64" as="geometry" />
        </mxCell>
        <mxCell id="QX-P79LdTZ4ubuz_DQ_H-53" value="HPC Workstation" style="shape=image;verticalLabelPosition=bottom;labelBackgroundColor=#ffffff;verticalAlign=top;aspect=fixed;imageAspect=0;image=data:image/svg+xml,PHN2ZyB4bWxuczpjYz0iaHR0cDovL2NyZWF0aXZlY29tbW9ucy5vcmcvbnMjIiB4bWxuczpkYz0iaHR0cDovL3B1cmwub3JnL2RjL2VsZW1lbnRzLzEuMS8iIHhtbG5zOmlua3NjYXBlPSJodHRwOi8vd3d3Lmlua3NjYXBlLm9yZy9uYW1lc3BhY2VzL2lua3NjYXBlIiB4bWxuczpyZGY9Imh0dHA6Ly93d3cudzMub3JnLzE5OTkvMDIvMjItcmRmLXN5bnRheC1ucyMiIHhtbG5zOnNvZGlwb2RpPSJodHRwOi8vc29kaXBvZGkuc291cmNlZm9yZ2UubmV0L0RURC9zb2RpcG9kaS0wLmR0ZCIgeG1sbnM6c3ZnPSJodHRwOi8vd3d3LnczLm9yZy8yMDAwL3N2ZyIgeG1sbnM9Imh0dHA6Ly93d3cudzMub3JnLzIwMDAvc3ZnIiB4bWxuczp4bGluaz0iaHR0cDovL3d3dy53My5vcmcvMTk5OS94bGluayIgdmVyc2lvbj0iMS4xIiBpZD0ic3ZnMTc1MDM4IiBpbmtzY2FwZTp2ZXJzaW9uPSIwLjkyLjMgKDI0MDU1NDYsIDIwMTgtMDMtMTEpIiBzb2RpcG9kaTpkb2NuYW1lPSJwYy5zdmciIHg9IjBweCIgeT0iMHB4IiB2aWV3Qm94PSIwIDAgNzIuNTIgNjMuODMiIHN0eWxlPSJlbmFibGUtYmFja2dyb3VuZDpuZXcgMCAwIDcyLjUyIDYzLjgzOyIgeG1sOnNwYWNlPSJwcmVzZXJ2ZSI+JiN4YTs8c29kaXBvZGk6bmFtZWR2aWV3IGJvcmRlcmNvbG9yPSIjNjY2NjY2IiBib3JkZXJvcGFjaXR5PSIxIiBmaXQtbWFyZ2luLWJvdHRvbT0iMCIgZml0LW1hcmdpbi1sZWZ0PSIwIiBmaXQtbWFyZ2luLXJpZ2h0PSIwIiBmaXQtbWFyZ2luLXRvcD0iMCIgZ3JpZHRvbGVyYW5jZT0iMTAiIGd1aWRldG9sZXJhbmNlPSIxMCIgaWQ9Im5hbWVkdmlldzE3NTA0MCIgaW5rc2NhcGU6Y3VycmVudC1sYXllcj0ic3ZnMTc1MDM4IiBpbmtzY2FwZTpjeD0iNDguMzQ1OTE4IiBpbmtzY2FwZTpjeT0iMjkuMjE3MjU5IiBpbmtzY2FwZTpwYWdlb3BhY2l0eT0iMCIgaW5rc2NhcGU6cGFnZXNoYWRvdz0iMiIgaW5rc2NhcGU6d2luZG93LWhlaWdodD0iMTAxNyIgaW5rc2NhcGU6d2luZG93LW1heGltaXplZD0iMSIgaW5rc2NhcGU6d2luZG93LXdpZHRoPSIxOTIwIiBpbmtzY2FwZTp3aW5kb3cteD0iLTgiIGlua3NjYXBlOndpbmRvdy15PSItOCIgaW5rc2NhcGU6em9vbT0iNy4wNjc5MjIyIiBvYmplY3R0b2xlcmFuY2U9IjEwIiBwYWdlY29sb3I9IiNmZmZmZmYiIHNob3dncmlkPSJmYWxzZSI+JiN4YTsJPC9zb2RpcG9kaTpuYW1lZHZpZXc+JiN4YTs8ZyBpZD0iZzE3NTAzNiIgdHJhbnNmb3JtPSJ0cmFuc2xhdGUoMC4wMDk1OTgzLC00LjA4MzMyMjkpIj4mI3hhOwk8dGl0bGUgaWQ9InRpdGxlMTc1MDE2Ij5QYWdlLTE8L3RpdGxlPiYjeGE7CTxnIGlkPSJncm91cDkxMzAtMSIgdHJhbnNmb3JtPSJ0cmFuc2xhdGUoMC4yNSwtMjApIj4mI3hhOwkJPHRpdGxlIGlkPSJ0aXRsZTE3NTAxOCI+UEMuNTcxPC90aXRsZT4mI3hhOwkJPGcgaWQ9InNoYXBlOTEzMS0yIiB0cmFuc2Zvcm09InRyYW5zbGF0ZSgwLC00LjIxMTk2KSI+JiN4YTsJCQk8dGl0bGUgaWQ9InRpdGxlMTc1MDIwIj5TaGVldC45MTMxPC90aXRsZT4mI3hhOwkJCSYjeGE7CQkJCTxwYXRoIGlkPSJwYXRoMTc1MDIyIiBpbmtzY2FwZTpjb25uZWN0b3ItY3VydmF0dXJlPSIwIiBzdHlsZT0iZmlsbDojM0Y1NzY1O3N0cm9rZTojQzdDOEM4O3N0cm9rZS13aWR0aDowLjI1O3N0cm9rZS1saW5lY2FwOnNxdWFyZTtzdHJva2UtbWl0ZXJsaW1pdDozOyIgZD0iICAgICBNNjguNTQsMjguNDJINC4xOXY0Mi45NWg2NC4zNVYyOC40MnogTTcyLDkyTDYxLjIsNzguNDZIMTAuOEwwLDkySDcyeiBNNDEuNjYsNzEuMzdIMzAuMzR2Ny4wOWgxMS4zMlY3MS4zN3oiLz4mI3hhOwkJPC9nPiYjeGE7CQk8ZyBpZD0ic2hhcGU5MTMyLTQiIHRyYW5zZm9ybT0idHJhbnNsYXRlKDguMzYxMTYsLTI4LjcxMjYpIj4mI3hhOwkJCTx0aXRsZSBpZD0idGl0bGUxNzUwMjUiPlNoZWV0LjkxMzI8L3RpdGxlPiYjeGE7CQkJJiN4YTsJCQkJPHBhdGggaWQ9InBhdGgxNzUwMjciIGlua3NjYXBlOmNvbm5lY3Rvci1jdXJ2YXR1cmU9IjAiIHN0eWxlPSJmaWxsOiMzRjU3NjU7c3Ryb2tlOiNDN0M4Qzg7c3Ryb2tlLXdpZHRoOjAuMjU7c3Ryb2tlLWxpbmVjYXA6c3F1YXJlO3N0cm9rZS1taXRlcmxpbWl0OjM7IiBkPSIgICAgIE01Ni4wOSw1Ny4xOEgwVjkyaDU2LjA5VjU3LjE4eiIvPiYjeGE7CQk8L2c+JiN4YTsJCTxnIGlkPSJzaGFwZTkxMzMtNiIgdHJhbnNmb3JtPSJ0cmFuc2xhdGUoOS43OTg1MywtNy4wMDY3NSkiPiYjeGE7CQkJPHRpdGxlIGlkPSJ0aXRsZTE3NTAzMCI+U2hlZXQuOTEzMzwvdGl0bGU+JiN4YTsJCQk8cGF0aCBpZD0icGF0aDE3NTAzMiIgaW5rc2NhcGU6Y29ubmVjdG9yLWN1cnZhdHVyZT0iMCIgc3R5bGU9ImZpbGw6I0ZGRkZGRjsiIGQ9Ik00OS4xNyw4Ni43NWgtMy4ybDEuNzksMS45OWgzLjQ1TDQ5LjE3LDg2Ljc1eiAgICAgIE00NS41NSw4My4yMmgtMi43NmwxLjkzLDIuMTRoMy4wMkw0NS41NSw4My4yMnogTTQ0LjI0LDg2Ljc1aC0zLjJsMS40MSwxLjk5aDMuNDVMNDQuMjQsODYuNzV6IE00MS4zMSw4My4yMmgtMi43NmwxLjUxLDIuMTQgICAgIGgzLjAzTDQxLjMxLDgzLjIyeiBNMzkuMzIsODYuNzVoLTMuMmwxLjAyLDEuOTloMy40NUwzOS4zMiw4Ni43NXogTTM3LjA4LDgzLjIyaC0yLjc2bDEuMSwyLjE4aDMuMDNMMzcuMDgsODMuMjJ6IE0zNC40LDg2Ljc1ICAgICBoLTMuMmwwLjY0LDEuOTloMy40NUwzNC40LDg2Ljc1eiBNMzIuODksODMuMzdoLTIuNzdsMC42NSwyLjAzaDMuMDNMMzIuODksODMuMzd6IE0yOS40OCw4Ni43NWgtMy4ybDAuMjUsMS45OWgzLjQ1TDI5LjQ4LDg2Ljc1ICAgICB6IE0yOC42Nyw4My41M2gtMi44bDAuMjUsMmgzLjA1TDI4LjY3LDgzLjUzeiBNMjQuMzcsODMuNTNoLTIuOGwtMC4xMywyaDMuMDRMMjQuMzcsODMuNTN6IE0yNC41Niw4Ni43NWgtMy4ybC0wLjE0LDEuOTloMy40NiAgICAgTDI0LjU2LDg2Ljc1eiBNMjAuMDYsODMuNTNoLTIuNzlsLTAuNTIsMmgzLjA1TDIwLjA2LDgzLjUzeiBNMTkuNjMsODYuNzVoLTMuMmwtMC41MSwxLjk5aDMuNDVMMTkuNjMsODYuNzV6IE0zNy4xOSw5MC4wMUgxNC42MSAgICAgTDE0LjAyLDkyaDI0LjE1TDM3LjE5LDkwLjAxeiBNMTUuNzYsODMuNTNoLTIuNzlsLTAuOSwyaDMuMDRMMTUuNzYsODMuNTN6IE0xNC43MSw4Ni43NWgtMy4ybC0wLjksMS45OWgzLjQ1TDE0LjcxLDg2Ljc1eiAgICAgIE0xMS40Niw4My41M2gtMi44bC0xLjI4LDJoMy4wNUwxMS40Niw4My41M3ogTTkuNzksODYuNzVoLTMuMmwtMS4yOCwxLjk5aDMuNDVMOS43OSw4Ni43NXogTTcuMTYsODMuNTNoLTIuOGwtMS42NywyaDMuMDUgICAgIEw3LjE2LDgzLjUzeiBNNC44Nyw4Ni43NWgtMy4yTDAsODguNzRoMy40NUw0Ljg3LDg2Ljc1eiIvPiYjeGE7CQk8L2c+JiN4YTsJPC9nPiYjeGE7PC9nPiYjeGE7PC9zdmc+;" vertex="1" parent="1">
          <mxGeometry x="709.9999999999999" y="380" width="73" height="64" as="geometry" />
        </mxCell>
        <mxCell id="QX-P79LdTZ4ubuz_DQ_H-55" style="edgeStyle=orthogonalEdgeStyle;rounded=0;orthogonalLoop=1;jettySize=auto;html=1;exitX=0.5;exitY=0;exitDx=0;exitDy=0;entryX=1;entryY=0.25;entryDx=0;entryDy=0;entryPerimeter=0;" edge="1" parent="1" source="QX-P79LdTZ4ubuz_DQ_H-52" target="QX-P79LdTZ4ubuz_DQ_H-32">
          <mxGeometry relative="1" as="geometry" />
        </mxCell>
        <mxCell id="QX-P79LdTZ4ubuz_DQ_H-56" style="edgeStyle=orthogonalEdgeStyle;rounded=0;orthogonalLoop=1;jettySize=auto;html=1;entryX=1;entryY=0.25;entryDx=0;entryDy=0;entryPerimeter=0;" edge="1" parent="1" source="QX-P79LdTZ4ubuz_DQ_H-51" target="QX-P79LdTZ4ubuz_DQ_H-32">
          <mxGeometry relative="1" as="geometry">
            <Array as="points">
              <mxPoint x="507" y="297" />
            </Array>
          </mxGeometry>
        </mxCell>
        <mxCell id="QX-P79LdTZ4ubuz_DQ_H-57" style="edgeStyle=orthogonalEdgeStyle;rounded=0;orthogonalLoop=1;jettySize=auto;html=1;entryX=1;entryY=0.25;entryDx=0;entryDy=0;entryPerimeter=0;" edge="1" parent="1" source="QX-P79LdTZ4ubuz_DQ_H-53" target="QX-P79LdTZ4ubuz_DQ_H-32">
          <mxGeometry relative="1" as="geometry">
            <Array as="points">
              <mxPoint x="747" y="297" />
            </Array>
          </mxGeometry>
        </mxCell>
      </root>
    </mxGraphModel>
  </diagram>
</mxfile>
